<svg width="156" height="93" viewBox="0 0 156 93" fill="none" xmlns="http://www.w3.org/2000/svg">
<path d="M44.2977 33.8567C44.2977 35.7591 44.5034 37.3017 44.8633 38.4328C45.2746 39.564 45.7888 40.798 46.5087 42.1349C46.7657 42.5462 46.8686 42.9576 46.8686 43.3175C46.8686 43.8316 46.5601 44.3458 45.8916 44.86L42.6524 47.0195C42.1896 47.328 41.7268 47.4823 41.3155 47.4823C40.8013 47.4823 40.2872 47.2252 39.773 46.7624C39.0532 45.9912 38.4361 45.1685 37.922 44.3458C37.4078 43.4717 36.8936 42.4948 36.328 41.3122C32.3175 46.0426 27.2786 48.4078 21.2114 48.4078C16.8923 48.4078 13.4474 47.1738 10.9279 44.7057C8.40848 42.2377 7.12305 38.947 7.12305 34.8336C7.12305 30.4632 8.66556 26.9154 11.802 24.2417C14.9385 21.568 19.1033 20.2311 24.3992 20.2311C26.1474 20.2311 27.947 20.3854 29.8495 20.6425C31.7519 20.8996 33.7058 21.3109 35.7625 21.7737V18.0202C35.7625 14.1125 34.9398 11.3874 33.3458 9.79344C31.7005 8.1995 28.924 7.42825 24.9648 7.42825C23.1652 7.42825 21.3142 7.63391 19.4118 8.09667C17.5093 8.55942 15.6583 9.12501 13.8587 9.84486C13.036 10.2048 12.419 10.4104 12.0591 10.5133C11.6992 10.6161 11.4421 10.6675 11.2364 10.6675C10.5166 10.6675 10.1567 10.1534 10.1567 9.0736V6.55415C10.1567 5.73148 10.2595 5.11447 10.5166 4.75455C10.7737 4.39463 11.2364 4.03471 11.9563 3.67479C13.7559 2.74928 15.9154 1.97802 18.4348 1.36101C20.9543 0.692588 23.628 0.384084 26.4559 0.384084C32.5746 0.384084 37.0479 1.77235 39.9272 4.54888C42.7552 7.32541 44.1949 11.5416 44.1949 17.1975V33.8567H44.2977ZM23.4223 41.6721C25.1191 41.6721 26.8673 41.3636 28.7183 40.7466C30.5693 40.1296 32.2147 38.9984 33.6029 37.4559C34.4256 36.479 35.0426 35.3992 35.3511 34.1652C35.6596 32.9312 35.8653 31.4401 35.8653 29.6919V27.5324C34.3742 27.1725 32.7803 26.864 31.1349 26.6583C29.4895 26.4526 27.8956 26.3498 26.3017 26.3498C22.8567 26.3498 20.3373 27.0182 18.6405 28.4065C16.9437 29.7947 16.1211 31.7486 16.1211 34.3195C16.1211 36.7361 16.7381 38.5357 18.0235 39.7697C19.2575 41.0551 21.0571 41.6721 23.4223 41.6721ZM64.7104 47.2252C63.7849 47.2252 63.1678 47.0709 62.7565 46.711C62.3452 46.4025 61.9852 45.6827 61.6767 44.7057L49.5937 4.96022C49.2852 3.93187 49.1309 3.26345 49.1309 2.90353C49.1309 2.08085 49.5423 1.6181 50.3649 1.6181H55.4038C56.3808 1.6181 57.0492 1.77235 57.4091 2.13227C57.8204 2.44077 58.1289 3.16062 58.4375 4.13754L67.0756 38.1758L75.0966 4.13754C75.3537 3.1092 75.6622 2.44077 76.0736 2.13227C76.4849 1.82377 77.2048 1.6181 78.1303 1.6181H82.2436C83.2206 1.6181 83.889 1.77235 84.3003 2.13227C84.7117 2.44077 85.0716 3.16062 85.2773 4.13754L93.4012 38.5871L102.296 4.13754C102.605 3.1092 102.965 2.44077 103.325 2.13227C103.736 1.82377 104.404 1.6181 105.33 1.6181H110.112C110.934 1.6181 111.397 2.02944 111.397 2.90353C111.397 3.16062 111.346 3.4177 111.294 3.7262C111.243 4.03471 111.14 4.44605 110.934 5.01164L98.5429 44.7572C98.2344 45.7855 97.8745 46.4539 97.4632 46.7624C97.0518 47.0709 96.3834 47.2766 95.5093 47.2766H91.0874C90.1105 47.2766 89.4421 47.1223 89.0307 46.7624C88.6194 46.4025 88.2595 45.7341 88.0538 44.7057L80.0841 11.5416L72.1659 44.6543C71.9088 45.6827 71.6003 46.3511 71.1889 46.711C70.7776 47.0709 70.0578 47.2252 69.1322 47.2252H64.7104ZM130.782 48.6134C128.108 48.6134 125.434 48.3049 122.863 47.6879C120.292 47.0709 118.287 46.4025 116.95 45.6313C116.128 45.1685 115.562 44.6543 115.356 44.1916C115.151 43.7288 115.048 43.2146 115.048 42.7519V40.1296C115.048 39.0498 115.459 38.5357 116.23 38.5357C116.539 38.5357 116.847 38.5871 117.156 38.6899C117.464 38.7928 117.927 38.9984 118.441 39.2041C120.19 39.9754 122.092 40.5924 124.097 41.0037C126.154 41.415 128.159 41.6207 130.216 41.6207C133.455 41.6207 135.975 41.0551 137.723 39.9239C139.471 38.7928 140.397 37.1474 140.397 35.0393C140.397 33.5996 139.934 32.417 139.008 31.4401C138.083 30.4632 136.335 29.5891 133.815 28.7664L126.36 26.4526C122.606 25.27 119.83 23.5218 118.133 21.2081C116.436 18.9457 115.562 16.4263 115.562 13.7526C115.562 11.593 116.025 9.6906 116.95 8.04525C117.876 6.3999 119.11 4.96022 120.652 3.82904C122.195 2.64644 123.943 1.77235 126 1.15534C128.056 0.538336 130.216 0.28125 132.478 0.28125C133.609 0.28125 134.792 0.332667 135.923 0.486919C137.106 0.641171 138.186 0.84684 139.265 1.05251C140.294 1.30959 141.271 1.56668 142.196 1.87518C143.122 2.18369 143.842 2.49219 144.356 2.80069C145.076 3.21203 145.59 3.62337 145.898 4.08613C146.207 4.49746 146.361 5.06305 146.361 5.78289V8.1995C146.361 9.27927 145.95 9.84486 145.178 9.84486C144.767 9.84486 144.099 9.63919 143.224 9.22785C140.294 7.891 137.003 7.22258 133.352 7.22258C130.422 7.22258 128.108 7.68533 126.514 8.66226C124.92 9.63919 124.097 11.1303 124.097 13.2384C124.097 14.6781 124.611 15.9121 125.64 16.889C126.668 17.8659 128.571 18.8429 131.296 19.717L138.597 22.0307C142.299 23.2133 144.973 24.8587 146.567 26.9668C148.161 29.0749 148.932 31.4915 148.932 34.1652C148.932 36.3761 148.469 38.3814 147.595 40.1296C146.669 41.8778 145.435 43.4203 143.842 44.6543C142.248 45.9398 140.345 46.8653 138.134 47.5337C135.82 48.2535 133.404 48.6134 130.782 48.6134Z" fill="white"/>
<path d="M140.5 73.6008C123.584 86.0952 99.0062 92.728 77.8738 92.728C48.2574 92.728 21.5719 81.7761 1.41633 63.5744C-0.177603 62.1348 1.26208 60.1809 3.16452 61.3121C24.9654 73.9607 51.8566 81.6219 79.6734 81.6219C98.4407 81.6219 119.059 77.7142 138.032 69.6931C140.86 68.4077 143.276 71.5441 140.5 73.6008ZM147.544 65.5797C145.385 62.8032 133.25 64.2429 127.748 64.9113C126.103 65.117 125.846 63.6773 127.337 62.5975C137.004 55.8104 152.892 57.7643 154.743 60.0266C156.594 62.3404 154.228 78.2283 145.179 85.8381C143.791 87.0207 142.454 86.4037 143.071 84.8612C145.128 79.7709 149.704 68.3048 147.544 65.5797Z" fill="white"/>
</svg>
