<svg width="139" height="160" viewBox="0 0 139 160" fill="none" xmlns="http://www.w3.org/2000/svg">
<path d="M55.9201 6.97329L11.8128 33.7248C4.98135 37.8681 0.809326 45.2779 0.809326 53.2676V106.903C0.809326 114.91 4.99964 122.334 11.8551 126.471L55.5506 152.844C62.8387 157.242 71.9674 157.226 79.2401 152.802L127.364 123.527C134.181 119.38 138.341 111.979 138.341 104V53.6854C138.341 45.471 133.933 37.8884 126.795 33.8236L79.0832 6.65429C71.8761 2.55027 63.0114 2.67235 55.9201 6.97329Z" fill="#2CA2FF"/>
<path d="M47.3159 74.5379C47.3159 75.7052 47.4421 76.6517 47.6629 77.3457C47.9153 78.0398 48.2308 78.797 48.6725 79.6173C48.8302 79.8697 48.8933 80.122 48.8933 80.3429C48.8933 80.6584 48.7041 80.9739 48.2939 81.2894L46.3063 82.6144C46.0224 82.8037 45.7385 82.8983 45.4861 82.8983C45.1706 82.8983 44.8551 82.7406 44.5396 82.4567C44.0979 81.9834 43.7193 81.4786 43.4038 80.9739C43.0884 80.4375 42.7729 79.8381 42.4258 79.1125C39.965 82.015 36.8732 83.4662 33.1505 83.4662C30.5004 83.4662 28.3866 82.709 26.8407 81.1947C25.2948 79.6804 24.5061 77.6612 24.5061 75.1373C24.5061 72.4557 25.4526 70.2788 27.377 68.6383C29.3015 66.9977 31.857 66.1775 35.1065 66.1775C36.1792 66.1775 37.2834 66.2721 38.4507 66.4299C39.618 66.5876 40.8168 66.84 42.0788 67.1239V64.8209C42.0788 62.4232 41.574 60.7511 40.596 59.7731C39.5864 58.795 37.8828 58.3218 35.4535 58.3218C34.3493 58.3218 33.2136 58.448 32.0463 58.7319C30.879 59.0159 29.7432 59.3629 28.639 59.8046C28.1342 60.0254 27.7556 60.1516 27.5348 60.2147C27.3139 60.2778 27.1562 60.3094 27.03 60.3094C26.5883 60.3094 26.3675 59.9939 26.3675 59.3314V57.7855C26.3675 57.2807 26.4306 56.9021 26.5883 56.6813C26.7461 56.4604 27.03 56.2396 27.4717 56.0187C28.5759 55.4509 29.901 54.9776 31.4468 54.599C32.9927 54.1889 34.6333 53.9996 36.3685 53.9996C40.1228 53.9996 42.8675 54.8514 44.6343 56.5551C46.3694 58.2587 47.2528 60.8457 47.2528 64.3161V74.5379H47.3159ZM34.5071 79.3333C35.5482 79.3333 36.6209 79.144 37.7566 78.7654C38.8924 78.3869 39.9019 77.6928 40.7537 76.7463C41.2585 76.1469 41.6371 75.4844 41.8264 74.7272C42.0157 73.97 42.1419 73.0551 42.1419 71.9824V70.6574C41.227 70.4366 40.249 70.2473 39.2394 70.1211C38.2298 69.9949 37.2518 69.9318 36.2738 69.9318C34.16 69.9318 32.6142 70.3419 31.573 71.1937C30.5319 72.0455 30.0271 73.2444 30.0271 74.8218C30.0271 76.3046 30.4057 77.4088 31.1945 78.166C31.9516 78.9547 33.0558 79.3333 34.5071 79.3333ZM59.8408 82.7406C59.2729 82.7406 58.8943 82.6459 58.6419 82.4251C58.3895 82.2358 58.1687 81.7941 57.9794 81.1947L50.5654 56.8075C50.3761 56.1765 50.2815 55.7664 50.2815 55.5455C50.2815 55.0407 50.5339 54.7568 51.0387 54.7568H54.1304C54.7299 54.7568 55.14 54.8514 55.3609 55.0723C55.6132 55.2616 55.8025 55.7033 55.9918 56.3027L61.292 77.188L66.2136 56.3027C66.3714 55.6717 66.5607 55.2616 66.8131 55.0723C67.0655 54.883 67.5072 54.7568 68.075 54.7568H70.5989C71.1984 54.7568 71.6085 54.8514 71.8609 55.0723C72.1133 55.2616 72.3341 55.7033 72.4603 56.3027L77.445 77.4404L82.903 56.3027C83.0923 55.6717 83.3131 55.2616 83.534 55.0723C83.7863 54.883 84.1965 54.7568 84.7644 54.7568H87.6984C88.2032 54.7568 88.4871 55.0092 88.4871 55.5455C88.4871 55.7033 88.4556 55.861 88.424 56.0503C88.3925 56.2396 88.3294 56.492 88.2032 56.839L80.5999 81.2263C80.4106 81.8572 80.1898 82.2674 79.9374 82.4567C79.685 82.6459 79.2749 82.7721 78.7385 82.7721H76.0253C75.4259 82.7721 75.0158 82.6775 74.7634 82.4567C74.511 82.2358 74.2902 81.8257 74.164 81.1947L69.2739 60.8457L64.4154 81.1632C64.2576 81.7941 64.0683 82.2043 63.8159 82.4251C63.5635 82.6459 63.1219 82.7406 62.554 82.7406H59.8408ZM100.381 83.5924C98.7405 83.5924 97.0999 83.4031 95.5225 83.0245C93.9451 82.6459 92.7147 82.2358 91.8944 81.7626C91.3896 81.4786 91.0426 81.1632 90.9164 80.8792C90.7902 80.5953 90.7271 80.2798 90.7271 79.9958V78.3869C90.7271 77.7243 90.9795 77.4088 91.4527 77.4088C91.642 77.4088 91.8313 77.4404 92.0206 77.5035C92.2099 77.5666 92.4938 77.6928 92.8093 77.819C93.882 78.2922 95.0493 78.6708 96.2797 78.9232C97.5416 79.1756 98.772 79.3018 100.034 79.3018C102.022 79.3018 103.567 78.9547 104.64 78.2607C105.713 77.5666 106.281 76.557 106.281 75.2635C106.281 74.3802 105.997 73.6545 105.429 73.0551C104.861 72.4557 103.788 71.9194 102.242 71.4146L97.6678 69.9949C95.3648 69.2693 93.6611 68.1966 92.62 66.7769C91.5789 65.3887 91.0426 63.8429 91.0426 62.2023C91.0426 60.8773 91.3265 59.71 91.8944 58.7004C92.4623 57.6908 93.2194 56.8075 94.1659 56.1134C95.1124 55.3878 96.185 54.8514 97.447 54.4729C98.7089 54.0943 100.034 53.9365 101.422 53.9365C102.116 53.9365 102.842 53.9681 103.536 54.0627C104.262 54.1574 104.924 54.2836 105.587 54.4098C106.218 54.5675 106.817 54.7252 107.385 54.9145C107.953 55.1038 108.394 55.2931 108.71 55.4824C109.152 55.7348 109.467 55.9872 109.656 56.2711C109.846 56.5235 109.94 56.8706 109.94 57.3122V58.795C109.94 59.4576 109.688 59.8046 109.215 59.8046C108.962 59.8046 108.552 59.6784 108.016 59.426C106.218 58.6057 104.198 58.1956 101.958 58.1956C100.16 58.1956 98.7405 58.4796 97.7625 59.079C96.7845 59.6784 96.2797 60.5933 96.2797 61.8868C96.2797 62.7702 96.5952 63.5274 97.2261 64.1268C97.8571 64.7262 99.0244 65.3256 100.697 65.862L105.176 67.2817C107.448 68.0073 109.089 69.0169 110.067 70.3104C111.045 71.6039 111.518 73.0867 111.518 74.7272C111.518 76.0838 111.234 77.3142 110.697 78.3869C110.13 79.4595 109.372 80.406 108.394 81.1632C107.416 81.9519 106.249 82.5198 104.893 82.9299C103.473 83.3716 101.99 83.5924 100.381 83.5924Z" fill="white"/>
<path d="M106.344 98.9242C95.964 106.591 80.8836 110.66 67.9171 110.66C49.745 110.66 33.3711 103.94 21.004 92.7721C20.026 91.8888 20.9093 90.6899 22.0766 91.384C35.4533 99.145 51.9534 103.846 69.0213 103.846C80.5366 103.846 93.1877 101.448 104.829 96.5264C106.564 95.7377 108.047 97.6622 106.344 98.9242ZM110.666 94.0025C109.341 92.2989 101.895 93.1823 98.5194 93.5924C97.5099 93.7186 97.3521 92.8352 98.267 92.1727C104.198 88.0083 113.947 89.2071 115.083 90.5953C116.218 92.015 114.767 101.764 109.214 106.433C108.363 107.158 107.542 106.78 107.921 105.833C109.183 102.71 111.991 95.6746 110.666 94.0025Z" fill="white"/>
</svg>
