<svg width="138" height="160" viewBox="0 0 138 160" fill="none" xmlns="http://www.w3.org/2000/svg">
<path d="M55.1108 6.96743L11.0034 33.7189C4.17202 37.8623 0 45.272 0 53.2617V106.897C0 114.904 4.19031 122.328 11.0458 126.465L54.7413 152.838C62.0294 157.236 71.1581 157.221 78.4307 152.796L126.555 123.521C133.371 119.374 137.532 111.973 137.532 103.994V53.6795C137.532 45.4652 133.124 37.8825 125.986 33.8178L78.2739 6.64843C71.0668 2.54441 62.2021 2.66649 55.1108 6.96743Z" fill="#5E3ADA"/>
<path fill-rule="evenodd" clip-rule="evenodd" d="M43.7677 48.5376C39.1518 48.5376 35.7364 52.5776 35.8893 56.959C36.036 61.1683 35.8454 66.6199 34.4729 71.0657C33.0963 75.5245 30.7681 78.3491 26.9653 78.7118V82.8058C30.7681 83.1685 33.0963 85.9931 34.4729 90.4522C35.8454 94.8977 36.036 100.349 35.8893 104.559C35.7364 108.94 39.1518 112.98 43.7684 112.98H91.0649C95.681 112.98 99.0959 108.94 98.9428 104.559C98.7962 100.349 98.9867 94.8977 100.359 90.4522C101.736 85.9931 104.058 83.1685 107.861 82.8058V78.7118C104.058 78.3491 101.736 75.5245 100.359 71.0657C98.9867 66.6206 98.7962 61.1683 98.9428 56.959C99.0959 52.5783 95.681 48.5376 91.0649 48.5376H43.7677ZM81.8101 88.2059C81.8101 94.2391 77.3099 97.898 69.8422 97.898H57.1299C56.7663 97.898 56.4175 97.7534 56.1604 97.4962C55.9033 97.239 55.7588 96.8905 55.7588 96.5268V64.991C55.7588 64.6274 55.9033 64.2786 56.1604 64.0215C56.4175 63.7643 56.7663 63.6199 57.1299 63.6199H69.7697C75.9964 63.6199 80.083 66.9928 80.083 72.1716C80.083 75.8063 77.3342 79.0607 73.8314 79.6303V79.8204C78.5995 80.3435 81.8101 83.6451 81.8101 88.2059ZM68.4562 67.9663H61.2076V78.2045H67.3125C72.0318 78.2045 74.6343 76.3041 74.6343 72.9072C74.6343 69.7241 72.3965 67.9663 68.4562 67.9663ZM61.2076 82.2672V93.5501H68.7228C73.6362 93.5501 76.2391 91.5783 76.2391 87.8729C76.2391 84.1669 73.5634 82.2665 68.4066 82.2665L61.2076 82.2672Z" fill="white"/>
</svg>
