<svg width="133" height="106" viewBox="0 0 133 106" fill="none" xmlns="http://www.w3.org/2000/svg">
<path fill-rule="evenodd" clip-rule="evenodd" d="M27.7521 0.388184C20.2293 0.388184 14.6629 6.97246 14.9121 14.1131C15.1512 20.9733 14.8406 29.8581 12.6037 37.1038C10.3602 44.3705 6.56582 48.974 0.368164 49.5651V56.2374C6.56582 56.8285 10.3602 61.4319 12.6037 68.6991C14.8406 75.9444 15.1512 84.8294 14.9121 91.6896C14.6629 98.8293 20.2293 105.414 27.7532 105.414H104.836C112.359 105.414 117.924 98.8304 117.675 91.6896C117.436 84.8294 117.746 75.9444 119.983 68.6991C122.228 61.4319 126.012 56.8285 132.21 56.2374V49.5651C126.012 48.974 122.228 44.3705 119.983 37.1038C117.746 29.8592 117.436 20.9733 117.675 14.1131C117.924 6.97356 112.359 0.388184 104.836 0.388184H27.7521ZM89.7524 65.0383C89.7524 74.871 82.4181 80.8341 70.2475 80.8341H49.5294C48.9368 80.8341 48.3684 80.5984 47.9494 80.1793C47.5303 79.7601 47.2948 79.1921 47.2948 78.5994V27.2034C47.2948 26.6108 47.5303 26.0424 47.9494 25.6233C48.3684 25.2042 48.9368 24.9688 49.5294 24.9688H70.1294C80.2773 24.9688 86.9375 30.4659 86.9375 38.906C86.9375 44.8298 82.4577 50.1337 76.7489 51.062V51.3719C84.5199 52.2244 89.7524 57.6052 89.7524 65.0383ZM67.9886 32.0525H56.1751V48.7383H66.1247C73.816 48.7383 78.0575 45.6412 78.0575 40.1049C78.0575 34.9173 74.4104 32.0525 67.9886 32.0525ZM56.1751 55.3595V73.7481H68.4231C76.4309 73.7481 80.6729 70.5345 80.6729 64.4956C80.6729 58.4556 76.3122 55.3584 67.9079 55.3584L56.1751 55.3595Z" fill="white"/>
</svg>
