<svg width="119" height="232" viewBox="0 0 119 232" fill="none" xmlns="http://www.w3.org/2000/svg">
<path d="M5.96895 115.748C5.96895 105.082 8.27639 95.5959 12.8913 87.2891C17.5062 78.8797 23.9157 72.3676 32.12 67.7527C40.4268 63.0353 49.8104 60.6766 60.2708 60.6766C73.0899 60.6766 84.063 64.0608 93.1903 70.8293C102.317 77.5978 108.419 86.8276 111.496 98.5186H82.576C80.4224 94.0063 77.3458 90.5708 73.3463 88.2121C69.4492 85.8533 64.9882 84.674 59.9631 84.674C51.8614 84.674 45.298 87.4942 40.2729 93.1346C35.2478 98.775 32.7353 106.313 32.7353 115.748C32.7353 125.182 35.2478 132.72 40.2729 138.36C45.298 144.001 51.8614 146.821 59.9631 146.821C64.9882 146.821 69.4492 145.642 73.3463 143.283C77.3458 140.924 80.4224 137.489 82.576 132.976H111.496C108.419 144.667 102.317 153.897 93.1903 160.666C84.063 167.332 73.0899 170.665 60.2708 170.665C49.8104 170.665 40.4268 168.357 32.12 163.742C23.9157 159.025 17.5062 152.513 12.8913 144.206C8.27639 135.899 5.96895 126.413 5.96895 115.748Z" fill="white"/>
<path d="M105.204 112.074L104.331 116.155H108.07V120.953H103.303L102.275 125.72H97.2903L98.3185 120.953H93.1467L92.1186 125.72H87.1337L88.1618 120.953H83.5508V116.155H89.19L90.0623 112.074H85.5448V107.276H91.0593L92.0562 102.665H97.0411L96.0441 107.276H101.216L102.213 102.665H107.198L106.201 107.276H110.064V112.074H105.204ZM100.219 112.074H95.0472L94.1748 116.155H99.3466L100.219 112.074Z" fill="white"/>
</svg>
