<svg width="39" height="39" viewBox="0 0 39 39" fill="none" xmlns="http://www.w3.org/2000/svg">
<path d="M11.493 15.9461L8.1488 19.2904C6.77732 20.6619 6.00684 22.522 6.00684 24.4615C6.00684 26.4011 6.77732 28.2612 8.1488 29.6327C9.52027 31.0042 11.3804 31.7747 13.32 31.7747C15.2595 31.7747 17.1196 31.0042 18.4911 29.6327L22.9469 25.1745C23.7739 24.3474 24.3904 23.3339 24.7447 22.2191C25.099 21.1044 25.1808 19.921 24.9831 18.7681C24.7853 17.6153 24.314 16.5267 23.6085 15.5937C22.903 14.6607 21.984 13.9106 20.9286 13.4062L19.5002 14.8346C19.3552 14.9799 19.2291 15.1428 19.1249 15.3197C19.9403 15.5541 20.6804 15.9973 21.272 16.6054C21.8637 17.2135 22.2864 17.9655 22.4984 18.787C22.7103 19.6085 22.7042 20.4711 22.4806 21.2896C22.2571 22.108 21.8238 22.854 21.2235 23.4536L16.7702 27.9094C15.8555 28.8241 14.6148 29.338 13.3212 29.338C12.0275 29.338 10.7869 28.8241 9.87211 27.9094C8.95736 26.9946 8.44346 25.754 8.44346 24.4603C8.44346 23.1667 8.95736 21.926 9.87211 21.0112L11.805 19.0807C11.5316 18.0589 11.4262 17.0018 11.493 15.9461Z" fill="white"/>
<path d="M16.0535 11.3882C15.2265 12.2154 14.61 13.2289 14.2556 14.3436C13.9013 15.4583 13.8196 16.6418 14.0173 17.7946C14.215 18.9475 14.6864 20.0361 15.3919 20.9691C16.0974 21.902 17.0164 22.6522 18.0718 23.1565L19.9608 21.265C19.1344 21.0433 18.3809 20.608 17.7759 20.0029C17.171 19.3977 16.7361 18.644 16.5147 17.8174C16.2934 16.9909 16.2935 16.1207 16.5151 15.2942C16.7366 14.4677 17.1718 13.7141 17.7768 13.1091L22.2301 8.65337C23.1449 7.73862 24.3856 7.22472 25.6792 7.22472C26.9729 7.22472 28.2135 7.73862 29.1283 8.65337C30.043 9.56811 30.5569 10.8088 30.5569 12.1024C30.5569 13.3961 30.043 14.6367 29.1283 15.5515L27.1953 17.482C27.4683 18.5057 27.5731 19.5661 27.5073 20.6191L30.8516 17.2748C32.2231 15.9033 32.9935 14.0432 32.9935 12.1036C32.9935 10.1641 32.2231 8.30397 30.8516 6.93249C29.4801 5.56101 27.62 4.79053 25.6804 4.79053C23.7409 4.79053 21.8807 5.56101 20.5093 6.93249L16.0535 11.3882Z" fill="white"/>
</svg>
