<svg width="139" height="160" viewBox="0 0 139 160" fill="none" xmlns="http://www.w3.org/2000/svg">
<path d="M56.0183 6.96743L11.9109 33.7189C5.07949 37.8623 0.907471 45.272 0.907471 53.2617V106.897C0.907471 114.904 5.09778 122.328 11.9533 126.465L55.6488 152.838C62.9368 157.236 72.0656 157.221 79.3382 152.796L127.462 123.521C134.279 119.374 138.439 111.973 138.439 103.994V53.6795C138.439 45.4652 134.031 37.8825 126.893 33.8178L79.1813 6.64843C71.9743 2.54441 63.1096 2.66649 56.0183 6.96743Z" fill="#A5A6F6"/>
<path d="M35.0636 48.5376L40.7946 112.467L67.7599 120.233L94.8835 112.471L100.446 48.5376H35.0636ZM83.3747 101.314L67.7815 105.629H67.7492L52.1416 101.314L51.063 89.9599H58.7212L59.2641 95.4285L67.7492 97.7187L76.245 95.4249L77.1367 84.4914H50.7322L50.0491 77.3006H77.7982L78.4346 70.1099H49.3157L48.6793 62.9191H86.8406L83.3747 101.314Z" fill="white"/>
</svg>
