<svg width="112" height="107" viewBox="0 0 112 107" fill="none" xmlns="http://www.w3.org/2000/svg">
<path d="M56.2421 0.425212C41.6346 0.276775 27.5657 5.9342 17.1275 16.1541C6.68931 26.3741 0.735903 40.3203 0.575684 54.9277C0.631969 66.4718 4.34553 77.701 11.183 87.0025C18.0204 96.304 27.63 103.199 38.6313 106.698C41.4146 107.204 42.4267 105.534 42.4267 104.066C42.4267 102.598 42.4267 99.3597 42.4267 94.8051C26.9413 98.0945 23.652 87.5179 23.652 87.5179C22.6211 84.1976 20.4295 81.3594 17.478 79.5222C12.4175 76.1822 17.8829 76.2328 17.8829 76.2328C19.6321 76.4666 21.3056 77.0935 22.778 78.0663C24.2504 79.0392 25.4835 80.3327 26.3847 81.85C27.9551 84.5733 30.532 86.571 33.5606 87.4134C36.5893 88.2557 39.8276 87.8753 42.5785 86.354C42.8615 83.5827 44.1164 81.0011 46.121 79.0667C33.7731 77.7004 20.818 73.0446 20.818 52.1444C20.7076 46.6925 22.722 41.4115 26.4353 37.4181C24.7442 32.7374 24.9439 27.5819 26.9919 23.046C26.9919 23.046 31.6983 21.5785 42.1737 28.6127C51.2923 26.1828 60.8883 26.1828 70.0069 28.6127C80.6342 21.5785 85.1887 23.046 85.1887 23.046C87.2368 27.5819 87.4365 32.7374 85.7453 37.4181C89.5448 41.3383 91.6685 46.5839 91.6662 52.0432C91.6662 72.994 78.6099 77.5991 66.3633 78.9655C67.7043 80.2674 68.7401 81.8503 69.3964 83.6003C70.0526 85.3503 70.313 87.224 70.1587 89.0867V104.015C70.1587 104.015 71.1709 107.204 73.9542 106.647C84.9243 103.127 94.5015 96.23 101.318 86.9417C108.134 77.6534 111.841 66.4486 111.909 54.9277C111.748 40.3203 105.795 26.3741 95.3568 16.1541C84.9186 5.9342 70.8497 0.276775 56.2421 0.425212Z" fill="#231F20"/>
</svg>
