<svg width="138" height="160" viewBox="0 0 138 160" fill="none" xmlns="http://www.w3.org/2000/svg">
<path d="M55.3594 6.97329L11.252 33.7248C4.42056 37.8681 0.248535 45.2779 0.248535 53.2676V106.903C0.248535 114.91 4.43885 122.334 11.2943 126.471L54.9898 152.844C62.2779 157.242 71.4066 157.226 78.6793 152.802L126.803 123.527C133.62 119.38 137.781 111.979 137.781 104V53.6854C137.781 45.471 133.373 37.8884 126.234 33.8236L78.5224 6.65429C71.3154 2.55027 62.4507 2.67235 55.3594 6.97329Z" fill="#DCDCD3"/>
<path d="M66.763 46.7474C57.8 46.6563 49.1676 50.1276 42.7629 56.3984C36.3582 62.6692 32.7052 71.2263 32.6069 80.1892C32.6415 87.2725 34.9201 94.1626 39.1154 99.8698C43.3108 105.577 49.207 109.808 55.9573 111.954C57.6651 112.265 58.2861 111.24 58.2861 110.34C58.2861 109.439 58.2861 107.452 58.2861 104.657C48.7845 106.676 46.7662 100.186 46.7662 100.186C46.1337 98.1488 44.789 96.4073 42.978 95.28C39.8729 93.2307 43.2264 93.2617 43.2264 93.2617C44.2996 93.4052 45.3265 93.7898 46.23 94.3867C47.1334 94.9836 47.89 95.7774 48.4429 96.7084C49.4065 98.3793 50.9877 99.6051 52.846 100.122C54.7043 100.639 56.6913 100.405 58.3792 99.4719C58.5528 97.7715 59.3229 96.1875 60.5528 95.0006C52.9764 94.1622 45.0273 91.3055 45.0273 78.4814C44.9596 75.1363 46.1956 71.8959 48.474 69.4456C47.4363 66.5736 47.5589 63.4103 48.8155 60.6271C48.8155 60.6271 51.7033 59.7267 58.1308 64.0427C63.7259 62.5518 69.6138 62.5518 75.2089 64.0427C81.7296 59.7267 84.5242 60.6271 84.5242 60.6271C85.7808 63.4103 85.9034 66.5736 84.8657 69.4456C87.197 71.851 88.5001 75.0696 88.4987 78.4193C88.4987 91.2744 80.4875 94.1001 72.9732 94.9385C73.796 95.7373 74.4316 96.7085 74.8342 97.7823C75.2369 98.8561 75.3967 100.006 75.302 101.149V110.309C75.302 110.309 75.923 112.265 77.6308 111.923C84.3619 109.763 90.2383 105.532 94.4207 99.8325C98.6031 94.1334 100.877 87.2583 100.919 80.1892C100.821 71.2263 97.1678 62.6692 90.7631 56.3984C84.3584 50.1276 75.726 46.6563 66.763 46.7474Z" fill="#231F20"/>
</svg>
