<svg width="136" height="135" viewBox="0 0 136 135" fill="none" xmlns="http://www.w3.org/2000/svg">
<path fill-rule="evenodd" clip-rule="evenodd" d="M68.0463 12.4785C37.0805 12.4785 12.0476 37.6959 12.0476 68.8933C12.0476 93.831 28.087 114.94 50.3379 122.411C53.1199 122.973 54.1389 121.198 54.1389 119.704C54.1389 118.396 54.0472 113.913 54.0472 109.242C38.4697 112.605 35.2258 102.517 35.2258 102.517C32.7224 95.9791 29.0132 94.2987 29.0132 94.2987C23.9147 90.8427 29.3846 90.8427 29.3846 90.8427C35.0401 91.2164 38.0078 96.6336 38.0078 96.6336C43.0134 105.226 51.0796 102.798 54.3246 101.303C54.7877 97.6606 56.2721 95.1389 57.8481 93.7381C45.424 92.4303 32.3522 87.5736 32.3522 65.9039C32.3522 59.7394 34.5759 54.6959 38.0995 50.7734C37.5435 49.3727 35.5961 43.5807 38.6566 35.8287C38.6566 35.8287 43.3848 34.334 54.046 41.6195C58.6105 40.3846 63.3177 39.7564 68.0463 39.7511C72.7746 39.7511 77.5945 40.4056 82.0454 41.6195C92.7078 34.334 97.436 35.8287 97.436 35.8287C100.497 43.5807 98.5479 49.3727 97.992 50.7734C101.608 54.6959 103.74 59.7394 103.74 65.9039C103.74 87.5736 90.6686 92.3363 78.1516 93.7381C80.1919 95.5125 81.9525 98.8745 81.9525 104.199C81.9525 111.764 81.8608 117.836 81.8608 119.703C81.8608 121.198 82.881 122.973 85.6618 122.413C107.913 114.939 123.952 93.831 123.952 68.8933C124.044 37.6959 98.9193 12.4785 68.0463 12.4785Z" fill="black"/>
</svg>
