<svg width="42" height="41" viewBox="0 0 42 41" fill="none" xmlns="http://www.w3.org/2000/svg">
<path d="M0.304688 20.4843C0.304688 9.17113 9.47581 0 20.789 0C32.1021 0 41.2732 9.17112 41.2732 20.4843C41.2732 31.7974 32.1021 40.9685 20.789 40.9685H0.304688V20.4843Z" fill="#FF5C5C"/>
<path fill-rule="evenodd" clip-rule="evenodd" d="M13.2962 23.1722C11.908 22.1316 11.0098 20.473 11.0098 18.6046C11.0098 15.4541 13.5638 12.9 16.7144 12.9C18.1222 12.9 19.4109 13.41 20.4058 14.2553C21.4008 13.41 22.6895 12.9 24.0973 12.9C27.2479 12.9 29.8019 15.4541 29.8019 18.6046C29.8019 20.4714 28.9052 22.1287 27.5191 23.1694L20.4062 30.0138L13.2962 23.1722Z" fill="white"/>
</svg>
