<svg width="139" height="160" viewBox="0 0 139 160" fill="none" xmlns="http://www.w3.org/2000/svg">
<path d="M55.5964 6.96743L11.489 33.7189C4.65762 37.8623 0.485596 45.272 0.485596 53.2617V106.897C0.485596 114.904 4.67591 122.328 11.5314 126.465L55.2269 152.838C62.515 157.236 71.6437 157.221 78.9163 152.796L127.04 123.521C133.857 119.374 138.018 111.973 138.018 103.994V53.6795C138.018 45.4652 133.61 37.8825 126.471 33.8178L78.7595 6.64843C71.5524 2.54441 62.6877 2.66649 55.5964 6.96743Z" fill="#DCDCD3"/>
<path d="M29.2485 41.3467L36.1258 117.639L68.4841 126.954L101.032 117.643L107.711 41.3467H29.2485ZM90.4879 67.2334H55.7306L56.4813 75.8623H90.0305L87.3038 103.962L68.7948 109.877L50.1305 103.647L48.8793 91.0966H57.698L58.4013 97.1368L68.8595 100.627L79.0848 97.3612L80.3791 84.4955H48.4996L46.049 58.6045H91.4327L90.4879 67.2334Z" fill="black"/>
</svg>
