<svg width="29" height="29" viewBox="0 0 29 29" fill="none" xmlns="http://www.w3.org/2000/svg">
<g clip-path="url(#clip0_3337_973)">
<path d="M9.0625 14.5C10.0239 14.5 10.9459 14.1181 11.6258 13.4383C12.3056 12.7584 12.6875 11.8364 12.6875 10.875C12.6875 9.91359 12.3056 8.99156 11.6258 8.31174C10.9459 7.63192 10.0239 7.25 9.0625 7.25C8.10109 7.25 7.17906 7.63192 6.49924 8.31174C5.81942 8.99156 5.4375 9.91359 5.4375 10.875C5.4375 11.8364 5.81942 12.7584 6.49924 13.4383C7.17906 14.1181 8.10109 14.5 9.0625 14.5ZM16.3125 9.96875C16.3125 9.7284 16.408 9.49789 16.5779 9.32793C16.7479 9.15798 16.9784 9.0625 17.2188 9.0625H24.4688C24.7091 9.0625 24.9396 9.15798 25.1096 9.32793C25.2795 9.49789 25.375 9.7284 25.375 9.96875C25.375 10.2091 25.2795 10.4396 25.1096 10.6096C24.9396 10.7795 24.7091 10.875 24.4688 10.875H17.2188C16.9784 10.875 16.7479 10.7795 16.5779 10.6096C16.408 10.4396 16.3125 10.2091 16.3125 9.96875ZM16.3125 14.5C16.3125 14.2596 16.408 14.0291 16.5779 13.8592C16.7479 13.6892 16.9784 13.5938 17.2188 13.5938H24.4688C24.7091 13.5938 24.9396 13.6892 25.1096 13.8592C25.2795 14.0291 25.375 14.2596 25.375 14.5C25.375 14.7404 25.2795 14.9709 25.1096 15.1408C24.9396 15.3108 24.7091 15.4062 24.4688 15.4062H17.2188C16.9784 15.4062 16.7479 15.3108 16.5779 15.1408C16.408 14.9709 16.3125 14.7404 16.3125 14.5ZM18.125 19.0312C18.125 18.7909 18.2205 18.5604 18.3904 18.3904C18.5604 18.2205 18.7909 18.125 19.0312 18.125H24.4688C24.7091 18.125 24.9396 18.2205 25.1096 18.3904C25.2795 18.5604 25.375 18.7909 25.375 19.0312C25.375 19.2716 25.2795 19.5021 25.1096 19.6721C24.9396 19.842 24.7091 19.9375 24.4688 19.9375H19.0312C18.7909 19.9375 18.5604 19.842 18.3904 19.6721C18.2205 19.5021 18.125 19.2716 18.125 19.0312Z" fill="#4A4A4A"/>
<path d="M3.625 3.625C2.66359 3.625 1.74156 4.00692 1.06174 4.68674C0.381919 5.36656 0 6.28859 0 7.25L0 21.75C0 22.7114 0.381919 23.6334 1.06174 24.3133C1.74156 24.9931 2.66359 25.375 3.625 25.375H25.375C26.3364 25.375 27.2584 24.9931 27.9383 24.3133C28.6181 23.6334 29 22.7114 29 21.75V7.25C29 6.28859 28.6181 5.36656 27.9383 4.68674C27.2584 4.00692 26.3364 3.625 25.375 3.625H3.625ZM1.8125 7.25C1.8125 6.76929 2.00346 6.30828 2.34337 5.96837C2.68328 5.62846 3.14429 5.4375 3.625 5.4375H25.375C25.8557 5.4375 26.3167 5.62846 26.6566 5.96837C26.9965 6.30828 27.1875 6.76929 27.1875 7.25V21.75C27.1875 22.2307 26.9965 22.6917 26.6566 23.0316C26.3167 23.3715 25.8557 23.5625 25.375 23.5625H16.24C16.2883 23.2665 16.3125 22.9644 16.3125 22.6562C16.3125 19.1527 13.0681 16.3125 9.0625 16.3125C5.28163 16.3125 2.175 18.8464 1.8415 22.0781C1.8219 21.9698 1.81219 21.86 1.8125 21.75V7.25Z" fill="#4A4A4A"/>
</g>
<defs>
<clipPath id="clip0_3337_973">
<rect width="29" height="29" fill="white"/>
</clipPath>
</defs>
</svg>
