<svg width="25" height="25" viewBox="0 0 31 31" fill="none" xmlns="http://www.w3.org/2000/svg">
<g clip-path="url(#clip0_3460_45)">
<path d="M10.3424 3.08063C8.497 3.58887 6.66423 4.14186 4.8457 4.73913C4.67952 4.79272 4.53178 4.89201 4.41939 5.02564C4.30701 5.15927 4.23451 5.32184 4.2102 5.49475C3.13682 13.5489 5.61682 19.4254 8.57539 23.2965C9.82746 24.9524 11.3211 26.4108 13.0064 27.6229C13.6768 28.0957 14.2697 28.4367 14.7366 28.6556C14.9691 28.7654 15.1584 28.8416 15.3043 28.8843C15.3687 28.9038 15.434 28.9199 15.5 28.9327C15.5654 28.9199 15.6301 28.9037 15.6938 28.8843C15.841 28.8403 16.0309 28.7641 16.2634 28.6556C16.7284 28.4367 17.3232 28.0938 17.9936 27.6229C19.6789 26.4108 21.1726 24.9524 22.4246 23.2965C25.3832 19.4273 27.8632 13.5489 26.7898 5.49475C26.7655 5.32184 26.693 5.15927 26.5806 5.02564C26.4682 4.89201 26.3205 4.79272 26.1543 4.73913C24.893 4.32644 22.7637 3.65412 20.6576 3.08256C18.507 2.49937 16.5288 2.06731 15.5 2.06731C14.4731 2.06731 12.493 2.49744 10.3424 3.08063ZM9.82701 1.085C11.9292 0.513438 14.1631 0 15.5 0C16.8369 0 19.0708 0.513438 21.173 1.085C23.3236 1.66625 25.4917 2.35406 26.7666 2.77062C27.2996 2.94665 27.7722 3.26946 28.13 3.70198C28.4878 4.1345 28.7163 4.65918 28.7893 5.21575C29.9441 13.8899 27.2645 20.3186 24.0134 24.5714C22.6342 26.3902 20.9904 27.9922 19.1367 29.3241C18.4964 29.786 17.817 30.1912 17.1062 30.535C16.5637 30.7908 15.9805 31 15.5 31C15.0195 31 14.4383 30.7908 13.8938 30.535C13.183 30.1912 12.5036 29.786 11.8633 29.3241C10.0096 27.9922 8.36583 26.3902 6.98664 24.5714C3.73551 20.3186 1.05595 13.8899 2.2107 5.21575C2.28372 4.65918 2.51226 4.1345 2.87006 3.70198C3.22787 3.26946 3.70042 2.94665 4.23345 2.77062C6.08425 2.16421 7.94931 1.60217 9.82701 1.085Z" fill="white"/>
<path d="M18.4063 12.5938C18.4066 13.195 18.2204 13.7816 17.8734 14.2726C17.5264 14.7636 17.0356 15.1349 16.4688 15.3353L17.2147 19.1909C17.2418 19.3312 17.2376 19.4757 17.2024 19.6141C17.1671 19.7525 17.1017 19.8814 17.0108 19.9916C16.9199 20.1018 16.8057 20.1905 16.6765 20.2513C16.5473 20.3122 16.4062 20.3438 16.2634 20.3438H14.7366C14.594 20.3435 14.4531 20.3117 14.3241 20.2507C14.1952 20.1897 14.0812 20.101 13.9905 19.9908C13.8998 19.8807 13.8346 19.7519 13.7995 19.6136C13.7643 19.4753 13.7601 19.331 13.7873 19.1909L14.5313 15.3353C14.029 15.1577 13.5852 14.8455 13.2483 14.4328C12.9115 14.02 12.6946 13.5226 12.6214 12.9949C12.5481 12.4672 12.6213 11.9296 12.8329 11.4407C13.0446 10.9518 13.3866 10.5305 13.8215 10.2228C14.2564 9.91508 14.7675 9.73285 15.2989 9.69599C15.8304 9.65913 16.3618 9.76907 16.835 10.0138C17.3082 10.2585 17.705 10.6286 17.9822 11.0836C18.2593 11.5386 18.406 12.061 18.4063 12.5938Z" fill="white"/>
</g>
<defs>
<clipPath id="clip0_3460_45">
<rect width="31" height="31" fill="white"/>
</clipPath>
</defs>
</svg>
