<svg width="136" height="135" viewBox="0 0 136 135" fill="none" xmlns="http://www.w3.org/2000/svg">
<path fill-rule="evenodd" clip-rule="evenodd" d="M68 17.1421C54.323 17.1421 52.6108 17.1992 47.2394 17.4442C41.878 17.6893 38.2154 18.542 35.0127 19.7875C31.6555 21.0498 28.6106 23.0305 26.0928 25.5954C23.532 28.1103 21.5501 31.1531 20.2849 34.5119C19.0461 37.7147 18.19 41.3807 17.945 46.742C17.7033 52.1101 17.6428 53.8189 17.6428 67.4992C17.6428 81.1796 17.6999 82.8884 17.945 88.2598C18.19 93.6212 19.0428 97.2838 20.2883 100.487C21.5505 103.844 23.5313 106.889 26.0961 109.406C28.6111 111.967 31.6539 113.949 35.0127 115.214C38.2154 116.456 41.878 117.309 47.2394 117.554C52.6108 117.799 54.323 117.856 68 117.856C81.677 117.856 83.3891 117.799 88.7605 117.554C94.1219 117.309 97.7845 116.456 100.987 115.211C104.344 113.949 107.389 111.968 109.907 109.403C112.468 106.888 114.45 103.845 115.715 100.487C116.957 97.2838 117.81 93.6212 118.055 88.2598C118.3 82.8884 118.357 81.1762 118.357 67.4992C118.357 53.8222 118.3 52.1101 118.055 46.7387C117.81 41.3773 116.957 37.7147 115.712 34.5119C114.447 31.1517 112.465 28.1076 109.904 25.592C107.389 23.0313 104.346 21.0493 100.987 19.7842C97.7845 18.5454 94.1185 17.6893 88.7572 17.4442C83.3891 17.2025 81.6803 17.1421 68 17.1421ZM68 26.2164C81.4453 26.2164 83.04 26.2668 88.351 26.5085C93.2591 26.7334 95.9247 27.5492 97.7006 28.2442C100.051 29.1539 101.729 30.2484 103.492 32.0075C105.254 33.77 106.345 35.4486 107.255 37.7986C107.947 39.5745 108.766 42.2401 108.991 47.1482C109.232 52.4592 109.283 54.0539 109.283 67.4992C109.283 80.9446 109.232 82.5392 108.991 87.8502C108.766 92.7584 107.95 95.4239 107.255 97.1999C106.449 99.3872 105.163 101.366 103.492 102.991C101.867 104.663 99.8881 105.949 97.7006 106.754C95.9247 107.446 93.2591 108.265 88.351 108.49C83.04 108.732 81.4487 108.782 68 108.782C54.5513 108.782 52.96 108.732 47.649 108.49C42.7408 108.265 40.0753 107.449 38.2993 106.754C36.112 105.948 34.1331 104.662 32.5083 102.991C30.837 101.366 29.551 99.3871 28.7449 97.1999C28.0533 95.4239 27.2342 92.7584 27.0093 87.8502C26.7675 82.5392 26.7172 80.9446 26.7172 67.4992C26.7172 54.0539 26.7675 52.4592 27.0093 47.1482C27.2342 42.2401 28.05 39.5745 28.7449 37.7986C29.6547 35.4486 30.7491 33.77 32.5083 32.0075C34.1329 30.3358 36.1118 29.0498 38.2993 28.2442C40.0753 27.5526 42.7408 26.7334 47.649 26.5085C52.96 26.2668 54.5546 26.2164 68 26.2164V26.2164Z" fill="black"/>
<path fill-rule="evenodd" clip-rule="evenodd" d="M68 84.3023C65.7935 84.3023 63.6086 83.8677 61.57 83.0233C59.5314 82.1789 57.6791 80.9412 56.1189 79.381C54.5586 77.8207 53.3209 75.9684 52.4765 73.9298C51.6321 71.8913 51.1975 69.7063 51.1975 67.4998C51.1975 65.2933 51.6321 63.1083 52.4765 61.0698C53.3209 59.0312 54.5586 57.1789 56.1189 55.6186C57.6791 54.0584 59.5314 52.8207 61.57 51.9763C63.6086 51.1319 65.7935 50.6973 68 50.6973C72.4563 50.6973 76.7301 52.4676 79.8812 55.6186C83.0323 58.7697 84.8025 63.0435 84.8025 67.4998C84.8025 71.9561 83.0323 76.2299 79.8812 79.381C76.7301 82.532 72.4563 84.3023 68 84.3023V84.3023ZM68 41.6162C61.1353 41.6162 54.5517 44.3432 49.6976 49.1973C44.8435 54.0515 42.1165 60.635 42.1165 67.4998C42.1165 74.3645 44.8435 80.9481 49.6976 85.8022C54.5517 90.6564 61.1353 93.3834 68 93.3834C74.8648 93.3834 81.4484 90.6564 86.3025 85.8022C91.1566 80.9481 93.8836 74.3645 93.8836 67.4998C93.8836 60.635 91.1566 54.0515 86.3025 49.1973C81.4484 44.3432 74.8648 41.6162 68 41.6162V41.6162ZM101.414 41.1462C101.414 42.7689 100.769 44.3252 99.6216 45.4726C98.4742 46.62 96.918 47.2646 95.2953 47.2646C93.6726 47.2646 92.1163 46.62 90.9689 45.4726C89.8215 44.3252 89.1769 42.7689 89.1769 41.1462C89.1769 39.5235 89.8215 37.9673 90.9689 36.8199C92.1163 35.6724 93.6726 35.0278 95.2953 35.0278C96.918 35.0278 98.4742 35.6724 99.6216 36.8199C100.769 37.9673 101.414 39.5235 101.414 41.1462" fill="black"/>
</svg>
