<svg width="81" height="109" viewBox="0 0 81 109" fill="none" xmlns="http://www.w3.org/2000/svg">
<path d="M26.2492 83.8591C26.2492 83.8591 22.1289 86.2568 29.1854 87.0658C37.7355 88.0425 42.1047 87.9025 51.5243 86.1219C51.5243 86.1219 54.0059 87.6734 57.465 89.0184C36.3413 98.068 9.65989 88.4937 26.2492 83.8591ZM23.6666 72.0479C23.6666 72.0479 19.0441 75.4698 26.1066 76.201C35.2401 77.144 42.4513 77.2209 54.9359 74.8181C54.9359 74.8181 56.6585 76.5684 59.3717 77.5243C33.8373 84.9923 5.39695 78.1121 23.6666 72.0479Z" fill="#0074BD"/>
<path d="M45.4251 52.0093C50.6328 58.0035 44.0594 63.3927 44.0594 63.3927C44.0594 63.3927 57.2744 56.5721 51.2067 48.0272C45.5375 40.0623 41.1916 36.1062 64.7207 22.46C64.7207 22.4608 27.7865 31.6825 45.4251 52.0093Z" fill="#EA2D2E"/>
<path d="M73.3617 92.5975C73.3617 92.5975 76.4119 95.1127 70.0011 97.0566C57.8121 100.749 19.259 101.862 8.5515 97.2044C4.70431 95.5293 11.9216 93.2068 14.1922 92.7168C16.5596 92.2042 17.9115 92.2976 17.9115 92.2976C13.6304 89.2836 -9.75874 98.2183 6.03281 100.781C49.0952 107.762 84.5298 97.6375 73.3617 92.5975ZM28.2335 59.8086C28.2335 59.8086 8.62497 64.4666 21.2902 66.1598C26.6387 66.8755 37.2961 66.7113 47.23 65.8781C55.3462 65.1961 63.4909 63.7397 63.4909 63.7397C63.4909 63.7397 60.6316 64.9662 58.5607 66.3785C38.6445 71.6173 0.179476 69.1772 11.2543 63.8218C20.6169 59.2935 28.2335 59.8086 28.2335 59.8086ZM63.4096 79.4698C83.6534 68.9534 74.2926 58.8466 67.759 60.208C66.1617 60.5407 65.4451 60.8303 65.4451 60.8303C65.4451 60.8303 66.0398 59.8977 67.1738 59.4966C80.0984 54.9545 90.0366 72.8965 63.0051 80.0031C63.0051 80.0014 63.3154 79.7205 63.4096 79.4698Z" fill="#0074BD"/>
<path d="M51.2071 0.422363C51.2071 0.422363 62.4159 11.6381 40.5731 28.8791C23.0563 42.7138 36.579 50.6001 40.567 59.6143C30.341 50.3892 22.8402 42.2669 27.8716 34.7083C35.26 23.6153 55.7285 18.2347 51.2071 0.422363Z" fill="#EA2D2E"/>
<path d="M30.2228 107.976C49.6498 109.218 79.4903 107.285 80.1965 98.0918C80.1965 98.0918 78.8386 101.577 64.1396 104.342C47.5563 107.464 27.0991 107.1 14.9697 105.097C14.9697 105.098 17.4547 107.155 30.2228 107.976Z" fill="#0074BD"/>
</svg>
