<svg width="139" height="160" viewBox="0 0 139 160" fill="none" xmlns="http://www.w3.org/2000/svg">
<path d="M55.8854 6.97329L11.778 33.7248C4.94656 37.8681 0.774536 45.2779 0.774536 53.2676V106.903C0.774536 114.91 4.96485 122.334 11.8203 126.471L55.5158 152.844C62.8039 157.242 71.9326 157.226 79.2053 152.802L127.329 123.527C134.146 119.38 138.307 111.979 138.307 104V53.6854C138.307 45.471 133.899 37.8884 126.76 33.8236L79.0484 6.65429C71.8414 2.55027 62.9767 2.67235 55.8854 6.97329Z" fill="#DCDCD3"/>
<path d="M59.6424 96.1437C59.6424 96.1437 57.1143 97.6149 61.444 98.1113C66.6902 98.7106 69.3711 98.6246 75.1508 97.5321C75.1508 97.5321 76.6735 98.4841 78.7959 99.3093C65.8348 104.862 49.4635 98.9874 59.6424 96.1437ZM58.0577 88.8965C58.0577 88.8965 55.2214 90.9961 59.5549 91.4448C65.1591 92.0234 69.5838 92.0706 77.2441 90.5962C77.2441 90.5962 78.3011 91.6702 79.9659 92.2568C64.2983 96.839 46.8478 92.6174 58.0577 88.8965Z" fill="#0074BD"/>
<path d="M71.4083 76.6012C74.6036 80.2792 70.5703 83.5859 70.5703 83.5859C70.5703 83.5859 78.6788 79.4009 74.9558 74.1579C71.4772 69.2707 68.8107 66.8433 83.2478 58.4702C83.2478 58.4707 60.5855 64.129 71.4083 76.6012Z" fill="#EA2D2E"/>
<path d="M88.5498 101.505C88.5498 101.505 90.4214 103.049 86.4878 104.241C79.0088 106.507 55.3532 107.19 48.7832 104.332C46.4227 103.304 50.8511 101.879 52.2443 101.579C53.6969 101.264 54.5264 101.321 54.5264 101.321C51.8996 99.472 37.5484 104.954 47.2378 106.527C73.6603 110.81 95.4024 104.598 88.5498 101.505ZM60.8598 81.3866C60.8598 81.3866 48.8283 84.2446 56.5995 85.2836C59.8813 85.7227 66.4205 85.622 72.5158 85.1107C77.4957 84.6923 82.4932 83.7986 82.4932 83.7986C82.4932 83.7986 80.7388 84.5512 79.4681 85.4178C67.2478 88.6322 43.6463 87.135 50.4416 83.849C56.1864 81.0705 60.8598 81.3866 60.8598 81.3866ZM82.4433 93.4504C94.8646 86.9977 89.1209 80.7963 85.112 81.6316C84.132 81.8358 83.6923 82.0135 83.6923 82.0135C83.6923 82.0135 84.0572 81.4412 84.753 81.1951C92.6833 78.4082 98.7812 89.4171 82.1951 93.7776C82.1951 93.7766 82.3855 93.6042 82.4433 93.4504Z" fill="#0074BD"/>
<path d="M74.9562 44.9478C74.9562 44.9478 81.8338 51.8295 68.4314 62.4084C57.6833 70.8971 65.9806 75.736 68.4277 81.267C62.1531 75.6066 57.5508 70.6229 60.6379 65.985C65.1713 59.1786 77.7305 55.8772 74.9562 44.9478Z" fill="#EA2D2E"/>
<path d="M62.0805 110.942C74.0006 111.704 92.3103 110.517 92.7436 104.876C92.7436 104.876 91.9104 107.015 82.8913 108.711C72.7161 110.627 60.1638 110.404 52.7214 109.175C52.7214 109.175 54.2462 110.438 62.0805 110.942Z" fill="#0074BD"/>
</svg>
