<svg width="139" height="160" viewBox="0 0 139 160" fill="none" xmlns="http://www.w3.org/2000/svg">
<path d="M55.8912 6.97329L11.7838 33.7248C4.95242 37.8681 0.780396 45.2779 0.780396 53.2676V106.903C0.780396 114.91 4.97071 122.334 11.8262 126.471L55.5217 152.844C62.8098 157.242 71.9385 157.226 79.2111 152.802L127.335 123.527C134.152 119.38 138.312 111.979 138.312 104V53.6854C138.312 45.471 133.904 37.8884 126.766 33.8236L79.0543 6.65429C71.8472 2.55027 62.9825 2.67235 55.8912 6.97329Z" fill="#A5A6F6"/>
<path d="M53.3679 61.2532L53.5964 66.5077L49.9411 73.3614L44.2297 84.5558L43.0874 93.9225L47.1996 107.173L56.5663 112.427H70.7306L83.9811 102.375L89.9209 86.6119L76.2135 69.9346L72.3298 60.5679L53.3679 61.2532Z" fill="#ECEFF1"/>
<path d="M85.8084 74.2761C82.1531 69.0216 79.1832 65.8232 77.584 59.198C75.9848 52.5727 78.0409 54.4004 76.6701 48.689C75.9848 45.719 74.8425 43.6629 73.7002 42.0637C72.3295 40.4646 70.7303 39.5507 69.8165 39.3223C67.7604 38.18 62.9628 36.3523 57.0229 39.5507C50.8546 42.7491 51.54 49.6028 52.6823 63.5386C52.6823 64.4525 52.4538 65.5947 51.9969 66.5086C51.0831 68.5647 49.4839 70.3923 48.1131 71.9915C46.5139 74.2761 44.9147 76.5606 43.7725 79.0736C41.031 84.3281 38.518 90.9534 39.2033 93.4664C40.3456 93.2379 54.7384 115.17 54.7384 115.627C55.6522 115.398 59.5359 115.398 62.9628 115.398C67.7604 115.17 70.5018 114.941 74.3856 115.855C74.3856 115.17 74.1571 114.484 74.1571 113.799C74.1571 112.428 74.3856 111.286 74.614 109.687C74.8425 108.544 75.071 107.402 75.2994 106.031C73.0149 108.088 68.9026 110.372 65.0189 111.058C61.592 111.743 55.8806 110.601 53.1392 107.174C53.3676 107.174 53.8245 107.174 54.053 106.945C54.7384 106.717 55.4237 106.488 55.6522 106.031C56.3376 104.889 55.8806 103.747 55.4237 103.062C54.9668 102.376 51.54 99.8632 49.9408 98.4924C48.3416 97.1217 47.4278 96.4363 46.5139 95.5225C46.5139 95.5225 45.1432 94.1518 44.6863 93.6948C44.2294 93.2379 44.0009 92.781 43.7725 92.5526C43.3155 91.4103 43.0871 90.0395 43.3155 88.2119C43.544 85.6989 44.4578 83.6428 45.6001 81.3582C46.057 80.4444 47.1993 78.6167 47.1993 78.6167C47.1993 78.6167 43.3156 88.2119 45.3717 91.1818C45.3717 91.1818 45.6001 88.2119 46.5139 85.242C47.1993 83.1859 48.3416 80.2159 49.7123 78.6167C51.0831 77.0175 54.5099 71.0777 54.7384 67.4224C54.7384 65.8232 54.9668 64.224 54.9668 63.0817C54.053 62.1679 70.0449 59.8833 70.9587 62.3963C71.1872 63.3102 74.3856 71.5346 76.2132 75.8753C77.1271 77.9314 78.2693 79.759 78.9547 82.0436C79.6401 84.5566 80.097 87.9834 80.097 91.4103C80.097 92.0956 80.097 93.2379 79.8685 94.3802C80.3254 94.3802 89.2352 84.785 78.7263 76.7891C78.7263 76.7891 85.123 79.759 85.3515 85.6989C85.5799 90.4965 83.5238 94.3802 83.0669 95.0656C83.2954 95.0656 87.8645 97.1217 88.093 97.1217C89.0068 97.1217 90.8344 96.4363 90.8344 96.4363C91.0629 95.7509 91.7483 93.9233 91.7483 93.2379C93.3475 87.9834 89.4637 79.5306 85.8084 74.2761Z" fill="#263238"/>
<path d="M56.7939 59.1973C58.4342 59.1973 59.7638 57.1517 59.7638 54.6282C59.7638 52.1047 58.4342 50.0591 56.7939 50.0591C55.1537 50.0591 53.824 52.1047 53.824 54.6282C53.824 57.1517 55.1537 59.1973 56.7939 59.1973Z" fill="#ECEFF1"/>
<path d="M67.0749 59.6545C69.2199 59.6545 70.9587 57.302 70.9587 54.4C70.9587 51.498 69.2199 49.1455 67.0749 49.1455C64.93 49.1455 63.1912 51.498 63.1912 54.4C63.1912 57.302 64.93 59.6545 67.0749 59.6545Z" fill="#ECEFF1"/>
<path d="M58.4541 54.9411C58.2642 53.439 57.4 52.3111 56.5238 52.4218C55.6475 52.5326 55.0911 53.8401 55.281 55.3422C55.4708 56.8443 56.3351 57.9722 57.2113 57.8615C58.0875 57.7507 58.644 56.4432 58.4541 54.9411Z" fill="#212121"/>
<path d="M66.8465 58.2831C68.1082 58.2831 69.131 56.9534 69.131 55.3132C69.131 53.6729 68.1082 52.3433 66.8465 52.3433C65.5847 52.3433 64.5619 53.6729 64.5619 55.3132C64.5619 56.9534 65.5847 58.2831 66.8465 58.2831Z" fill="#212121"/>
<path d="M97.2314 105.574C96.3176 105.117 94.7184 104.432 93.3477 102.376C92.6623 101.234 92.8908 98.0354 91.7485 96.6646C91.0631 95.7508 90.1493 96.2077 89.9208 96.2077C87.8647 96.6646 83.0671 99.863 79.8688 96.2077C79.4118 95.7508 78.7265 95.0654 77.5842 95.0654C76.4419 95.0654 75.985 95.5223 75.5281 96.4362C75.0712 97.35 75.0712 98.0354 75.0712 100.32C75.0712 102.148 75.0712 104.204 74.8427 105.803C74.3858 109.687 73.7004 111.971 73.7004 114.256C73.7004 116.769 74.3858 118.368 75.2996 119.053C75.985 119.739 77.1273 120.196 79.6403 120.196C82.1533 120.196 83.7525 119.282 85.3517 117.683C86.494 116.54 87.4078 116.083 90.6062 113.799C93.1192 112.2 97.003 110.144 97.6883 109.458C98.1452 109.001 98.8306 108.773 98.8306 107.402C98.8306 106.26 97.9168 105.803 97.2314 105.574Z" fill="#FFC107"/>
<path d="M51.3119 106.259C49.0274 102.604 48.7989 101.919 47.1997 99.634C45.829 97.3495 42.8591 93.0088 41.0314 93.0088C39.6607 93.0088 38.9753 93.6942 38.0615 94.608C37.1476 95.5218 36.2338 97.5779 34.6346 98.7202C33.2639 99.8625 29.3801 99.634 28.4663 101.005C27.5525 102.375 29.3801 104.432 29.3801 107.858C29.3801 109.229 28.2379 110.143 28.0094 111.057C27.7809 112.199 27.5525 112.884 28.0094 113.798C28.9232 115.169 30.0655 115.626 37.833 117.225C41.9452 118.139 45.829 120.424 48.342 120.652C50.855 120.88 55.1957 120.652 55.1957 114.484C55.4241 110.828 53.368 109.915 51.3119 106.259Z" fill="#FFC107"/>
<path d="M55.6523 64.9089C54.2816 63.995 53.1393 63.0812 53.1393 61.7105C53.1393 60.3397 54.0531 59.8828 55.4238 58.7406C55.6523 58.5121 58.1653 56.2275 60.6783 56.2275C63.1914 56.2275 66.1613 57.8267 67.3036 58.2836C69.3597 58.7406 71.4158 59.1975 71.1873 60.7967C70.9589 63.0812 70.7304 63.5381 68.4458 64.6804C66.8467 65.1373 63.8767 67.6503 61.8206 67.6503C60.9068 67.6503 59.5361 67.6503 58.6222 67.4219C57.9369 67.1934 56.7946 66.0512 55.6523 64.9089Z" fill="#FFC107"/>
<path d="M55.1951 63.0816C55.652 63.5385 56.3374 63.9954 57.0227 64.2239C57.4796 64.4524 58.165 64.6808 58.165 64.6808H60.2211C61.3634 64.6808 62.9626 64.2239 64.5618 63.3101C66.161 62.6247 66.3894 62.1678 67.5317 61.7109C68.674 61.0255 69.8163 60.3402 69.3594 60.1117C68.9025 59.8832 68.4455 60.1117 66.8463 61.0255C65.4756 61.9393 64.3333 62.3963 62.9626 63.0816C62.2772 63.3101 61.3634 63.767 60.678 63.767C59.9927 63.767 59.3073 63.767 58.6219 63.767C57.9366 63.767 57.4796 63.5385 56.7943 63.3101C56.3374 63.0816 56.1089 62.8532 55.8805 62.8532C55.4235 62.6247 54.5097 61.7109 54.0528 61.4824C54.0528 61.4824 53.5959 61.4824 53.8243 61.7109C54.5097 62.3963 54.7382 62.6247 55.1951 63.0816Z" fill="#634703"/>
<path d="M62.0487 58.0558C62.2772 58.5127 62.7341 58.5127 62.9625 58.7412C63.191 58.9697 63.4194 58.9697 63.4194 58.9697C63.6479 58.7412 63.4194 58.2843 63.191 58.2843C63.191 57.8274 62.0487 57.8274 62.0487 58.0558Z" fill="#634703"/>
<path d="M58.3933 58.513C58.3933 58.7415 58.8502 58.9699 58.8502 58.7415C59.0787 58.513 59.3071 58.2845 59.5356 58.2845C59.9925 58.0561 59.7641 57.8276 59.0787 57.8276C58.6218 58.0561 58.6218 58.2845 58.3933 58.513Z" fill="#634703"/>
<path d="M80.5541 98.9485V99.6339C81.011 100.548 82.1533 100.776 83.0671 100.776C84.4378 100.776 85.8086 99.8624 86.4939 98.9485C86.4939 98.7201 86.7224 98.4916 86.9509 98.2632C87.4078 97.5778 87.6362 97.1209 87.8647 96.8924C87.8647 96.8924 87.6362 96.664 87.6362 96.4355C87.4078 95.9786 86.7224 95.5217 85.8086 95.2932C85.1232 95.0648 83.9809 94.8363 83.524 94.8363C81.4679 94.6079 80.3256 95.2932 79.6403 95.9786C79.6403 95.9786 79.8687 95.9786 79.8687 96.207C80.3256 96.664 80.5541 97.1209 80.5541 97.8062C80.7825 98.2632 80.5541 98.4916 80.5541 98.9485Z" fill="#455A64"/>
</svg>
