<svg width="65" height="144" viewBox="0 0 65 144" fill="none" xmlns="http://www.w3.org/2000/svg">
<path fill-rule="evenodd" clip-rule="evenodd" d="M60.7249 46.9785C62.6194 52.4589 63.9839 58.0539 64.4324 63.853C64.9896 71.0473 64.7346 78.1909 63.2178 85.2672C63.1765 85.462 63.0892 85.6449 63.0242 85.8338C62.5486 85.8349 62.0634 85.7759 61.5984 85.8479C57.6689 86.4653 53.743 87.105 49.8171 87.7412C45.759 88.3987 41.6951 89.0302 37.644 89.7325C36.2087 89.9804 34.4323 89.6841 33.8527 91.6695C33.8362 91.7238 33.6709 91.7332 33.5753 91.7639L33.7713 79.9001C33.704 70.358 33.6379 60.8159 33.5718 51.2739L35.4627 50.9493C38.5553 50.4429 41.6478 49.9294 44.7428 49.4372C48.4361 48.8506 52.133 48.2805 55.8287 47.708C57.4588 47.4542 59.0913 47.2217 60.7249 46.9785Z" fill="white"/>
<path fill-rule="evenodd" clip-rule="evenodd" d="M29.6708 126.349C27.676 124.634 25.6115 122.994 23.6993 121.191C13.4101 111.486 5.88409 100.063 2.17774 86.2921C1.15673 82.502 0.475658 78.6504 0.257291 74.734C0.103843 71.9932 -0.118069 69.2276 0.0755107 66.5009C0.59133 59.2488 1.6395 52.0663 3.76651 45.0809L3.88337 44.918C4.08993 45.193 4.38738 45.4361 4.49244 45.7466C6.5687 51.8609 8.62962 57.9799 10.6799 64.1024C17.1223 83.3424 23.5565 102.587 30.0096 121.822C30.1359 122.198 30.4628 122.506 30.6977 122.844L29.6708 126.349Z" fill="white"/>
<path fill-rule="evenodd" clip-rule="evenodd" d="M60.7255 46.9788C59.0919 47.2219 57.4582 47.4544 55.8282 47.7059C52.1324 48.2783 48.4355 48.8485 44.7422 49.4351C41.6473 49.9273 38.5547 50.4408 35.4621 50.9471L33.5712 51.2717L33.557 50.0383C33.4945 49.0243 33.3871 48.0116 33.3753 46.9976C33.2938 40.5316 33.2431 34.0656 33.1628 27.5995C33.1132 23.5521 33.0389 19.5058 32.9562 15.4595C32.9055 12.9453 32.8512 10.4299 32.7379 7.9193C32.6765 6.57014 32.4593 5.22807 32.3708 3.87891C32.3212 3.10341 32.3897 2.32201 32.405 1.54297C33.3694 3.41149 34.3125 5.29417 35.304 7.14852C36.8703 10.0805 39.3656 12.2406 41.6118 14.5978C50.4917 23.9132 56.7961 34.7443 60.7255 46.9788Z" fill="white"/>
<path fill-rule="evenodd" clip-rule="evenodd" d="M33.5747 91.7629C33.6703 91.7322 33.8367 91.7227 33.8521 91.6684C34.4316 89.6831 36.2081 89.9793 37.6434 89.7315C41.6944 89.0303 45.7584 88.3977 49.8165 87.7402C53.7424 87.104 57.6683 86.4642 61.5977 85.8469C62.0628 85.7737 62.5479 85.8339 63.0236 85.8327C62.2894 88.4531 61.711 91.1302 60.7797 93.6786C59.7221 96.5693 58.4426 99.3904 57.084 102.156C55.0538 106.291 52.5242 110.147 49.5851 113.68C47.32 116.404 44.7952 118.922 42.2645 121.409C40.8658 122.784 39.2168 123.904 37.6823 125.14L37.2846 124.869L35.8516 123.643L34.3691 120.394C33.348 116.589 32.8122 112.717 32.7236 108.781L32.7508 108.119L32.9526 105.256C33.0199 104.278 33.1096 103.302 33.1509 102.322C33.3032 98.8026 33.4354 95.2827 33.5747 91.7629Z" fill="white"/>
<path fill-rule="evenodd" clip-rule="evenodd" d="M33.5744 91.7626C33.4351 95.2825 33.3029 98.8023 33.153 102.323C33.1116 103.303 33.0219 104.279 32.9547 105.257L32.0517 105.598C30.0462 99.6935 28.0396 93.8519 26.0767 87.9949C22.8307 78.3053 19.6236 68.6003 16.3823 58.9084C13.7655 51.0849 11.1274 43.2697 8.47389 35.458C8.34995 35.0921 7.99348 34.8065 7.74561 34.4831L13.5247 23.8574C13.723 24.2021 13.985 24.5243 14.1101 24.895C16.7837 32.8069 19.4525 40.7201 22.0988 48.6415C25.5408 58.9461 28.9615 69.259 32.4011 79.5647C32.538 79.9767 32.7646 80.3568 32.9806 80.8183L33.7715 79.8976C33.7054 83.853 33.6393 87.8072 33.5744 91.7626Z" fill="white"/>
<path fill-rule="evenodd" clip-rule="evenodd" d="M7.74692 34.4844C7.9948 34.8078 8.35009 35.0934 8.4752 35.4594C11.1287 43.271 13.7668 51.0862 16.3836 58.9097C19.6249 68.6016 22.832 78.3066 26.078 87.9962C28.0398 93.852 30.0464 99.6948 32.053 105.599L32.956 105.258L32.7541 108.121L32.5712 108.781C32.2572 111.916 31.9928 115.058 31.6104 118.186C31.418 119.754 31.0095 121.293 30.6991 122.845C30.4654 122.507 30.1373 122.198 30.011 121.823C23.5579 102.587 17.1237 83.3432 10.6813 64.1033C8.63101 57.9807 6.57009 51.8617 4.49383 45.7474C4.38878 45.437 4.09251 45.1938 3.88477 44.9188C5.17136 41.4403 6.45914 37.9617 7.74692 34.4844Z" fill="white"/>
<path fill-rule="evenodd" clip-rule="evenodd" d="M33.7702 79.8988L32.9794 80.8195C32.7634 80.358 32.5368 79.9767 32.3998 79.566C28.9614 69.2602 25.5396 58.9473 22.0976 48.6428C19.4512 40.7213 16.7824 32.8082 14.1089 24.8962C13.985 24.5255 13.7229 24.2021 13.5234 23.8586L20.6705 14.457C20.896 14.758 21.2171 15.026 21.3339 15.3647C23.3181 21.1733 25.2846 26.989 27.2393 32.8082C29.0653 38.2426 30.8642 43.6852 32.7114 49.1125C32.8354 49.4761 33.2662 49.7334 33.5542 50.0403L33.5684 51.2738C33.6369 60.8135 33.7041 70.3568 33.7702 79.8988Z" fill="white"/>
<path fill-rule="evenodd" clip-rule="evenodd" d="M33.557 50.038C33.269 49.7311 32.8382 49.4738 32.7142 49.1103C30.867 43.6829 29.0681 38.2403 27.2421 32.8059C25.2874 26.9867 23.3209 21.1722 21.3367 15.3624C21.2198 15.0237 20.8988 14.7557 20.6733 14.4547C22.9975 12.179 25.2496 9.82182 27.667 7.65113C29.8164 5.72241 31.5445 3.65441 31.6236 0.606707C31.6271 0.480408 31.6932 0.354109 31.7947 0L32.4073 1.54156C32.392 2.32178 32.3224 3.102 32.3731 3.8775C32.4616 5.22666 32.6788 6.56873 32.7402 7.91789C32.8535 10.4285 32.9078 12.9439 32.9586 15.4581C33.04 19.5043 33.1144 23.5506 33.1651 27.5981C33.2442 34.0641 33.2962 40.5302 33.3776 46.9962C33.3871 48.0125 33.4933 49.0241 33.557 50.038Z" fill="white"/>
<path fill-rule="evenodd" clip-rule="evenodd" d="M30.6963 122.844C31.0068 121.292 31.4152 119.751 31.6076 118.185C31.9912 115.058 32.2544 111.915 32.5684 108.78L32.6463 108.768L32.7242 108.781C32.8127 112.716 33.3486 116.589 34.3696 120.393C34.1619 120.667 33.868 120.912 33.7582 121.221C32.9001 123.641 32.0915 126.079 31.2287 128.499C31.1107 128.83 30.7825 129.087 30.5512 129.377L29.6694 126.348L30.6963 122.844Z" fill="white"/>
<path fill-rule="evenodd" clip-rule="evenodd" d="M30.5522 129.379C30.7836 129.088 31.1129 128.831 31.2298 128.501C32.0926 126.081 32.9024 123.643 33.7593 121.222C33.8691 120.913 34.1618 120.669 34.3707 120.395L35.8521 123.646C35.5594 124.061 35.1557 124.435 34.9928 124.898L32.1552 133.23C32.0383 133.564 31.6394 133.8 31.3726 134.083L30.5522 129.379Z" fill="white"/>
<path fill-rule="evenodd" clip-rule="evenodd" d="M31.373 134.081C31.641 133.8 32.0388 133.563 32.1556 133.229L34.9932 124.897C35.1549 124.435 35.5598 124.06 35.8525 123.645L37.2867 124.869C36.5938 125.553 36.209 126.344 36.4403 127.344L36.0048 128.77C35.8065 129.014 35.5197 129.226 35.4217 129.506C34.4314 132.343 33.4859 135.194 32.4885 138.031C32.3622 138.391 32.0116 138.673 31.7637 138.989C31.6351 137.352 31.5041 135.718 31.373 134.081Z" fill="white"/>
<path fill-rule="evenodd" clip-rule="evenodd" d="M31.7647 138.989C32.0114 138.671 32.3619 138.389 32.4894 138.03C33.4868 135.195 34.4323 132.343 35.4226 129.506C35.5206 129.227 35.8062 129.013 36.0057 128.769L35.4049 135.314C35.2444 135.499 35.0119 135.661 34.9351 135.877C34.2564 137.782 33.6167 139.702 32.9356 141.607C32.7951 142 32.526 142.347 32.3159 142.714C32.1294 142.47 31.7954 142.233 31.78 141.978C31.7198 140.986 31.7611 139.986 31.7647 138.989Z" fill="white"/>
<path fill-rule="evenodd" clip-rule="evenodd" d="M32.3149 142.715C32.525 142.346 32.7942 141.999 32.9346 141.607C33.6169 139.704 34.2555 137.784 34.9342 135.878C35.0109 135.662 35.2446 135.501 35.404 135.315L35.4181 139.611L33.9804 143.299L32.3149 142.715Z" fill="white"/>
<path fill-rule="evenodd" clip-rule="evenodd" d="M33.9805 143.3L35.4182 139.612L35.7144 143.975L33.9805 143.3Z" fill="white"/>
<path fill-rule="evenodd" clip-rule="evenodd" d="M36.4405 127.345C36.2092 126.345 36.5928 125.553 37.2868 124.87L37.6846 125.141L36.4405 127.345Z" fill="white"/>
<path fill-rule="evenodd" clip-rule="evenodd" d="M32.7242 108.783L32.6463 108.77L32.5684 108.781L32.7513 108.122L32.7242 108.783Z" fill="white"/>
</svg>
