<svg width="121" height="120" viewBox="0 0 121 120" fill="none" xmlns="http://www.w3.org/2000/svg">
<path fill-rule="evenodd" clip-rule="evenodd" d="M29.4021 20.2286C28.2595 20.225 27.1213 20.37 26.0161 20.6599V20.8109H26.18C26.9716 22.0058 27.8541 23.1378 28.8198 24.1969C29.4841 25.5168 30.0621 26.8324 30.722 28.1523C30.804 28.0703 30.8859 27.9841 30.8859 27.9841C31.4987 27.4977 31.9783 26.864 32.28 26.1422C32.5817 25.4204 32.6957 24.6339 32.6113 23.8561C32.2501 23.2991 31.9189 22.7232 31.6192 22.1308C31.1232 21.3069 30.0491 20.8928 29.3892 20.2329" fill="white"/>
<path fill-rule="evenodd" clip-rule="evenodd" d="M111.335 92.211C105.894 91.8288 100.434 92.6172 95.3238 94.523C94.0859 95.0191 92.1103 95.0191 91.9378 96.5848C92.6021 97.2448 92.6797 98.3102 93.262 99.2289C94.3917 101.142 95.8437 102.845 97.5538 104.263C99.2792 105.583 101.005 106.898 102.838 108.054C106.051 110.043 109.687 111.194 112.819 113.174C114.639 114.33 116.451 115.814 118.271 117.056C119.177 117.716 119.751 118.782 120.907 119.213V118.963C120.567 118.046 120.147 117.161 119.651 116.319C118.827 115.499 117.999 114.753 117.171 113.929C114.752 110.73 111.857 107.919 108.587 105.595C105.943 103.775 100.163 101.282 99.098 98.2627L98.9298 98.0945C100.865 97.8204 102.771 97.3758 104.628 96.766C107.432 96.0241 109.989 96.1923 112.875 95.472C114.199 95.1398 116.593 94.316 116.593 94.316V93.022C115.118 91.5554 114.061 89.5928 112.508 88.2082C108.284 84.5205 103.782 81.1634 99.042 78.1666C96.51 76.5319 93.2448 75.4794 90.5489 74.0862C89.5741 73.5944 87.9609 73.3529 87.3699 72.5333C86.0291 70.5663 84.9068 68.459 84.0227 66.2487C81.659 61.7628 79.3686 56.7895 77.3326 52.0447C76.1276 48.865 74.7377 45.7583 73.1702 42.7407C65.606 29.8802 54.6876 19.3182 41.5833 12.1847C38.2768 10.5842 34.7613 9.4574 31.1405 8.83747C29.096 8.7512 27.0601 8.59161 25.0198 8.51397C23.7028 7.65114 22.4501 6.69393 21.2715 5.64987C16.6044 2.6952 4.61317 -3.65411 1.17971 4.75269C-1.02012 10.0625 4.44926 15.2817 6.32558 17.9776C7.9077 19.8784 9.30171 21.9282 10.488 24.0983C11.0617 25.4872 11.2256 26.958 11.782 28.4116C12.9794 32.1432 14.4011 35.799 16.0393 39.359C16.9156 41.1186 17.925 42.8086 19.0587 44.4143C19.7187 45.3158 20.8574 45.7083 21.1033 47.1965C20.1987 49.1408 19.5659 51.2004 19.2226 53.3172C17.7968 57.8199 17.2721 62.5594 17.6784 67.265C18.0847 71.9706 19.4141 76.55 21.5907 80.7417C22.8847 82.782 25.999 87.2722 30.1614 85.5555C33.8321 84.0889 33.0169 79.4348 34.078 75.3586C34.3195 74.3708 34.1599 73.7238 34.6473 73.0725V73.8662C34.6473 73.8662 36.7307 78.4427 37.7659 80.7676C40.5812 85.0336 44.0785 88.8078 48.118 91.9393C49.7159 93.3343 51.0032 95.0492 51.8966 96.973V98.4525H53.7384C53.7 97.7854 53.5151 97.135 53.1968 96.5475C52.8784 95.96 52.4345 95.4499 51.8966 95.0536C50.3862 93.499 49.0029 91.8258 47.76 90.05C44.3837 85.2415 41.4062 80.165 38.8572 74.8712C37.5632 72.2832 36.4719 69.445 35.4367 66.8612C34.9622 65.8648 34.9622 64.3595 34.1642 63.8419C32.6908 65.5852 31.4122 67.4843 30.3512 69.5053C29.0632 73.5903 28.3135 77.8258 28.1212 82.1048C27.8063 82.191 27.9616 82.1048 27.8063 82.2687C25.2657 81.6001 24.3901 78.8525 23.4325 76.5232C20.9588 69.3395 20.7093 61.5767 22.7165 54.2489C23.2686 52.5019 25.6625 46.9981 24.7049 45.3288C24.2262 43.7371 22.6345 42.827 21.7632 41.5718C20.6509 39.8832 19.6937 38.0974 18.9034 36.2361C17.0099 31.5949 16.0523 26.4189 13.9905 21.7431C12.8491 19.4944 11.5202 17.3459 10.0178 15.3205C8.35596 13.2972 6.89002 11.1207 5.63975 8.82022C5.24292 7.90146 4.68649 6.4004 5.32056 5.3997C5.36335 5.12172 5.49555 4.86526 5.69712 4.66913C5.8987 4.473 6.15869 4.34788 6.43773 4.31272C7.46432 3.39828 10.4104 4.5629 11.4413 5.06325C14.212 6.15402 16.8511 7.55318 19.3089 9.2343C20.4217 10.0711 23.0443 12.189 23.0443 12.189H23.8207C26.4605 12.7627 29.4281 12.3486 31.9126 13.0948C36.0959 14.4893 40.0881 16.402 43.796 18.7885C54.7248 25.7553 63.6093 35.4971 69.5427 47.0196C70.5347 48.9132 70.9531 50.6515 71.859 52.627C73.5843 56.6816 75.741 60.8225 77.4664 64.7649C78.9885 68.6654 80.957 72.3767 83.3326 75.8245C84.5662 77.5498 89.5223 78.4643 91.7523 79.3701C93.6889 80.04 95.5894 80.8103 97.446 81.6777C100.254 83.4031 103.053 85.3916 105.698 87.2851C107.013 88.2772 111.141 90.339 111.391 91.9911" fill="white"/>
</svg>
