<svg width="139" height="160" viewBox="0 0 139 160" fill="none" xmlns="http://www.w3.org/2000/svg">
<path d="M55.5906 6.97329L11.4832 33.7248C4.65176 37.8681 0.479736 45.2779 0.479736 53.2676V106.903C0.479736 114.91 4.67005 122.334 11.5255 126.471L55.221 152.844C62.5091 157.242 71.6378 157.226 78.9105 152.802L127.034 123.527C133.851 119.38 138.012 111.979 138.012 104V53.6854C138.012 45.471 133.604 37.8884 126.466 33.8236L78.7536 6.65429C71.5466 2.55027 62.6819 2.67235 55.5906 6.97329Z" fill="#2CA2FF"/>
<path fill-rule="evenodd" clip-rule="evenodd" d="M52.2673 55.2173C51.5662 55.2151 50.8678 55.3041 50.1897 55.482V55.5746H50.2903C50.776 56.3078 51.3175 57.0024 51.91 57.6522C52.3176 58.4621 52.6722 59.2693 53.0772 60.0792C53.1275 60.0289 53.1777 59.976 53.1777 59.976C53.5537 59.6775 53.848 59.2887 54.0331 58.8458C54.2182 58.4029 54.2882 57.9204 54.2364 57.4431C54.0147 57.1014 53.8115 56.748 53.6277 56.3845C53.3233 55.879 52.6643 55.6249 52.2594 55.22" fill="white"/>
<path fill-rule="evenodd" clip-rule="evenodd" d="M102.54 99.3848C99.2018 99.1503 95.8518 99.634 92.716 100.803C91.9564 101.108 90.7443 101.108 90.6384 102.069C91.046 102.473 91.0936 103.127 91.4509 103.691C92.1441 104.865 93.035 105.909 94.0843 106.78C95.143 107.589 96.2016 108.397 97.3264 109.106C99.2982 110.326 101.529 111.033 103.451 112.247C104.568 112.957 105.679 113.867 106.796 114.629C107.352 115.034 107.704 115.688 108.413 115.953V115.799C108.205 115.237 107.947 114.694 107.643 114.177C107.138 113.674 106.629 113.216 106.121 112.711C104.637 110.748 102.86 109.023 100.854 107.597C99.232 106.48 95.6855 104.951 95.0318 103.098L94.9286 102.995C96.1157 102.827 97.2857 102.554 98.4248 102.18C100.145 101.724 101.715 101.828 103.485 101.386C104.298 101.182 105.767 100.676 105.767 100.676V99.8824C104.861 98.9825 104.213 97.7783 103.26 96.9287C100.668 94.666 97.9057 92.6062 94.9974 90.7674C93.4438 89.7643 91.4403 89.1185 89.7862 88.2637C89.188 87.962 88.1982 87.8137 87.8356 87.3109C87.0129 86.104 86.3243 84.8109 85.7818 83.4547C84.3315 80.7023 82.9261 77.6507 81.6769 74.7394C80.9375 72.7883 80.0847 70.8822 79.1229 69.0306C74.4816 61.1396 67.7823 54.6589 59.7416 50.2819C57.7128 49.2998 55.5558 48.6085 53.3341 48.2281C52.0796 48.1752 50.8304 48.0772 49.5786 48.0296C48.7704 47.5002 48.0018 46.9128 47.2786 46.2722C44.415 44.4593 37.0574 40.5634 34.9506 45.7217C33.6009 48.9797 36.9568 52.1822 38.1081 53.8363C39.0788 55.0026 39.9342 56.2604 40.6621 57.5919C41.0141 58.4441 41.1146 59.3466 41.4561 60.2385C42.1907 62.5281 43.063 64.7713 44.0683 66.9556C44.6059 68.0353 45.2253 69.0722 45.9209 70.0575C46.3259 70.6106 47.0246 70.8515 47.1754 71.7646C46.6204 72.9576 46.2321 74.2213 46.0215 75.5201C45.1466 78.283 44.8247 81.1911 45.074 84.0783C45.3233 86.9656 46.139 89.7755 47.4745 92.3474C48.2685 93.5993 50.1794 96.3544 52.7334 95.3011C54.9856 94.4012 54.4854 91.5455 55.1365 89.0444C55.2847 88.4384 55.1868 88.0414 55.4858 87.6417V88.1287C55.4858 88.1287 56.7642 90.9368 57.3994 92.3633C59.1268 94.9808 61.2727 97.2966 63.7513 99.2181C64.7317 100.074 65.5215 101.126 66.0697 102.307V103.214H67.1998C67.1763 102.805 67.0628 102.406 66.8675 102.046C66.6722 101.685 66.3998 101.372 66.0697 101.129C65.143 100.175 64.2942 99.1484 63.5316 98.0589C61.46 95.1084 59.633 91.9935 58.069 88.7454C57.275 87.1574 56.6054 85.4159 55.9702 83.8306C55.6791 83.2192 55.679 82.2955 55.1894 81.9779C54.2853 83.0476 53.5008 84.2129 52.8498 85.453C52.0595 87.9594 51.5995 90.5583 51.4815 93.1838C51.2883 93.2367 51.3836 93.1838 51.2883 93.2843C49.7294 92.8741 49.1922 91.1882 48.6046 89.759C47.0868 85.3512 46.9337 80.588 48.1653 76.0918C48.504 75.0199 49.9729 71.6428 49.3854 70.6186C49.0916 69.642 48.115 69.0835 47.5804 68.3134C46.8979 67.2773 46.3105 66.1815 45.8256 65.0395C44.6638 62.1917 44.0762 59.0158 42.8111 56.1468C42.1108 54.767 41.2954 53.4487 40.3736 52.206C39.3539 50.9645 38.4544 49.629 37.6873 48.2175C37.4438 47.6538 37.1023 46.7327 37.4914 46.1187C37.5177 45.9482 37.5988 45.7908 37.7225 45.6705C37.8461 45.5501 38.0057 45.4733 38.1769 45.4518C38.8068 44.8907 40.6144 45.6053 41.247 45.9123C42.947 46.5816 44.5664 47.4401 46.0744 48.4716C46.7573 48.985 48.3664 50.2845 48.3664 50.2845H48.8428C50.4625 50.6365 52.2834 50.3824 53.8079 50.8403C56.3747 51.6959 58.8242 52.8696 61.0994 54.3339C67.8051 58.6086 73.2565 64.586 76.8971 71.6561C77.5058 72.8179 77.7625 73.8845 78.3183 75.0967C79.377 77.5845 80.7003 80.1253 81.759 82.5443C82.6929 84.9376 83.9007 87.2147 85.3584 89.3303C86.1153 90.3889 89.1563 90.95 90.5246 91.5058C91.7129 91.9169 92.879 92.3895 94.0181 92.9217C95.7411 93.9804 97.4588 95.2005 99.0812 96.3624C99.8884 96.9711 102.421 98.2362 102.575 99.2498" fill="white"/>
</svg>
