<svg width="104" height="118" viewBox="0 0 104 118" fill="none" xmlns="http://www.w3.org/2000/svg">
<path d="M51.8608 117.25C50.2523 117.25 48.7511 116.821 47.357 116.07L33.0952 107.599C30.9506 106.419 32.0229 105.99 32.6663 105.776C35.5616 104.811 36.0977 104.596 39.1002 102.88C39.4219 102.666 39.8508 102.773 40.1725 102.988L51.1101 109.529C51.5391 109.743 52.0752 109.743 52.3969 109.529L95.1824 84.7583C95.6113 84.5439 95.8258 84.1149 95.8258 83.5788V34.145C95.8258 33.6088 95.6113 33.1799 95.1824 32.9654L52.3969 8.30213C51.968 8.08767 51.4318 8.08767 51.1101 8.30213L8.32471 32.9654C7.89578 33.1799 7.68132 33.716 7.68132 34.145V83.5788C7.68132 84.0077 7.89578 84.5439 8.32471 84.7583L20.013 91.5139C26.3396 94.7309 30.3072 90.9777 30.3072 87.2246V38.4342C30.3072 37.7908 30.8434 37.1475 31.594 37.1475H37.0628C37.7062 37.1475 38.3496 37.6836 38.3496 38.4342V87.2246C38.3496 95.6959 33.7386 100.629 25.6962 100.629C23.2299 100.629 21.2997 100.629 15.8309 97.9478L4.5716 91.5139C1.78358 89.9054 0.0678711 86.903 0.0678711 83.686V34.2522C0.0678711 31.0352 1.78358 28.0328 4.5716 26.4243L47.357 1.65376C50.0378 0.152521 53.6837 0.152521 56.3645 1.65376L99.1499 26.4243C101.938 28.0328 103.654 31.0352 103.654 34.2522V83.686C103.654 86.903 101.938 89.9054 99.1499 91.5139L56.3645 116.284C54.9705 116.928 53.362 117.25 51.8608 117.25ZM65.0503 83.2571C46.2847 83.2571 42.4244 74.6785 42.4244 67.3868C42.4244 66.7434 42.9605 66.1 43.7112 66.1H49.2872C49.9306 66.1 50.4668 66.5289 50.4668 67.1723C51.3246 72.8556 53.7909 75.6436 65.1575 75.6436C74.165 75.6436 78.0253 73.6062 78.0253 68.7808C78.0253 65.9928 76.953 63.9554 62.9056 62.5614C51.2174 61.3818 43.9256 58.8082 43.9256 49.4791C43.9256 40.7933 51.2174 35.6462 63.4418 35.6462C77.1674 35.6462 83.923 40.3644 84.7809 50.6586C84.7809 50.9803 84.6737 51.302 84.4592 51.6237C84.2447 51.8382 83.923 52.0527 83.6013 52.0527H78.0253C77.4891 52.0527 76.953 51.6237 76.8457 51.0876C75.559 45.1898 72.2348 43.2597 63.4418 43.2597C53.5765 43.2597 52.3969 46.6911 52.3969 49.2646C52.3969 52.3743 53.7909 53.3394 67.0877 55.0551C80.2772 56.7708 86.4966 59.2372 86.4966 68.4591C86.3894 77.8955 78.6687 83.2571 65.0503 83.2571Z" fill="white"/>
</svg>
