<svg width="139" height="160" viewBox="0 0 139 160" fill="none" xmlns="http://www.w3.org/2000/svg">
<path d="M56.0241 6.96743L11.9168 33.7189C5.08535 37.8623 0.91333 45.272 0.91333 53.2617V106.897C0.91333 114.904 5.10364 122.328 11.9591 126.465L55.6546 152.838C62.9427 157.236 72.0714 157.221 79.3441 152.796L127.468 123.521C134.285 119.374 138.445 111.973 138.445 103.994V53.6795C138.445 45.4652 134.037 37.8825 126.899 33.8178L79.1872 6.64843C71.9801 2.54441 63.1154 2.66649 56.0241 6.96743Z" fill="#ECAC22"/>
<path d="M70.1242 127.108C68.8681 127.108 67.6957 126.773 66.607 126.187L55.4692 119.571C53.7943 118.65 54.6318 118.315 55.1342 118.148C57.3953 117.394 57.814 117.226 60.1588 115.887C60.41 115.719 60.745 115.803 60.9962 115.97L69.538 121.079C69.873 121.246 70.2917 121.246 70.543 121.079L103.957 101.734C104.291 101.566 104.459 101.231 104.459 100.813V62.2071C104.459 61.7884 104.291 61.4534 103.957 61.2859L70.543 42.025C70.208 41.8575 69.7893 41.8575 69.538 42.025L36.1245 61.2859C35.7895 61.4534 35.622 61.8721 35.622 62.2071V100.813C35.622 101.148 35.7895 101.566 36.1245 101.734L45.2525 107.01C50.1934 109.522 53.2919 106.591 53.2919 103.66V65.5568C53.2919 65.0544 53.7106 64.5519 54.2968 64.5519H58.5677C59.0701 64.5519 59.5726 64.9706 59.5726 65.5568V103.66C59.5726 110.276 55.9716 114.128 49.6909 114.128C47.7648 114.128 46.2574 114.128 41.9865 112.034L33.1935 107.01C31.0162 105.754 29.6763 103.409 29.6763 100.896V62.2909C29.6763 59.7786 31.0162 57.4337 33.1935 56.1776L66.607 36.8329C68.7006 35.6605 71.5479 35.6605 73.6415 36.8329L107.055 56.1776C109.232 57.4337 110.572 59.7786 110.572 62.2909V100.896C110.572 103.409 109.232 105.754 107.055 107.01L73.6415 126.354C72.5528 126.857 71.2967 127.108 70.1242 127.108ZM80.4247 100.562C65.7696 100.562 62.7548 93.862 62.7548 88.1675C62.7548 87.665 63.1736 87.1626 63.7598 87.1626H68.1144C68.6169 87.1626 69.0356 87.4976 69.0356 88C69.7055 92.4384 71.6316 94.6157 80.5084 94.6157C87.5428 94.6157 90.5576 93.0246 90.5576 89.2562C90.5576 87.0789 89.7202 85.4877 78.7498 84.3991C69.6218 83.4779 63.9272 81.4681 63.9272 74.1824C63.9272 67.3992 69.6218 63.3795 79.1685 63.3795C89.8876 63.3795 95.1635 67.0642 95.8334 75.1036C95.8334 75.3548 95.7497 75.606 95.5822 75.8573C95.4147 76.0247 95.1635 76.1922 94.9122 76.1922H90.5576C90.1389 76.1922 89.7202 75.8573 89.6364 75.4385C88.6315 70.8327 86.0355 69.3253 79.1685 69.3253C71.4641 69.3253 70.543 72.0051 70.543 74.0149C70.543 76.4435 71.6316 77.1971 82.0158 78.537C92.3162 79.8769 97.1733 81.803 97.1733 89.0049C97.0896 96.3743 91.06 100.562 80.4247 100.562Z" fill="white"/>
</svg>
