<svg width="139" height="160" viewBox="0 0 139 160" fill="none" xmlns="http://www.w3.org/2000/svg">
<path d="M55.8564 6.97329L11.749 33.7248C4.91763 37.8681 0.745605 45.2779 0.745605 53.2676V106.903C0.745605 114.91 4.93592 122.334 11.7914 126.471L55.4869 152.844C62.775 157.242 71.9037 157.226 79.1763 152.802L127.3 123.527C134.117 119.38 138.278 111.979 138.278 104V53.6854C138.278 45.471 133.87 37.8884 126.731 33.8236L79.0195 6.65429C71.8124 2.55027 62.9477 2.67235 55.8564 6.97329Z" fill="#2CA2FF"/>
<path d="M24.1156 62.9248V94.1636H50.1179V99.4002H70.8836V94.1636H117.652V62.9248H24.1156Z" fill="#CB3837"/>
<path d="M39.6445 68.1616H29.3519V73.3982V88.9273H39.6445V73.3982H44.8811V88.9273H50.1176V73.3982V68.1616H39.6445Z" fill="white"/>
<path d="M55.3544 68.1616V87.8439V88.9273V94.1639H65.8275V88.9273H76.1201V68.1616H55.3544ZM70.8835 83.6908H65.8275V73.3982H70.8835V83.6908Z" fill="white"/>
<path d="M91.6489 68.1616H81.3563V73.3982V88.9273H91.6489V73.3982H96.8855V88.9273H102.122V73.3982H107.359V88.9273H112.595V73.3982V68.5228V68.1616H91.6489Z" fill="white"/>
</svg>
