<svg width="138" height="160" viewBox="0 0 138 160" fill="none" xmlns="http://www.w3.org/2000/svg">
<path d="M55.1396 6.97329L11.0323 33.7248C4.20083 37.8681 0.0288086 45.2779 0.0288086 53.2676V106.903C0.0288086 114.91 4.21912 122.334 11.0746 126.471L54.7701 152.844C62.0582 157.242 71.1869 157.226 78.4595 152.802L126.583 123.527C133.4 119.38 137.561 111.979 137.561 104V53.6854C137.561 45.471 133.153 37.8884 126.015 33.8236L78.3027 6.65429C71.0956 2.55027 62.2309 2.67235 55.1396 6.97329Z" fill="#000080"/>
<path d="M37.0131 73.9965C38.0197 72.6822 39.348 71.5917 40.9978 70.7248C42.6476 69.83 44.4512 69.3826 46.4086 69.3826C48.1982 69.3826 49.7781 69.7601 51.1483 70.5151C52.5464 71.2422 53.623 72.3047 54.378 73.7029C55.133 75.0731 55.5105 76.6949 55.5105 78.5684C55.5105 79.3794 55.4266 80.2462 55.2588 81.169C54.8394 83.4899 53.9865 85.5591 52.7002 87.3767C51.4419 89.1943 49.89 90.6064 48.0444 91.6131C46.2268 92.6198 44.2974 93.1231 42.2561 93.1231C40.2987 93.1231 38.6489 92.6897 37.3067 91.8228C35.9924 90.928 35.0417 89.8235 34.4545 88.5092L31.812 103.651H27.9951L33.9511 69.7601H37.7681L37.0131 73.9965ZM51.358 81.169C51.4699 80.5818 51.5258 79.9386 51.5258 79.2395C51.5258 77.1983 50.9246 75.6044 49.7222 74.4579C48.5198 73.2834 46.9679 72.6962 45.0664 72.6962C43.6682 72.6962 42.312 73.0458 40.9978 73.7448C39.6835 74.4159 38.551 75.4086 37.6003 76.7229C36.6775 78.0092 36.0623 79.5052 35.7547 81.2109C35.6429 81.7981 35.587 82.4413 35.587 83.1404C35.587 85.1816 36.1882 86.8035 37.3906 88.0059C38.6209 89.1803 40.1729 89.7676 42.0464 89.7676C43.4725 89.7676 44.8287 89.432 46.115 88.7609C47.4292 88.0618 48.5478 87.0691 49.4705 85.7829C50.4213 84.4686 51.0504 82.9306 51.358 81.169ZM73.7891 69.3407C76.082 69.3407 77.9276 69.9838 79.3257 71.2701C80.7238 72.5285 81.4229 74.36 81.4229 76.7648C81.4229 77.6596 81.353 78.4706 81.2132 79.1976L78.8224 92.7456H75.0474L77.3543 79.7429C77.4662 79.1557 77.5221 78.5405 77.5221 77.8973C77.5221 76.1916 77.0467 74.8913 76.096 73.9965C75.1732 73.1017 73.8729 72.6543 72.1952 72.6543C70.1818 72.6543 68.4621 73.2834 67.036 74.5418C65.6379 75.8001 64.7291 77.6317 64.3096 80.0365V79.9526L62.0446 92.7456H58.2277L63.7224 61.7068H67.5394L65.526 73.0737C66.4768 71.8993 67.6792 70.9905 69.1332 70.3473C70.6153 69.6762 72.1672 69.3407 73.7891 69.3407ZM92.1879 73.9965C93.1945 72.6822 94.5228 71.5917 96.1726 70.7248C97.8224 69.83 99.626 69.3826 101.583 69.3826C103.373 69.3826 104.953 69.7601 106.323 70.5151C107.721 71.2422 108.798 72.3047 109.553 73.7029C110.308 75.0731 110.685 76.6949 110.685 78.5684C110.685 79.3794 110.601 80.2462 110.434 81.169C110.014 83.4899 109.161 85.5591 107.875 87.3767C106.617 89.1943 105.065 90.6064 103.219 91.6131C101.402 92.6198 99.4722 93.1231 97.4309 93.1231C95.4735 93.1231 93.8237 92.6897 92.4815 91.8228C91.1672 90.928 90.2165 89.8235 89.6293 88.5092L86.9868 103.651H83.1698L89.1259 69.7601H92.9429L92.1879 73.9965ZM106.533 81.169C106.645 80.5818 106.701 79.9386 106.701 79.2395C106.701 77.1983 106.099 75.6044 104.897 74.4579C103.695 73.2834 102.143 72.6962 100.241 72.6962C98.843 72.6962 97.4868 73.0458 96.1726 73.7448C94.8583 74.4159 93.7258 75.4086 92.7751 76.7229C91.8523 78.0092 91.2371 79.5052 90.9295 81.2109C90.8177 81.7981 90.7618 82.4413 90.7618 83.1404C90.7618 85.1816 91.363 86.8035 92.5654 88.0059C93.7957 89.1803 95.3477 89.7676 97.2212 89.7676C98.6473 89.7676 100.003 89.432 101.29 88.7609C102.604 88.0618 103.723 87.0691 104.645 85.7829C105.596 84.4686 106.225 82.9306 106.533 81.169Z" fill="white"/>
</svg>
