<svg width="136" height="70" viewBox="0 0 136 70" fill="none" xmlns="http://www.w3.org/2000/svg">
<path d="M15.5176 20.7949C17.1582 18.653 19.3229 16.8756 22.0117 15.4629C24.7005 14.0045 27.64 13.2753 30.8301 13.2753C33.7468 13.2753 36.3217 13.8906 38.5547 15.1211C40.8334 16.306 42.5879 18.0377 43.8184 20.3164C45.0489 22.5494 45.6641 25.1927 45.6641 28.2461C45.6641 29.5677 45.5274 30.9804 45.254 32.4844C44.5704 36.2669 43.1804 39.6393 41.084 42.6016C39.0332 45.5638 36.5039 47.8652 33.4961 49.5059C30.5339 51.1465 27.3893 51.9668 24.0625 51.9668C20.8724 51.9668 18.1836 51.2604 15.9961 49.8477C13.8542 48.3893 12.3047 46.5892 11.3477 44.4473L7.04102 69.125H0.820311L10.5274 13.8906H16.7481L15.5176 20.7949ZM38.8965 32.4844C39.0788 31.5273 39.17 30.4791 39.17 29.3398C39.17 26.013 38.1901 23.4153 36.2305 21.5468C34.2709 19.6328 31.7416 18.6757 28.6426 18.6757C26.364 18.6757 24.1537 19.2454 22.0117 20.3847C19.8698 21.4785 18.0241 23.0963 16.4746 25.2383C14.9707 27.3346 13.9681 29.7728 13.4668 32.5527C13.2845 33.5097 13.1934 34.5579 13.1934 35.6972C13.1934 39.0241 14.1732 41.6673 16.1328 43.6269C18.138 45.541 20.6673 46.498 23.7207 46.498C26.0449 46.498 28.2552 45.9512 30.3516 44.8574C32.4935 43.7181 34.3164 42.1003 35.8203 40.0039C37.3698 37.862 38.3952 35.3555 38.8965 32.4844ZM75.4539 13.207C79.1909 13.207 82.1987 14.2552 84.4773 16.3515C86.756 18.4023 87.8953 21.3873 87.8953 25.3066C87.8953 26.7649 87.7814 28.0866 87.5535 29.2715L83.657 51.3516H77.5047L81.2644 30.1601C81.4467 29.2031 81.5379 28.2005 81.5379 27.1523C81.5379 24.3724 80.7631 22.2532 79.2136 20.7949C77.7097 19.3366 75.5906 18.6074 72.8562 18.6074C69.575 18.6074 66.7722 19.6328 64.448 21.6836C62.1694 23.7343 60.6882 26.7194 60.0046 30.6387V30.5019L56.3132 51.3516H50.0925L59.0476 0.765574H65.2683L61.9871 19.291C63.5365 17.3769 65.4962 15.8958 67.866 14.8476C70.2813 13.7539 72.8106 13.207 75.4539 13.207ZM105.44 20.7949C107.08 18.653 109.245 16.8756 111.934 15.4629C114.623 14.0045 117.562 13.2753 120.752 13.2753C123.669 13.2753 126.244 13.8906 128.477 15.1211C130.755 16.306 132.51 18.0377 133.74 20.3164C134.971 22.5494 135.586 25.1927 135.586 28.2461C135.586 29.5677 135.449 30.9804 135.176 32.4844C134.492 36.2669 133.102 39.6393 131.006 42.6016C128.955 45.5638 126.426 47.8652 123.418 49.5059C120.456 51.1465 117.311 51.9668 113.985 51.9668C110.794 51.9668 108.106 51.2604 105.918 49.8477C103.776 48.3893 102.227 46.5892 101.27 44.4473L96.9631 69.125H90.7424L100.449 13.8906H106.67L105.44 20.7949ZM128.819 32.4844C129.001 31.5273 129.092 30.4791 129.092 29.3398C129.092 26.013 128.112 23.4153 126.153 21.5468C124.193 19.6328 121.664 18.6757 118.565 18.6757C116.286 18.6757 114.076 19.2454 111.934 20.3847C109.792 21.4785 107.946 23.0963 106.397 25.2383C104.893 27.3346 103.89 29.7728 103.389 32.5527C103.207 33.5097 103.115 34.5579 103.115 35.6972C103.115 39.0241 104.095 41.6673 106.055 43.6269C108.06 45.541 110.589 46.498 113.643 46.498C115.967 46.498 118.177 45.9512 120.274 44.8574C122.416 43.7181 124.238 42.1003 125.742 40.0039C127.292 37.862 128.317 35.3555 128.819 32.4844Z" fill="white"/>
</svg>
