<svg width="142" height="159" viewBox="0 0 142 159" fill="none" xmlns="http://www.w3.org/2000/svg">
<path d="M63.8006 67.0436C61.3732 68.445 59.416 70.5347 58.1763 73.0485C56.9367 75.5623 56.4703 78.3872 56.8361 81.1661C57.202 83.9449 58.3837 86.5529 60.2318 88.6601C62.0798 90.7674 64.5113 92.2793 67.2186 93.0046C69.926 93.73 72.7876 93.6362 75.4417 92.7352C78.0957 91.8342 80.423 90.1664 82.1292 87.9427C83.8353 85.719 84.8438 83.0393 85.027 80.2424C85.2102 77.4456 84.5599 74.6572 83.1583 72.23C81.2789 68.9754 78.1837 66.6007 74.5535 65.628C70.9233 64.6554 67.0554 65.1646 63.8006 67.0436ZM127.317 82.4189C126.387 81.3556 125.405 80.2895 124.372 79.2205C125.094 78.4621 125.792 77.7043 126.467 76.9472C139.209 62.6305 144.587 48.2727 139.604 39.6409C134.826 31.3648 120.612 28.8985 102.818 32.3583C101.065 32.7012 99.3223 33.088 97.5889 33.5187C97.2571 32.3748 96.9042 31.2375 96.5302 30.1067C90.4936 11.9157 80.7424 0.0830894 70.7758 0.089358C61.2189 0.0937222 51.9822 11.1751 46.0898 28.3178C45.5101 30.0089 44.9738 31.7142 44.481 33.4335C43.322 33.1492 42.1583 32.8865 40.9896 32.6456C22.2156 28.791 7.09429 31.3297 2.12092 39.9663C-2.64796 48.2485 2.33937 61.7859 14.2495 75.4521C15.4307 76.8043 16.6453 78.1262 17.8934 79.4177C16.4221 80.9332 15.0289 82.4479 13.7303 83.9541C2.10886 97.4276 -2.59328 110.744 2.1679 118.99C7.08508 127.508 21.9936 130.292 40.1396 126.721C41.6102 126.43 43.0727 126.102 44.527 125.738C45.0597 127.597 45.6441 129.441 46.2802 131.268C52.1466 148.067 61.3315 158.791 70.8546 158.788C80.6895 158.782 90.5486 147.26 96.522 129.756C96.9937 128.373 97.4403 126.937 97.8635 125.457C99.7422 125.925 101.633 126.34 103.536 126.702C121.019 130.009 134.899 127.408 139.651 119.156C144.559 110.631 139.499 96.3345 127.317 82.4189ZM7.99585 43.3492C11.0576 38.0328 23.4153 35.9587 39.625 39.2865C40.661 39.4996 41.7147 39.7376 42.7861 40.0007C41.2036 47.0014 40.0869 54.0993 39.4435 61.2478C33.5947 65.3624 28.0183 69.8513 22.7493 74.6863C21.5884 73.4858 20.4585 72.2561 19.3597 70.9974C9.15482 59.2878 5.12191 48.34 7.99585 43.3492ZM38.8361 88.8011C34.7849 85.7334 31.0199 82.5908 27.6026 79.43C31.0175 76.2888 34.7849 73.1567 38.8279 70.0973C38.6826 73.2139 38.6106 76.3328 38.6119 79.4542C38.6141 82.5709 38.6888 85.6866 38.8361 88.8011ZM38.8313 120.069C31.9538 121.599 24.8536 121.849 17.8854 120.809C15.9752 120.66 14.1158 120.121 12.4221 119.225C10.7284 118.329 9.23638 117.096 8.03822 115.601C5.14936 110.596 8.92503 99.9055 18.864 88.3822C20.1135 86.938 21.404 85.5316 22.7355 84.1629C28.0053 89.0232 33.5907 93.5297 39.4553 97.6528C40.1075 104.893 41.2373 112.081 42.8372 119.172C41.5096 119.504 40.1743 119.803 38.8313 120.069ZM95.1781 56.2779C92.5168 54.601 89.8226 52.9779 87.0955 51.4086C84.412 49.864 81.6961 48.3773 78.948 46.9486C83.6534 44.9702 88.2787 43.2805 92.744 41.9036C93.7966 46.651 94.609 51.4485 95.1781 56.2779ZM52.5012 30.5214C57.5497 15.8328 65.0196 6.87117 70.7795 6.86871C76.9138 6.86577 84.884 16.5355 90.0957 32.2416C90.4342 33.2655 90.7543 34.2951 91.0558 35.3305C84.2088 37.4542 77.5099 40.0286 71.003 43.0369C64.5231 39.9932 57.8453 37.3901 51.015 35.2453C51.4715 33.6587 51.967 32.0841 52.5012 30.5214ZM49.3244 41.819C53.982 43.2854 58.5627 44.9856 63.0491 46.9133C57.4902 49.782 52.075 52.9068 46.8035 56.2876C47.4404 51.2251 48.2878 46.3747 49.3244 41.819ZM46.8151 102.606C49.4439 104.289 52.1112 105.909 54.8169 107.468C57.5769 109.057 60.3736 110.579 63.207 112.035C58.6863 114.029 54.0662 115.79 49.365 117.311C48.3165 112.692 47.4597 107.756 46.8151 102.606ZM90.1055 127.565C87.9945 134.287 84.6643 140.563 80.2814 146.079C79.1982 147.659 77.8021 149.001 76.1802 150.021C74.5583 151.04 72.7445 151.716 70.851 152.007C65.0727 152.01 57.6976 143.398 52.6807 129.032C52.0898 127.334 51.5463 125.62 51.05 123.89C57.9129 121.676 64.6179 118.999 71.1188 115.878C77.6792 118.906 84.4314 121.5 91.3318 123.643C90.955 124.96 90.5462 126.267 90.1055 127.565ZM92.9798 117.058C88.4632 115.661 83.7707 113.943 78.9974 111.936C81.6882 110.519 84.3986 109.024 87.1285 107.449C89.9298 105.831 92.6596 104.173 95.3181 102.475C94.7886 107.372 94.0081 112.24 92.9798 117.058ZM96.5211 79.4249C96.527 84.2438 96.3765 89.0588 96.0698 93.8699C92.1604 96.5156 88.0331 99.099 83.7389 101.578C79.4625 104.047 75.2253 106.316 71.0689 108.37C66.6951 106.274 62.4056 104.015 58.2004 101.593C54.0189 99.1863 49.9332 96.6233 45.9435 93.9043C45.5788 89.0946 45.3951 84.2762 45.3924 79.4491C45.389 74.6253 45.5697 69.8081 45.9324 64.9945C49.8408 62.3254 53.938 59.7441 58.1742 57.2983C62.4299 54.8409 66.7201 52.5816 70.9866 50.534C75.3066 52.6334 79.5487 54.8834 83.7128 57.2838C87.8914 59.6854 91.9885 62.2211 96.004 64.8908C96.3488 69.7281 96.5208 74.5728 96.5211 79.4249ZM104.113 39.0137C119.358 36.0483 130.853 38.0431 133.733 43.0306C136.801 48.3439 132.404 60.0787 121.403 72.4402C120.796 73.1221 120.165 73.8074 119.511 74.4951C114.151 69.6498 108.467 65.1751 102.499 61.1021C101.897 54.0318 100.822 47.0098 99.2818 40.083C100.923 39.6792 102.534 39.3227 104.113 39.0137ZM103.082 69.8385C107.108 72.7777 110.978 75.9237 114.678 79.2639C110.995 82.659 107.136 85.8593 103.119 88.8517C103.242 85.71 103.302 82.5666 103.3 79.4217C103.299 76.2266 103.226 73.0322 103.082 69.8385ZM133.775 115.772C130.891 120.78 119.747 122.868 104.795 120.039C103.082 119.716 101.323 119.331 99.5204 118.884C101.023 111.869 102.051 104.759 102.595 97.6049C108.553 93.4607 114.219 88.9115 119.552 83.9895C120.486 84.9591 121.373 85.9242 122.216 86.8847C126.985 92.0706 130.759 98.0896 133.349 104.642C134.177 106.369 134.642 108.248 134.716 110.163C134.789 112.077 134.469 113.986 133.775 115.772Z" fill="white"/>
</svg>
