<svg width="138" height="160" viewBox="0 0 138 160" fill="none" xmlns="http://www.w3.org/2000/svg">
<path d="M55.446 6.96743L11.3386 33.7189C4.50723 37.8623 0.335205 45.272 0.335205 53.2617V106.897C0.335205 114.904 4.52552 122.328 11.381 126.465L55.0765 152.838C62.3646 157.236 71.4933 157.221 78.7659 152.796L126.89 123.521C133.706 119.374 137.867 111.973 137.867 103.994V53.6795C137.867 45.4652 133.459 37.8825 126.321 33.8178L78.6091 6.64843C71.402 2.54441 62.5373 2.66649 55.446 6.96743Z" fill="#2CA2FF"/>
<path d="M64.4483 69.8453C62.959 70.7051 61.758 71.9874 60.9974 73.5298C60.2368 75.0722 59.9506 76.8055 60.1751 78.5106C60.3996 80.2157 61.1246 81.8158 62.2586 83.1088C63.3925 84.4018 64.8844 85.3295 66.5456 85.7746C68.2068 86.2196 69.9627 86.1621 71.5911 85.6092C73.2196 85.0564 74.6476 84.033 75.6945 82.6686C76.7414 81.3042 77.3601 79.66 77.4725 77.9439C77.5849 76.2278 77.1859 74.5169 76.326 73.0276C75.1728 71.0306 73.2736 69.5735 71.0462 68.9767C68.8187 68.3799 66.4454 68.6923 64.4483 69.8453ZM103.421 79.2793C102.85 78.6269 102.248 77.9727 101.614 77.3168C102.057 76.8515 102.485 76.3865 102.899 75.922C110.718 67.1375 114.017 58.3278 110.96 53.0314C108.028 47.9533 99.307 46.44 88.3888 48.5629C87.3134 48.7733 86.2439 49.0107 85.1803 49.2749C84.9768 48.5731 84.7602 47.8752 84.5307 47.1814C80.8268 36.0196 74.8436 28.7593 68.7282 28.7632C62.8643 28.7659 57.1968 35.5652 53.5813 46.0837C53.2256 47.1214 52.8965 48.1677 52.5941 49.2226C51.883 49.0482 51.169 48.887 50.4519 48.7392C38.9325 46.374 29.6542 47.9317 26.6027 53.2311C23.6766 58.3129 26.7367 66.6192 34.0446 75.0046C34.7693 75.8343 35.5146 76.6454 36.2804 77.4378C35.3776 78.3677 34.5228 79.2971 33.726 80.2213C26.5953 88.4884 23.7101 96.659 26.6315 101.719C29.6486 106.945 38.7962 108.654 49.9303 106.463C50.8327 106.284 51.73 106.083 52.6224 105.859C52.9493 107 53.3078 108.131 53.6981 109.252C57.2977 119.56 62.9334 126.14 68.7766 126.138C74.8111 126.135 80.8605 119.065 84.5257 108.325C84.8151 107.476 85.0892 106.595 85.3488 105.687C86.5016 105.974 87.6617 106.228 88.8293 106.451C99.5568 108.48 108.073 106.884 110.989 101.82C114 96.59 110.896 87.8177 103.421 79.2793ZM30.2074 55.3068C32.0861 52.0447 39.6686 50.7721 49.6146 52.814C50.2503 52.9447 50.8968 53.0907 51.5542 53.2522C50.5832 57.5477 49.898 61.9029 49.5032 66.289C45.9145 68.8137 42.4929 71.568 39.2599 74.5347C38.5476 73.7981 37.8543 73.0436 37.1801 72.2712C30.9186 65.0864 28.444 58.3691 30.2074 55.3068ZM49.1306 83.1953C46.6448 81.3131 44.3346 79.3848 42.2378 77.4454C44.3331 75.518 46.6448 73.5962 49.1255 71.719C49.0364 73.6313 48.9922 75.545 48.993 77.4602C48.9943 79.3726 49.0402 81.2843 49.1306 83.1953ZM49.1276 102.381C44.9077 103.319 40.5511 103.473 36.2755 102.835C35.1035 102.743 33.9626 102.413 32.9233 101.863C31.8841 101.313 30.9686 100.557 30.2334 99.6392C28.4609 96.5686 30.7776 90.0088 36.8759 82.9383C37.6426 82.0522 38.4345 81.1892 39.2515 80.3494C42.4849 83.3316 45.9121 86.0967 49.5105 88.6266C49.9107 93.0688 50.6039 97.4798 51.5856 101.831C50.7709 102.034 49.9516 102.218 49.1276 102.381ZM83.7011 63.2396C82.0682 62.2107 80.4151 61.2148 78.7418 60.2519C77.0952 59.3041 75.4288 58.3919 73.7426 57.5153C76.6297 56.3014 79.4678 55.2646 82.2076 54.4197C82.8535 57.3327 83.3519 60.2764 83.7011 63.2396ZM57.5153 47.4358C60.6129 38.4231 65.1963 32.9244 68.7305 32.9229C72.4944 32.9211 77.3848 38.8543 80.5826 48.4913C80.7903 49.1195 80.9867 49.7513 81.1717 50.3866C76.9705 51.6896 72.8602 53.2693 68.8676 55.1151C64.8917 53.2476 60.7943 51.6503 56.6033 50.3343C56.8834 49.3608 57.1874 48.3947 57.5153 47.4358ZM55.566 54.3679C58.4238 55.2676 61.2345 56.3108 63.9873 57.4936C60.5764 59.2538 57.2537 61.1711 54.0192 63.2455C54.41 60.1393 54.93 57.1632 55.566 54.3679ZM54.0263 91.6657C55.6393 92.6983 57.2759 93.6927 58.9361 94.6489C60.6296 95.624 62.3456 96.558 64.0842 97.4512C61.3103 98.6749 58.4755 99.7554 55.5909 100.689C54.9475 97.8545 54.4219 94.8261 54.0263 91.6657ZM80.5886 106.98C79.2934 111.105 77.25 114.956 74.5607 118.34C73.8961 119.31 73.0395 120.133 72.0443 120.759C71.0491 121.384 69.9362 121.799 68.7744 121.978C65.2289 121.98 60.7036 116.695 57.6253 107.88C57.2628 106.838 56.9293 105.787 56.6248 104.725C60.8358 103.367 64.9498 101.725 68.9387 99.8095C72.9641 101.667 77.1071 103.259 81.3411 104.574C81.1099 105.382 80.8591 106.184 80.5886 106.98ZM82.3523 100.533C79.581 99.6762 76.7017 98.622 73.7729 97.3903C75.4239 96.5214 77.087 95.6037 78.762 94.6374C80.4808 93.6448 82.1558 92.6274 83.787 91.5852C83.4621 94.5904 82.9832 97.5769 82.3523 100.533ZM84.5252 77.4422C84.5288 80.399 84.4364 83.3534 84.2482 86.3055C81.8495 87.9289 79.3171 89.514 76.6822 91.0351C74.0582 92.5501 71.4584 93.9423 68.9081 95.2023C66.2244 93.9161 63.5924 92.5302 61.0122 91.0444C58.4464 89.5675 55.9396 87.9949 53.4915 86.3266C53.2678 83.3754 53.155 80.4189 53.1534 77.4571C53.1513 74.4973 53.2622 71.5416 53.4847 68.588C55.8828 66.9503 58.3968 65.3664 60.9961 63.8657C63.6073 62.3579 66.2397 60.9716 68.8576 59.7152C71.5083 61.0034 74.1111 62.3839 76.6662 63.8568C79.2301 65.3304 81.744 66.8863 84.2079 68.5244C84.4195 71.4924 84.525 74.4651 84.5252 77.4422ZM89.1832 52.6466C98.5377 50.827 105.591 52.051 107.358 55.1112C109.24 58.3714 106.542 65.5717 99.7926 73.1565C99.4197 73.5749 99.0324 73.9954 98.6315 74.4174C95.3426 71.4444 91.8551 68.6988 88.1932 66.1996C87.8236 61.8614 87.1641 57.5528 86.2191 53.3027C87.2263 53.0549 88.2144 52.8362 89.1832 52.6466ZM88.5509 71.5602C91.0209 73.3636 93.3958 75.294 95.6659 77.3434C93.4058 79.4266 91.0385 81.3903 88.5735 83.2264C88.6489 81.2987 88.6861 79.37 88.6849 77.4403C88.684 75.4798 88.6393 73.5198 88.5509 71.5602ZM107.384 99.7441C105.614 102.817 98.7763 104.098 89.6019 102.363C88.5506 102.164 87.4718 101.928 86.3655 101.654C87.2877 97.3492 87.918 92.987 88.2519 88.5972C91.9077 86.0544 95.3842 83.2631 98.6568 80.243C99.2295 80.838 99.7742 81.4301 100.291 82.0195C103.217 85.2014 105.533 88.8946 107.122 92.915C107.63 93.9749 107.916 95.1278 107.961 96.3025C108.006 97.4771 107.809 98.6484 107.384 99.7441Z" fill="white"/>
</svg>
