<svg width="32" height="32" viewBox="0 0 45 45" fill="black" xmlns="http://www.w3.org/2000/svg">
<g clip-path="url(#clip0_3460_48)">
<path d="M8.53292e-07 22.5C-0.000963679 20.0227 0.815802 17.6143 2.32354 15.6486C3.83129 13.683 5.94569 12.27 8.33861 11.6289C10.7315 10.9878 13.2692 11.1544 15.5577 12.103C17.8462 13.0516 19.7576 14.729 20.9953 16.875H39.375C39.5598 16.8747 39.7428 16.9108 39.9137 16.9812C40.0845 17.0517 40.2398 17.1551 40.3706 17.2856L44.5894 21.5044C44.7203 21.635 44.8242 21.7902 44.8951 21.961C44.966 22.1319 45.0025 22.315 45.0025 22.5C45.0025 22.685 44.966 22.8681 44.8951 23.039C44.8242 23.2098 44.7203 23.365 44.5894 23.4956L40.3706 27.7144C40.24 27.8453 40.0848 27.9492 39.914 28.0201C39.7431 28.091 39.56 28.1275 39.375 28.1275C39.19 28.1275 39.0069 28.091 38.836 28.0201C38.6652 27.9492 38.51 27.8453 38.3794 27.7144L36.5625 25.8947L34.7456 27.7144C34.615 27.8453 34.4598 27.9492 34.289 28.0201C34.1181 28.091 33.935 28.1275 33.75 28.1275C33.565 28.1275 33.3819 28.091 33.211 28.0201C33.0402 27.9492 32.885 27.8453 32.7544 27.7144L30.9375 25.8947L29.1206 27.7144C28.99 27.8453 28.8348 27.9492 28.664 28.0201C28.4931 28.091 28.31 28.1275 28.125 28.1275C27.94 28.1275 27.7569 28.091 27.586 28.0201C27.4152 27.9492 27.26 27.8453 27.1294 27.7144L25.3125 25.8947L23.4956 27.7144C23.3648 27.8449 23.2095 27.9483 23.0387 28.0188C22.8678 28.0892 22.6848 28.1253 22.5 28.125H20.9953C19.7576 30.271 17.8462 31.9484 15.5577 32.897C13.2692 33.8456 10.7315 34.0122 8.33861 33.3711C5.94569 32.73 3.83129 31.317 2.32354 29.3513C0.815802 27.3857 -0.000963679 24.9773 8.53292e-07 22.5ZM11.25 14.0625C9.74008 14.0631 8.25798 14.4688 6.95832 15.2374C5.65865 16.006 4.58904 17.1092 3.86108 18.4321C3.13311 19.7549 2.77346 21.2489 2.81965 22.7581C2.86584 24.2673 3.31617 25.7365 4.12366 27.0123C4.93116 28.2882 6.06623 29.324 7.41046 30.0116C8.75469 30.6993 10.2588 31.0137 11.766 30.9219C13.2731 30.8301 14.728 30.3356 15.9788 29.49C17.2297 28.6443 18.2308 27.4784 18.8775 26.1141C18.9917 25.8743 19.1714 25.6718 19.3959 25.53C19.6204 25.3881 19.8804 25.3127 20.1459 25.3125H21.9178L24.3169 22.9106C24.4475 22.7797 24.6027 22.6758 24.7735 22.6049C24.9444 22.534 25.1275 22.4975 25.3125 22.4975C25.4975 22.4975 25.6806 22.534 25.8515 22.6049C26.0223 22.6758 26.1775 22.7797 26.3081 22.9106L28.125 24.7303L29.9419 22.9106C30.0725 22.7797 30.2277 22.6758 30.3985 22.6049C30.5694 22.534 30.7525 22.4975 30.9375 22.4975C31.1225 22.4975 31.3056 22.534 31.4765 22.6049C31.6473 22.6758 31.8025 22.7797 31.9331 22.9106L33.75 24.7303L35.5669 22.9106C35.6975 22.7797 35.8527 22.6758 36.0235 22.6049C36.1944 22.534 36.3775 22.4975 36.5625 22.4975C36.7475 22.4975 36.9306 22.534 37.1015 22.6049C37.2723 22.6758 37.4275 22.7797 37.5581 22.9106L39.375 24.7303L41.6053 22.5L38.7928 19.6875H20.1459C19.8804 19.6873 19.6204 19.6119 19.3959 19.47C19.1714 19.3282 18.9917 19.1257 18.8775 18.8859C18.1932 17.4423 17.1131 16.2226 15.7628 15.3687C14.4126 14.5149 12.8476 14.0619 11.25 14.0625Z" fill="black"/>
<path d="M11.25 22.5C11.25 23.2459 10.9537 23.9613 10.4262 24.4887C9.89879 25.0162 9.18342 25.3125 8.4375 25.3125C7.69158 25.3125 6.97621 25.0162 6.44876 24.4887C5.92132 23.9613 5.625 23.2459 5.625 22.5C5.625 21.7541 5.92132 21.0387 6.44876 20.5113C6.97621 19.9838 7.69158 19.6875 8.4375 19.6875C9.18342 19.6875 9.89879 19.9838 10.4262 20.5113C10.9537 21.0387 11.25 21.7541 11.25 22.5Z" fill="black"/>
</g>
<defs>
<clipPath id="clip0_3460_48">
<rect width="45" height="45" fill="black"/>
</clipPath>
</defs>
</svg>
