<svg width="142" height="141" viewBox="0 0 142 141" fill="none" xmlns="http://www.w3.org/2000/svg">
<path fill-rule="evenodd" clip-rule="evenodd" d="M129.964 70.5C129.964 102.947 103.661 129.25 71.2143 129.25C38.7676 129.25 12.4643 102.947 12.4643 70.5C12.4643 38.0533 38.7676 11.75 71.2143 11.75C103.661 11.75 129.964 38.0533 129.964 70.5ZM73.3195 55.1219C67.6052 57.4987 56.1846 62.418 39.0578 69.8799C36.2767 70.9859 34.8198 72.0678 34.6872 73.1257C34.4631 74.9137 36.7021 75.6177 39.751 76.5764C40.1657 76.7068 40.5954 76.842 41.036 76.9852C44.0356 77.9602 48.0707 79.101 50.1684 79.1463C52.0712 79.1874 54.1949 78.4029 56.5396 76.7929C72.5417 65.991 80.8021 60.5312 81.3207 60.4135C81.6866 60.3305 82.1936 60.2261 82.5371 60.5314C82.8806 60.8367 82.8468 61.415 82.8105 61.5701C82.5887 62.5157 73.7998 70.6866 69.2516 74.915C67.8337 76.2333 66.8279 77.1683 66.6223 77.3819C66.1617 77.8602 65.6923 78.3127 65.2412 78.7476C62.4544 81.4341 60.3646 83.4487 65.3569 86.7386C67.7559 88.3195 69.6756 89.6268 71.5908 90.9311C73.6825 92.3555 75.7687 93.7762 78.4679 95.5456C79.1556 95.9963 79.8124 96.4646 80.4521 96.9206C82.8862 98.6559 85.0731 100.215 87.7748 99.9663C89.3446 99.8219 90.9662 98.3457 91.7898 93.9431C93.7361 83.5384 97.5617 60.9946 98.4459 51.7048C98.5233 50.8909 98.4259 49.8493 98.3476 49.392C98.2694 48.9348 98.1059 48.2833 97.5115 47.801C96.8076 47.2299 95.7209 47.1094 95.2349 47.118C93.0252 47.1569 89.635 48.3357 73.3195 55.1219Z" fill="black"/>
</svg>
