<svg width="138" height="160" viewBox="0 0 138 160" fill="none" xmlns="http://www.w3.org/2000/svg">
<path d="M55.5847 6.97329L11.4773 33.7248C4.6459 37.8681 0.473877 45.2779 0.473877 53.2676V106.903C0.473877 114.91 4.66419 122.334 11.5197 126.471L55.2152 152.844C62.5033 157.242 71.632 157.226 78.9046 152.802L127.028 123.527C133.845 119.38 138.006 111.979 138.006 104V53.6854C138.006 45.471 133.598 37.8884 126.46 33.8236L78.7477 6.65429C71.5407 2.55027 62.676 2.67235 55.5847 6.97329Z" fill="#5E3ADA"/>
<path d="M79.1503 66.217V73.9336H68.6738V105.757H59.0422V73.9336H48.5657V66.217H79.1503ZM96.7699 106.208C94.0288 106.208 91.588 105.739 89.4476 104.8C87.3073 103.861 85.6175 102.584 84.3784 100.97C83.1392 99.3175 82.4445 97.4775 82.2943 95.4498H91.8133C91.926 96.5388 92.4329 97.4212 93.3341 98.0971C94.2353 98.773 95.343 99.111 96.6573 99.111C97.8589 99.111 98.7789 98.8856 99.4172 98.435C100.093 97.9469 100.431 97.3273 100.431 96.5763C100.431 95.6751 99.9617 95.018 99.0229 94.6049C98.0842 94.1543 96.5634 93.6662 94.4606 93.1405C92.2076 92.6148 90.3301 92.0703 88.8281 91.507C87.3261 90.9062 86.0306 89.9863 84.9416 88.7471C83.8527 87.4704 83.3082 85.7619 83.3082 83.6215C83.3082 81.8191 83.7964 80.1857 84.7727 78.7212C85.7865 77.2192 87.251 76.0364 89.166 75.1727C91.1186 74.3091 93.428 73.8773 96.094 73.8773C100.037 73.8773 103.135 74.8536 105.388 76.8062C107.678 78.7588 108.992 81.3497 109.33 84.579H100.431C100.281 83.4901 99.7927 82.6264 98.9666 81.9881C98.1781 81.3497 97.1266 81.0306 95.8124 81.0306C94.6859 81.0306 93.8222 81.2559 93.2214 81.7065C92.6206 82.1195 92.3202 82.7015 92.3202 83.4525C92.3202 84.3537 92.7896 85.0297 93.7284 85.4803C94.7047 85.9309 96.2067 86.3815 98.2344 86.8321C100.562 87.4329 102.459 88.0337 103.923 88.6345C105.388 89.1977 106.664 90.1365 107.753 91.4507C108.88 92.7274 109.462 94.4547 109.499 96.6326C109.499 98.4726 108.974 100.125 107.922 101.589C106.908 103.016 105.425 104.143 103.473 104.969C101.558 105.795 99.3233 106.208 96.7699 106.208Z" fill="white"/>
</svg>
