<svg width="100" height="66" viewBox="0 0 100 66" fill="none" xmlns="http://www.w3.org/2000/svg">
<path d="M49.9781 0.330994V12.9072H32.9038V64.7725H17.2066V12.9072H0.132326V0.330994H49.9781ZM78.694 65.5068C74.2266 65.5068 70.2487 64.7419 66.7604 63.2119C63.2721 61.682 60.5182 59.6012 58.4987 56.9697C56.4792 54.277 55.347 51.2783 55.1022 47.9736H70.6159C70.7995 49.7484 71.6257 51.1865 73.0944 52.2881C74.5632 53.3896 76.3685 53.9404 78.5104 53.9404C80.4688 53.9404 81.9681 53.5732 83.0085 52.8389C84.11 52.0433 84.6608 51.0335 84.6608 49.8096C84.6608 48.3408 83.8959 47.2698 82.3659 46.5967C80.836 45.8623 78.3574 45.0667 74.9304 44.2099C71.2585 43.3532 68.1986 42.4658 65.7507 41.5478C63.3027 40.5687 61.1914 39.0693 59.4167 37.0498C57.6419 34.969 56.7546 32.1845 56.7546 28.6963C56.7546 25.7588 57.5501 23.0966 59.1413 20.7099C60.7936 18.262 63.1803 16.3343 66.3014 14.9267C69.4837 13.5192 73.2474 12.8154 77.5925 12.8154C84.0183 12.8154 89.0671 14.4065 92.739 17.5888C96.472 20.7711 98.614 24.9938 99.1648 30.2568H84.6608C84.416 28.4821 83.6205 27.0745 82.2741 26.0341C80.989 24.9938 79.2754 24.4736 77.1335 24.4736C75.2975 24.4736 73.89 24.8408 72.9108 25.5752C71.9317 26.2483 71.4421 27.1969 71.4421 28.4209C71.4421 29.8896 72.207 30.9912 73.737 31.7256C75.3281 32.4599 77.7761 33.1943 81.0808 33.9287C84.875 34.9078 87.9655 35.887 90.3522 36.8662C92.739 37.7842 94.8197 39.3141 96.5944 41.456C98.4304 43.5368 99.3789 46.3519 99.4401 49.9014C99.4401 52.9001 98.5834 55.5928 96.8698 57.9795C95.2175 60.305 92.8002 62.1409 89.6179 63.4873C86.4968 64.8337 82.8555 65.5068 78.694 65.5068Z" fill="white"/>
</svg>
