<svg width="29" height="23" viewBox="0 0 29 23" fill="none" xmlns="http://www.w3.org/2000/svg">
<path d="M3.625 0.625C2.66359 0.625 1.74156 1.00692 1.06174 1.68674C0.381919 2.36656 0 3.28859 0 4.25L0 18.75C0 19.7114 0.381919 20.6334 1.06174 21.3133C1.74156 21.9931 2.66359 22.375 3.625 22.375H25.375C26.3364 22.375 27.2584 21.9931 27.9383 21.3133C28.6181 20.6334 29 19.7114 29 18.75V4.25C29 3.28859 28.6181 2.36656 27.9383 1.68674C27.2584 1.00692 26.3364 0.625 25.375 0.625H3.625ZM1.8125 4.25C1.8125 3.76929 2.00346 3.30828 2.34337 2.96837C2.68328 2.62846 3.14429 2.4375 3.625 2.4375H25.375C25.8557 2.4375 26.3167 2.62846 26.6566 2.96837C26.9965 3.30828 27.1875 3.76929 27.1875 4.25V18.75C27.1875 19.2307 26.9965 19.6917 26.6566 20.0316C26.3167 20.3715 25.8557 20.5625 25.375 20.5625H16.24C16.2883 20.2665 16.3125 19.9644 16.3125 19.6562C16.3125 16.1527 13.0681 13.3125 9.0625 13.3125C5.28163 13.3125 2.175 15.8464 1.8415 19.0781C1.8219 18.9698 1.81219 18.86 1.8125 18.75V4.25Z" fill="#4A4A4A"/>
</svg>
