<svg width="142" height="141" viewBox="0 0 142 141" fill="none" xmlns="http://www.w3.org/2000/svg">
<path d="M71.0076 19.3315C41.9844 19.3315 18.3646 42.0814 18.3544 70.0404C18.3475 78.9814 20.7764 87.7075 25.3816 95.3931L17.9109 121.67L45.8255 114.619C53.5903 118.681 62.2241 120.8 70.9872 120.794H71.0076C100.031 120.794 123.651 98.0402 123.661 70.0813C123.668 56.5385 118.196 43.7905 108.252 34.2082C98.3116 24.6225 85.0928 19.335 71.0076 19.3315ZM71.0076 112.228H70.9906C63.1378 112.228 55.4351 110.195 48.7148 106.354L47.1115 105.439L30.5531 109.622L34.9742 94.0661L33.9337 92.473C29.5635 85.8079 27.2371 78.0105 27.2408 70.0404C27.251 46.7993 46.8864 27.8973 71.0247 27.8973C82.7118 27.9007 93.6995 32.291 101.965 40.2564C110.231 48.2218 114.778 58.8138 114.771 70.0779C114.761 93.319 95.1289 112.228 71.0042 112.228H71.0076ZM95.0129 80.6563C93.6961 80.0252 87.2283 76.9585 86.0207 76.5321C84.8165 76.1125 83.9398 75.8941 83.0631 77.1631C82.1898 78.4321 79.6655 81.2874 78.9013 82.13C78.1304 82.976 77.3629 83.0783 76.0461 82.4472C74.7293 81.8127 70.4891 80.4755 65.4677 76.1568C61.5549 72.8001 58.9146 68.652 58.1471 67.3796C57.3795 66.114 58.0652 65.4283 58.7236 64.7972C59.3137 64.2344 60.0403 63.3201 60.6953 62.5799C61.3503 61.8396 61.5686 61.3109 62.012 60.4649C62.4487 59.6223 62.2304 58.8786 61.8995 58.2475C61.5686 57.6096 58.9419 51.3738 57.84 48.8392C56.7757 46.3694 55.6909 46.7003 54.8825 46.6594C54.1149 46.6253 53.2416 46.615 52.3581 46.615C51.4882 46.615 50.0589 46.9323 48.8513 48.2013C47.6471 49.4703 44.246 52.5336 44.246 58.7695C44.246 65.0087 48.9605 71.0331 49.6188 71.8791C50.2772 72.7217 58.8975 85.5242 72.0958 91.0164C75.2342 92.3161 77.6835 93.0973 79.5972 93.684C82.7493 94.6494 85.6182 94.5096 87.8833 94.1855C90.4076 93.8205 95.6678 91.1221 96.7595 88.1646C97.8579 85.207 97.8579 82.669 97.5304 82.1402C97.2097 81.6115 96.3296 81.2942 95.0129 80.6563V80.6563Z" fill="#4A4A4A"/>
</svg>
