<svg width="41" height="41" viewBox="0 0 41 41" fill="none" xmlns="http://www.w3.org/2000/svg">
<path d="M20.5667 5.62158C12.1263 5.62158 5.25743 12.2375 5.25445 20.3683C5.25247 22.9685 5.95881 25.5061 7.29806 27.7412L5.12549 35.3829L13.2434 33.3324C15.5015 34.5136 18.0123 35.1297 20.5607 35.128H20.5667C29.007 35.128 35.8759 28.511 35.8789 20.3802C35.8808 16.4418 34.2896 12.7345 31.3978 9.94789C28.507 7.16024 24.6628 5.62257 20.5667 5.62158ZM20.5667 32.6369H20.5617C18.278 32.6369 16.038 32.0457 14.0836 30.9286L13.6174 30.6628L8.802 31.879L10.0877 27.3553L9.78512 26.892C8.51422 24.9537 7.83767 22.6861 7.83873 20.3683C7.8417 13.6095 13.5519 8.1126 20.5716 8.1126C23.9704 8.1136 27.1657 9.39036 29.5695 11.7068C31.9732 14.0232 33.2956 17.1035 33.2936 20.3792C33.2906 27.138 27.5814 32.6369 20.5657 32.6369H20.5667ZM27.5477 23.4556C27.1647 23.272 25.2838 22.3802 24.9326 22.2562C24.5824 22.1342 24.3275 22.0707 24.0725 22.4397C23.8186 22.8087 23.0845 23.6391 22.8622 23.8841C22.638 24.1301 22.4148 24.1599 22.0319 23.9764C21.649 23.7919 20.4159 23.403 18.9556 22.1471C17.8177 21.1709 17.0499 19.9646 16.8266 19.5945C16.6034 19.2265 16.8028 19.0271 16.9943 18.8435C17.1659 18.6799 17.3772 18.414 17.5677 18.1987C17.7582 17.9834 17.8217 17.8297 17.9506 17.5836C18.0776 17.3386 18.0141 17.1223 17.9179 16.9388C17.8217 16.7533 17.0578 14.9399 16.7374 14.2028C16.4278 13.4845 16.1124 13.5808 15.8773 13.5688C15.6541 13.5589 15.4001 13.556 15.1431 13.556C14.8902 13.556 14.4745 13.6482 14.1233 14.0173C13.7731 14.3863 12.7841 15.2771 12.7841 17.0906C12.7841 18.9051 14.1551 20.657 14.3465 20.903C14.538 21.1481 17.0449 24.8712 20.8831 26.4684C21.7958 26.8464 22.5081 27.0735 23.0646 27.2442C23.9813 27.5249 24.8156 27.4843 25.4743 27.39C26.2084 27.2839 27.7381 26.4992 28.0556 25.639C28.375 24.7789 28.375 24.0409 28.2798 23.8871C28.1865 23.7333 27.9306 23.6411 27.5477 23.4556Z" fill="#1BA55B"/>
</svg>
