<svg width="97" height="97" viewBox="0 0 97 97" fill="none" xmlns="http://www.w3.org/2000/svg">
<rect width="97" height="97" fill="#000080"/>
<path d="M70.6 52.2938C70.54 58.2877 68.5 63.5024 64.54 67.878C61 71.7741 56.68 74.2316 51.58 75.0108C48.1 75.5503 44.74 75.0108 41.5 73.6322C35.44 70.9949 31.12 66.4395 28.72 59.966C27.82 57.6284 27.46 55.1708 27.4 52.7133V38.3878C27.4 33.4728 27.46 28.6177 27.4 23.7026C27.4 22.9834 27.46 22.7436 28.24 22.8635C34.18 23.6427 39.64 25.6207 44.62 29.0972C46.12 30.1761 45.82 29.9363 44.8 31.1351C41.26 35.4508 38.14 40.0661 36.94 45.7603C35.92 50.6154 36.64 55.1708 39.58 59.1868C41.56 61.8841 44.14 63.4425 47.32 63.922C54.1 64.941 59.8 60.0259 61.18 52.8931C61.9 48.7573 61.18 44.8613 59.56 41.0851C57.88 37.2489 55.48 33.8324 52.78 30.7155C52.18 29.9963 52.18 29.9963 52.96 29.3969C57.64 25.9803 62.86 23.9424 68.44 23.0433C69.04 22.9234 69.58 22.9234 70.12 22.8035C70.48 22.7436 70.6 22.8635 70.6 23.2231V52.2938ZM49.6 32.6935C52.78 36.4697 55.6 40.4257 56.92 45.3408C58 49.1769 57.76 52.8931 55.36 56.1898C51.76 61.2247 44.62 60.5654 41.8 54.991C40.9 53.1928 40.42 51.2748 40.48 49.5965C40.42 45.8802 41.62 42.9432 43.12 40.126C44.56 37.4288 46.36 35.0312 48.34 32.7535C48.82 32.214 49.06 32.1541 49.6 32.6935Z" fill="white"/>
</svg>
