<svg width="97" height="97" viewBox="0 0 97 97" fill="none" xmlns="http://www.w3.org/2000/svg">
<rect width="97" height="97" fill="#ECAC22"/>
<g clip-path="url(#clip0_3025_45)">
<path d="M48.5 80.25C62.7887 80.25 74.375 68.6637 74.375 54.375C60.0863 54.375 48.5 65.9613 48.5 80.25ZM30.1 46.4688C30.1 50.4363 33.32 53.6562 37.2875 53.6562C38.8113 53.6562 40.1913 53.1963 41.37 52.3913L41.3125 52.9375C41.3125 56.905 44.5325 60.125 48.5 60.125C52.4675 60.125 55.6875 56.905 55.6875 52.9375L55.63 52.3913C56.78 53.1963 58.1887 53.6562 59.7125 53.6562C63.68 53.6562 66.9 50.4363 66.9 46.4688C66.9 43.5938 65.2037 41.15 62.7887 40C65.2037 38.85 66.9 36.4062 66.9 33.5312C66.9 29.5638 63.68 26.3438 59.7125 26.3438C58.1887 26.3438 56.8088 26.8038 55.63 27.6088L55.6875 27.0625C55.6875 23.095 52.4675 19.875 48.5 19.875C44.5325 19.875 41.3125 23.095 41.3125 27.0625L41.37 27.6088C40.22 26.8038 38.8113 26.3438 37.2875 26.3438C33.32 26.3438 30.1 29.5638 30.1 33.5312C30.1 36.4062 31.7963 38.85 34.2113 40C31.7963 41.15 30.1 43.5938 30.1 46.4688ZM48.5 32.8125C52.4675 32.8125 55.6875 36.0325 55.6875 40C55.6875 43.9675 52.4675 47.1875 48.5 47.1875C44.5325 47.1875 41.3125 43.9675 41.3125 40C41.3125 36.0325 44.5325 32.8125 48.5 32.8125ZM22.625 54.375C22.625 68.6637 34.2113 80.25 48.5 80.25C48.5 65.9613 36.9137 54.375 22.625 54.375Z" fill="white"/>
</g>
<defs>
<clipPath id="clip0_3025_45">
<rect width="69" height="69" fill="white" transform="translate(14 17)"/>
</clipPath>
</defs>
</svg>
