<svg id="Capa_1" data-name="Capa 1" xmlns="http://www.w3.org/2000/svg" xmlns:xlink="http://www.w3.org/1999/xlink" viewBox="0 0 1080 1080"><defs><style>.cls-1{fill:url(#Degradado_sin_nombre_149);}.cls-2{fill:url(#Degradado_sin_nombre_149-2);}.cls-3{fill:url(#Degradado_sin_nombre_149-3);}.cls-4{fill:#373435;}</style><linearGradient id="Degradado_sin_nombre_149" x1="516.42" y1="531.57" x2="563.26" y2="653.61" gradientUnits="userSpaceOnUse"><stop offset="0.04" stop-color="#152f5e"/><stop offset="0.09" stop-color="#2f5681"/><stop offset="0.2" stop-color="#6fb9d8"/><stop offset="0.25" stop-color="#8ce5fe"/><stop offset="0.31" stop-color="#81d8fc"/><stop offset="0.5" stop-color="#65b6f8"/><stop offset="0.69" stop-color="#519ef5"/><stop offset="0.86" stop-color="#448ff4"/><stop offset="1" stop-color="#408af3"/></linearGradient><linearGradient id="Degradado_sin_nombre_149-2" x1="464.99" y1="295.44" x2="598.76" y2="643.93" xlink:href="#Degradado_sin_nombre_149"/><linearGradient id="Degradado_sin_nombre_149-3" x1="442.46" y1="193.74" x2="649.94" y2="734.24" xlink:href="#Degradado_sin_nombre_149"/></defs><title>campuslands</title><path class="cls-1" d="M712.73,589.77s-61.13,27.69-179.66,27.69c-94.94,0-168.28-27.69-168.28-27.69s68.39,44.79,170.4,42.83C675,629.92,712.73,589.77,712.73,589.77Z"/><path class="cls-2" d="M447.67,321.3c35.65-12.18,72.61-14.31,101.58-15.09,84-2.27,154.17,50.48,166.07,66.34,15.19,20.25,29,66.84,31.84,106.94,4.1,58.25-7.31,110.28-7.31,110.28S766,541.82,758.48,456.36c-5.87-66.91-45.75-105-45.75-105s-68.3-67.54-164.31-67.54c-130.06,0-195,82.43-195,82.43s-29.64,37.31-33.54,93.95c-5.66,82.13,19.26,129.6,19.26,129.6-7.85-50.27-21.47-126.61,24.08-215.71C369.33,362.11,409.44,334.36,447.67,321.3Z"/><path class="cls-3" d="M868.28,435.08C863,387.51,817.51,381,814,380.58c-8.35-23.32-18.86-45.86-29.26-61.88-10.93-16.83-28.7-41.12-50.49-62.17-19.93-19.24-43.69-35.55-59.13-45.46C644.9,191.66,576,173.33,532,175.79c-54.87,3.08-118.43,15.08-196.26,89.26-26.72,25.48-52.64,67.47-69.92,115.56-4.68.61-48.9,7.63-54.06,54.47-6.59,59.76,28.89,67.54,34.63,68.41a254.14,254.14,0,0,0,4.33,42c6.68,33.76,24.59,85,40.74,112.94,3.53,6.09,14.76,27.76,21.15,30.72,3.3,1.53,168.85-.25,168.85-.25l-161.61-20.8a434.51,434.51,0,0,1-35.23-64.36c-14.2-32.48-21.88-72.31-24.27-93.81-3.55-32-2.63-62.57,6.49-99.92,9-36.79,29-75,36.36-84.48,22.67-29.38,61.21-53.65,83.17-63.41,63.73-28.32,119.51-33.82,160.46-33.16C660.06,230.85,744.2,281.63,776.56,326c14.93,20.45,34.15,66.75,40.36,103.57a294.81,294.81,0,0,1-1.22,104.69c-2.73,14.61-8.63,42.64-19.85,68.41-15.12,34.74-36.08,66.51-36.08,66.51L598,689H752.32s14.86.31,15.6,0c3.54-1.5,22.46-32.83,22.46-32.83s19.61-41.57,25.74-59a291.26,291.26,0,0,0,17.07-93.6C837.06,503.07,875.08,496.77,868.28,435.08ZM253.5,422c-4.12,17.59-8,49-7.16,81.06-4.08-2.73-22.43-17.42-19.32-58.59,4.06-53.76,34.78-62.89,38.74-63.85A376.71,376.71,0,0,0,253.5,422Zm579.69,81.36c.37-19.22-.93-38.41-3.08-58.49-2-18.78-8.05-41.9-16.07-64.29,3,.67,34.81,9.13,38.94,63.89C856.23,487.58,836,501.66,833.19,503.39Z"/><path class="cls-4" d="M201.08,805a23.81,23.81,0,0,1,5.45-7.45,25.68,25.68,0,0,1,8.07-5,26.7,26.7,0,0,1,9.86-1.83,26.33,26.33,0,0,1,9.86,1.83,24.08,24.08,0,0,1,7.82,5,23.08,23.08,0,0,1,6.94,16.6v5.49a3,3,0,0,1-.54,2.16,2.19,2.19,0,0,1-1.54.5h-9.07a3.52,3.52,0,0,1-2.08-.5q-.66-.49-.66-2.16v-5.08a10.87,10.87,0,0,0-.75-4,10.25,10.25,0,0,0-5.38-5.7,10.1,10.1,0,0,0-4.23-.87,10.35,10.35,0,0,0-4.27.87,11.69,11.69,0,0,0-3.4,2.29,10.49,10.49,0,0,0-2.28,3.33,9.93,9.93,0,0,0-.82,4v40.6a10,10,0,0,0,.82,4,11.14,11.14,0,0,0,2.28,3.37,11.42,11.42,0,0,0,3.4,2.33,10.35,10.35,0,0,0,4.27.87,9.88,9.88,0,0,0,7.5-3.25,10.61,10.61,0,0,0,2.11-3.41,10.79,10.79,0,0,0,.75-4v-4.08a2.89,2.89,0,0,1,.58-2.12,2.49,2.49,0,0,1,1.75-.54h9.4a2.36,2.36,0,0,1,1.58.5,2.73,2.73,0,0,1,.58,2.08v4.58A22.85,22.85,0,0,1,242.14,872a23.92,23.92,0,0,1-7.82,5,26.13,26.13,0,0,1-9.86,1.83,27.5,27.5,0,0,1-9.86-1.75,25.09,25.09,0,0,1-8.07-4.87,22.73,22.73,0,0,1-5.45-7.4,22.09,22.09,0,0,1-2-9.44V814.07A21,21,0,0,1,201.08,805Z"/><path class="cls-4" d="M260.82,803.76a3.26,3.26,0,0,1-.55-2.29,4.07,4.07,0,0,1,1.54-2.62,45.39,45.39,0,0,1,4-3,26,26,0,0,1,5-2.62,36.46,36.46,0,0,1,6.15-1.83,36.92,36.92,0,0,1,7.53-.71,27,27,0,0,1,9.79,1.79,24.78,24.78,0,0,1,8.1,5,23.42,23.42,0,0,1,5.48,7.78,24.22,24.22,0,0,1,2,9.94v39.94a23.87,23.87,0,0,1-1.29,8.19,21.07,21.07,0,0,1-3.46,6.2A21.51,21.51,0,0,1,300.2,874a29.77,29.77,0,0,1-15.88,4.87,30,30,0,0,1-9-1.42,24.56,24.56,0,0,1-8.25-4.41,22.63,22.63,0,0,1-6-7.61,24.12,24.12,0,0,1-2.34-11V851a30.77,30.77,0,0,1,1.83-11,21.19,21.19,0,0,1,5.24-8,22.32,22.32,0,0,1,8.2-4.82,31.66,31.66,0,0,1,10.69-1.54h10.23V815.16a13.18,13.18,0,0,0-.58-3.79,10.62,10.62,0,0,0-1.91-3.62,10.21,10.21,0,0,0-3.5-2.74,11.81,11.81,0,0,0-5.32-1.09,21.88,21.88,0,0,0-9.53,1.83,22.75,22.75,0,0,0-5.86,3.83,2.72,2.72,0,0,1-1.92.92,2.11,2.11,0,0,1-1.74-1.09Zm34,32.86h-6.65a19.66,19.66,0,0,0-7.36,1.17,10.59,10.59,0,0,0-4.46,3.16,11.32,11.32,0,0,0-2.16,4.62,25.28,25.28,0,0,0-.58,5.53v3.08a12.71,12.71,0,0,0,1,5.16,10.39,10.39,0,0,0,2.49,3.57,9.75,9.75,0,0,0,3.45,2.08,11.26,11.26,0,0,0,3.75.67,11.78,11.78,0,0,0,3.53-.58,9.53,9.53,0,0,0,3.42-1.92,10.6,10.6,0,0,0,2.57-3.45,11.64,11.64,0,0,0,1-5.2Z"/><path class="cls-4" d="M390.44,814.74a19.61,19.61,0,0,0-.33-3.37,10.27,10.27,0,0,0-1.29-3.49,8.3,8.3,0,0,0-2.66-2.75,8,8,0,0,0-4.45-1.12,9.65,9.65,0,0,0-3.66.7,10.32,10.32,0,0,0-3.16,2,10.46,10.46,0,0,0-2.33,3.33,11.34,11.34,0,0,0-1,4.49v60.16c0,1.77-.75,2.66-2.25,2.66H358.83a2.05,2.05,0,0,1-1.63-.71,2.87,2.87,0,0,1-.62-1.95V814.16a18.56,18.56,0,0,0-.5-3.29,11,11,0,0,0-1.37-3.33,8,8,0,0,0-2.54-2.53,7.15,7.15,0,0,0-3.91-1,9.27,9.27,0,0,0-3.74.79,11,11,0,0,0-3.29,2.2,11.78,11.78,0,0,0-2.41,3.41,11,11,0,0,0-1,4.5v59.4a2.76,2.76,0,0,1-1,2.33,3.05,3.05,0,0,1-1.87.75h-9.9a2.07,2.07,0,0,1-1.58-.71,2.7,2.7,0,0,1-.67-1.95v-80a2.46,2.46,0,0,1,.71-1.95,2.36,2.36,0,0,1,1.62-.63h6.49a3.56,3.56,0,0,1,2,.54,2.86,2.86,0,0,1,1,2l.75,3.08a26.25,26.25,0,0,1,7.19-5.12,20.13,20.13,0,0,1,8.87-2,25.52,25.52,0,0,1,3.57.3,18.56,18.56,0,0,1,4.29,1.16,17.13,17.13,0,0,1,8.19,7,24.75,24.75,0,0,1,7.82-6.16,22,22,0,0,1,10-2.25,29.63,29.63,0,0,1,3.08.21,18.75,18.75,0,0,1,4.16,1,19.92,19.92,0,0,1,4.53,2.33,15.47,15.47,0,0,1,4.12,4.24,23.92,23.92,0,0,1,3,6.74,35.91,35.91,0,0,1,1.16,9.78v59.74c0,1.77-.75,2.66-2.25,2.66H392.61c-1.45,0-2.17-.89-2.17-2.66Z"/><path class="cls-4" d="M419.4,794.85a3,3,0,0,1,.58-1.91,2.18,2.18,0,0,1,1.83-.75h6.66a2.53,2.53,0,0,1,1.87.63,4.65,4.65,0,0,1,1,2.37l.33,3.16a24.53,24.53,0,0,1,7.4-5.58,21.62,21.62,0,0,1,25.3,4.87,23.22,23.22,0,0,1,4.53,7.53,25.92,25.92,0,0,1,1.62,9.15v40.86a27.05,27.05,0,0,1-1.49,9,22.4,22.4,0,0,1-4.37,7.53,21.47,21.47,0,0,1-6.95,5.2,21.9,21.9,0,0,1-16.68.59,25.85,25.85,0,0,1-6.61-3.79v28.12c0,1.72-.81,2.58-2.42,2.58H421.81c-1.61,0-2.41-.86-2.41-2.58Zm15,60.66a10.89,10.89,0,0,0,.87,3.87,9.74,9.74,0,0,0,2.2,3.24,11.25,11.25,0,0,0,3.33,2.21,10.4,10.4,0,0,0,4.16.83,10.19,10.19,0,0,0,4.25-.87,11,11,0,0,0,3.32-2.33,10.58,10.58,0,0,0,3-7.45V814.49a10.25,10.25,0,0,0-.79-4,10.48,10.48,0,0,0-2.21-3.37,10.87,10.87,0,0,0-3.32-2.33,10.58,10.58,0,0,0-8.45,0,10.74,10.74,0,0,0-3.37,2.33,10.46,10.46,0,0,0-2.2,3.37,10.25,10.25,0,0,0-.79,4Z"/><path class="cls-4" d="M497.86,854.93a12.86,12.86,0,0,0,.79,4,10.53,10.53,0,0,0,2,3.41A9.42,9.42,0,0,0,504,864.7a10.71,10.71,0,0,0,4.45.88,9.67,9.67,0,0,0,3.92-.84,11.34,11.34,0,0,0,3.37-2.24,11.69,11.69,0,0,0,2.37-3.37,10.48,10.48,0,0,0,1-4.12V795.19a2.68,2.68,0,0,1,1-2.25,3.05,3.05,0,0,1,1.87-.75h9.91a2.14,2.14,0,0,1,1.53.71,2.6,2.6,0,0,1,.71,2v80a2.31,2.31,0,0,1-.75,1.88,2.56,2.56,0,0,1-1.66.62h-6.49a3.19,3.19,0,0,1-1.87-.5,3,3,0,0,1-1-1.83l-.67-3.41a26.3,26.3,0,0,1-7.2,5.24,19.17,19.17,0,0,1-8.61,2,23.81,23.81,0,0,1-9.27-1.75,21,21,0,0,1-7.24-4.91,21.92,21.92,0,0,1-4.7-7.57,27.33,27.33,0,0,1-1.67-9.73V794.77a2.5,2.5,0,0,1,.71-1.91,2.27,2.27,0,0,1,1.62-.67h10.4a2.13,2.13,0,0,1,1.58.67,2.56,2.56,0,0,1,.67,1.91Z"/><path class="cls-4" d="M544.7,853.51c0-1.61,1.08-2.41,3.25-2.41h8.82c1.44,0,2.16.83,2.16,2.5v2.24a9.93,9.93,0,0,0,.83,4,9.61,9.61,0,0,0,2.29,3.2,10.63,10.63,0,0,0,3.41,2.08,11.86,11.86,0,0,0,4.29.75,10.78,10.78,0,0,0,4.11-.79,10.28,10.28,0,0,0,3.42-2.25,10.68,10.68,0,0,0,2.28-3.37,10.21,10.21,0,0,0,.84-4.16,8,8,0,0,0-1.54-4.66,21.31,21.31,0,0,0-4.14-4.24,68.72,68.72,0,0,0-6.09-4.29c-2.32-1.46-4.8-3.12-7.45-4.95a53.84,53.84,0,0,1-6.11-4.32,30.45,30.45,0,0,1-5-5.12,23.49,23.49,0,0,1-3.39-6.24,22.57,22.57,0,0,1-1.25-7.7,23.1,23.1,0,0,1,1.79-9.06,21.91,21.91,0,0,1,5-7.37,23.93,23.93,0,0,1,7.7-4.91,25.82,25.82,0,0,1,9.69-1.79,28.56,28.56,0,0,1,10.28,1.75,22.72,22.72,0,0,1,7.74,4.87,20.58,20.58,0,0,1,4.86,7.45,25.91,25.91,0,0,1,1.67,9.4v2.16a1.62,1.62,0,0,1-.67,1.54,4.41,4.41,0,0,1-2.08.37h-8.57a2.06,2.06,0,0,1-2.33-2.33v-2a10.43,10.43,0,0,0-.79-4.12,10.06,10.06,0,0,0-9.4-6.2,9.72,9.72,0,0,0-4.06.83,9.61,9.61,0,0,0-3.15,2.29,10.19,10.19,0,0,0-2,3.37,11.74,11.74,0,0,0-.7,4.08,9.84,9.84,0,0,0,.74,4.07,10,10,0,0,0,2.45,3.21,31.14,31.14,0,0,0,4.4,3.2q2.7,1.67,6.68,4.08a81.41,81.41,0,0,1,7.8,5.07,39.86,39.86,0,0,1,6.56,6,28.27,28.27,0,0,1,4.53,7.12,20.8,20.8,0,0,1,1.7,8.44,24.06,24.06,0,0,1-1.79,9.36,21.63,21.63,0,0,1-5.12,7.45,23.84,23.84,0,0,1-7.94,5,28.08,28.08,0,0,1-10.2,1.79,32.92,32.92,0,0,1-12-1.92,20.9,20.9,0,0,1-7.86-5.15,19.56,19.56,0,0,1-4.33-7.49,29.5,29.5,0,0,1-1.33-8.9Z"/><path class="cls-4" d="M606.44,765a2.92,2.92,0,0,1,.62-1.91,2.2,2.2,0,0,1,1.79-.75H619a2.2,2.2,0,0,1,1.79.75,2.87,2.87,0,0,1,.62,1.91v91.11a8.52,8.52,0,0,0,1.75,5.7c1.17,1.36,3.16,2,6,2h2.33c1,0,1.69.32,1.91,1a4.84,4.84,0,0,1,.34,1.62V875a3.91,3.91,0,0,1-.09.83,1.3,1.3,0,0,1-.45.75,3.37,3.37,0,0,1-1.13.58,6.35,6.35,0,0,1-2,.25h-4.66a25.83,25.83,0,0,1-7.66-1.08,14.77,14.77,0,0,1-6-3.5,16.27,16.27,0,0,1-3.91-6.32,28.67,28.67,0,0,1-1.41-9.65Z"/><path class="cls-4" d="M644.46,803.76a3.31,3.31,0,0,1-.54-2.29,4,4,0,0,1,1.54-2.62,43.71,43.71,0,0,1,3.95-3,26.35,26.35,0,0,1,5-2.62,36.3,36.3,0,0,1,6.16-1.83,36.92,36.92,0,0,1,7.53-.71,27,27,0,0,1,9.79,1.79,25,25,0,0,1,8.1,5,23.57,23.57,0,0,1,5.48,7.78,24.22,24.22,0,0,1,2,9.94v39.94a23.86,23.86,0,0,1-1.3,8.19,21.28,21.28,0,0,1-3.45,6.2,21.55,21.55,0,0,1-4.88,4.45,28.37,28.37,0,0,1-5.54,2.87,30.14,30.14,0,0,1-10.34,2,30.06,30.06,0,0,1-9-1.42,24.56,24.56,0,0,1-8.25-4.41,22.88,22.88,0,0,1-6-7.61,24.12,24.12,0,0,1-2.33-11V851a30.77,30.77,0,0,1,1.83-11,21.08,21.08,0,0,1,5.24-8,22.2,22.2,0,0,1,8.19-4.82,31.72,31.72,0,0,1,10.7-1.54h10.23V815.16a13.54,13.54,0,0,0-.58-3.79,10.64,10.64,0,0,0-1.92-3.62A10.17,10.17,0,0,0,672.5,805a11.85,11.85,0,0,0-5.33-1.09,21.83,21.83,0,0,0-9.52,1.83,22.83,22.83,0,0,0-5.87,3.83,2.72,2.72,0,0,1-1.91.92,2.12,2.12,0,0,1-1.75-1.09Zm34,32.86h-6.66a19.7,19.7,0,0,0-7.36,1.17A10.55,10.55,0,0,0,660,841a11.07,11.07,0,0,0-2.16,4.62,25.27,25.27,0,0,0-.59,5.53v3.08a12.71,12.71,0,0,0,1,5.16,10.55,10.55,0,0,0,2.5,3.57,9.58,9.58,0,0,0,3.45,2.08,11.16,11.16,0,0,0,3.74.67,11.89,11.89,0,0,0,3.54-.58,9.49,9.49,0,0,0,3.41-1.92,10.48,10.48,0,0,0,2.58-3.45,11.78,11.78,0,0,0,1-5.2Z"/><path class="cls-4" d="M721.42,874.4a2.69,2.69,0,0,1-.95,2.24,3.08,3.08,0,0,1-1.88.75h-9.9a2.12,2.12,0,0,1-1.54-.71,2.63,2.63,0,0,1-.7-1.95v-80a2.31,2.31,0,0,1,.74-1.87,2.54,2.54,0,0,1,1.67-.63h6.49a3.41,3.41,0,0,1,1.91.5,2.69,2.69,0,0,1,1,1.83l.67,3.41a26.37,26.37,0,0,1,7.15-5.24,19.09,19.09,0,0,1,8.65-2,24,24,0,0,1,9.28,1.75,21.3,21.3,0,0,1,7.24,4.91,22.07,22.07,0,0,1,4.7,7.57,27.39,27.39,0,0,1,1.67,9.74v60.15a2.64,2.64,0,0,1-.67,1.92,2.16,2.16,0,0,1-1.58.66H744.89a2.18,2.18,0,0,1-1.59-.66,2.63,2.63,0,0,1-.66-1.92V814.74a13.6,13.6,0,0,0-.79-4,11,11,0,0,0-2-3.45,9.08,9.08,0,0,0-3.24-2.37,11.11,11.11,0,0,0-4.54-.87,9.53,9.53,0,0,0-4,.87,11.48,11.48,0,0,0-3.41,2.37,11.12,11.12,0,0,0-2.37,3.54,10.83,10.83,0,0,0-.88,4.37Z"/><path class="cls-4" d="M820.93,855.43a22.09,22.09,0,0,1-2,9.44,23,23,0,0,1-5.45,7.4,25.11,25.11,0,0,1-8.12,4.87,27.8,27.8,0,0,1-9.9,1.75,28.38,28.38,0,0,1-10.07-1.75,25.06,25.06,0,0,1-8.11-4.87,22.87,22.87,0,0,1-5.45-7.4,22.09,22.09,0,0,1-2-9.44V814.16a23.84,23.84,0,0,1,1.83-9.4,22.21,22.21,0,0,1,12.52-12.32,25.28,25.28,0,0,1,9.44-1.75,21.42,21.42,0,0,1,6.24,1,29.61,29.61,0,0,1,6.08,2.62V765a3,3,0,0,1,.58-1.91,2.18,2.18,0,0,1,1.83-.75h10.07a2.3,2.3,0,0,1,1.87.75,2.92,2.92,0,0,1,.62,1.91Zm-15-40.94a10.44,10.44,0,0,0-.79-4,10.62,10.62,0,0,0-2.2-3.37,10.77,10.77,0,0,0-3.35-2.33,10,10,0,0,0-4.19-.88,10.2,10.2,0,0,0-4.27.88,10.65,10.65,0,0,0-3.35,2.33,10.42,10.42,0,0,0-2.2,3.41,10.6,10.6,0,0,0-.79,4v40.52a10.34,10.34,0,0,0,.79,4,10.57,10.57,0,0,0,2.2,3.37,10.82,10.82,0,0,0,3.35,2.33,10.35,10.35,0,0,0,4.27.87,10.18,10.18,0,0,0,4.19-.87,10.94,10.94,0,0,0,3.35-2.33,10.74,10.74,0,0,0,2.2-3.37,10.53,10.53,0,0,0,.79-4Z"/><path class="cls-4" d="M830.33,853.51c0-1.61,1.09-2.41,3.25-2.41h8.82c1.44,0,2.16.83,2.16,2.5v2.24a9.93,9.93,0,0,0,.83,4,9.61,9.61,0,0,0,2.29,3.2,10.63,10.63,0,0,0,3.41,2.08,11.9,11.9,0,0,0,4.29.75,10.87,10.87,0,0,0,4.12-.79,10.24,10.24,0,0,0,3.41-2.25,10.88,10.88,0,0,0,2.29-3.37,10.37,10.37,0,0,0,.83-4.16,7.88,7.88,0,0,0-1.54-4.66,21.31,21.31,0,0,0-4.14-4.24,68.72,68.72,0,0,0-6.09-4.29c-2.32-1.46-4.8-3.12-7.45-4.95a54.75,54.75,0,0,1-6.11-4.32,31.25,31.25,0,0,1-5-5.12,23.18,23.18,0,0,1-3.38-6.24,22.33,22.33,0,0,1-1.26-7.7,23.1,23.1,0,0,1,1.79-9.06,21.79,21.79,0,0,1,5-7.37,23.78,23.78,0,0,1,7.69-4.91,25.82,25.82,0,0,1,9.69-1.79,28.52,28.52,0,0,1,10.28,1.75,22.72,22.72,0,0,1,7.74,4.87,20.58,20.58,0,0,1,4.86,7.45,25.91,25.91,0,0,1,1.67,9.4v2.16a1.6,1.6,0,0,1-.67,1.54,4.38,4.38,0,0,1-2.08.37h-8.57a2.06,2.06,0,0,1-2.33-2.33v-2a10.61,10.61,0,0,0-.78-4.12,9.93,9.93,0,0,0-5.39-5.41,10.12,10.12,0,0,0-4-.79,9.49,9.49,0,0,0-7.21,3.12,10.19,10.19,0,0,0-2,3.37,11.74,11.74,0,0,0-.7,4.08,8.81,8.81,0,0,0,3.19,7.28,31.14,31.14,0,0,0,4.4,3.2q2.7,1.67,6.69,4.08a81.41,81.41,0,0,1,7.8,5.07,40.68,40.68,0,0,1,6.56,6,28.23,28.23,0,0,1,4.52,7.12,20.8,20.8,0,0,1,1.7,8.44,24.06,24.06,0,0,1-1.79,9.36,21.63,21.63,0,0,1-5.12,7.45,23.74,23.74,0,0,1-7.94,5,28.07,28.07,0,0,1-10.19,1.79,33,33,0,0,1-12-1.92,20.9,20.9,0,0,1-7.86-5.15,19.56,19.56,0,0,1-4.33-7.49,29.82,29.82,0,0,1-1.33-8.9Z"/></svg>