<svg width="1178" height="1260" viewBox="0 0 1178 1260" fill="none" xmlns="http://www.w3.org/2000/svg">
<g clip-path="url(#clip0_3045_42)">
<path d="M887.43 715.861C887.43 715.861 781.81 763.69 577.022 763.69C413.015 763.69 286.29 715.861 286.29 715.861C286.29 715.861 404.466 793.243 580.682 789.856C822.22 785.216 887.43 715.861 887.43 715.861Z" fill="url(#paint0_linear_3045_42)"/>
<path d="M429.478 252.028C491.09 230.936 554.936 227.314 604.986 225.974C750.147 222.053 871.35 313.17 891.908 340.589C918.149 375.576 942.032 456.06 946.908 525.34C953.993 625.911 934.29 715.861 934.29 715.861C934.29 715.861 979.402 633.008 966.461 485.365C956.325 369.758 887.429 303.902 887.429 303.902C887.429 303.902 769.427 187.277 603.559 187.277C378.833 187.227 266.662 329.634 266.662 329.634C266.662 329.634 215.446 394.15 208.709 491.941C198.932 633.851 241.972 715.861 241.972 715.861C228.423 629.013 204.9 497.102 283.585 343.182C294.143 322.524 363.436 274.584 429.478 252.028Z" fill="url(#paint1_linear_3045_42)"/>
<path d="M1156.18 448.591C1147.11 366.408 1068.46 355.179 1062.45 354.447C1048.02 314.15 1029.86 275.217 1011.88 247.525C993.012 218.455 962.255 176.495 924.65 140.13C890.22 106.88 849.178 78.6911 822.503 61.582C770.233 28.0461 651.139 -3.62878 575.109 0.601979C480.321 5.92455 370.507 26.6565 236.041 154.82C189.875 198.827 145.098 271.383 115.235 354.46C107.158 355.527 30.7558 367.648 21.8352 448.566C10.4581 551.829 71.7483 565.266 81.6738 566.755C82.1379 591.141 84.6278 615.448 89.118 639.422C100.656 697.734 131.599 786.345 159.502 834.533C165.594 845.067 184.999 882.498 196.028 887.61C201.748 890.265 487.752 887.176 487.752 887.176L208.597 851.196C185.205 815.932 164.839 778.752 147.716 740.054C123.2 683.938 109.924 615.117 105.793 577.97C99.5894 522.772 101.252 469.881 116.959 405.341C132.468 341.792 167.12 275.8 179.775 259.386C218.944 208.641 285.532 166.706 323.472 149.845C433.584 100.912 529.948 91.4082 600.693 92.5497C796.387 95.7383 941.759 183.468 997.714 260.043C1023.51 295.366 1056.72 375.365 1067.44 438.963C1078.92 507.003 1075.18 567.276 1065.34 619.844C1060.62 645.08 1050.46 693.504 1031.04 738.045C1004.98 798.044 968.707 852.945 968.707 852.945L689.191 887.201H955.816C955.816 887.201 981.498 887.734 982.788 887.201C988.893 884.62 1021.58 830.489 1021.58 830.489C1021.58 830.489 1055.47 758.665 1066.05 728.603C1086.5 670.576 1094.59 618.665 1095.53 566.891C1102.23 566.06 1167.91 555.191 1156.18 448.591ZM94.0187 426.06C86.8971 456.445 80.247 510.762 81.6118 566.097C74.5522 561.37 42.8525 536.01 48.2247 464.869C55.2346 372.003 108.311 356.222 115.222 354.559C106.788 377.966 99.7083 401.839 94.0187 426.06ZM1095.54 566.618C1096.18 533.417 1093.94 500.254 1090.22 465.564C1086.73 433.12 1076.31 393.182 1062.47 354.485C1067.64 355.651 1122.59 370.254 1129.74 464.906C1135.36 539.311 1100.39 563.628 1095.54 566.618Z" fill="url(#paint2_linear_3045_42)"/>
<path d="M3.4485 1087.71C5.72234 1082.86 8.90657 1078.49 12.8281 1074.84C16.8956 1071.11 21.6251 1068.16 26.7735 1066.16C32.2094 1064.02 38.0043 1062.94 43.8454 1062.98C49.6748 1062.93 55.4598 1064 60.8801 1066.15C65.9089 1068.13 70.4995 1071.08 74.3913 1074.83C78.2258 1078.57 81.2653 1083.04 83.3271 1087.98C85.3888 1092.92 86.4303 1098.22 86.3888 1103.58V1113.06C86.3888 1114.98 86.0786 1116.22 85.4583 1116.78C84.7139 1117.39 83.7648 1117.7 82.8032 1117.63H67.1332C65.874 1117.73 64.6159 1117.43 63.5352 1116.78C62.766 1116.2 62.3938 1114.95 62.3938 1113.06V1104.3C62.4135 1101.94 61.9928 1099.59 61.1531 1097.39C60.325 1095.19 59.071 1093.19 57.4632 1091.48C55.8555 1089.77 53.9259 1088.4 51.7859 1087.45C49.4922 1086.42 47.0032 1085.91 44.4906 1085.93C41.9541 1085.91 39.4411 1086.42 37.1209 1087.45C34.9438 1088.41 32.953 1089.74 31.24 1091.39C29.5674 1093.04 28.2315 1094.99 27.307 1097.15C26.3601 1099.33 25.8743 1101.68 25.8802 1104.05V1174.3C25.8743 1176.67 26.3601 1179.02 27.307 1181.19C28.2397 1183.36 29.5741 1185.34 31.24 1187.01C32.9329 1188.71 34.9272 1190.08 37.1209 1191.05C39.4421 1192.07 41.955 1192.58 44.4906 1192.55C46.9228 1192.59 49.3353 1192.11 51.5683 1191.14C53.8013 1190.18 55.8039 1188.75 57.4434 1186.95C60.6375 1183.45 62.4077 1178.89 62.4062 1174.15V1167.11C62.3169 1166.46 62.3599 1165.79 62.5325 1165.15C62.7051 1164.51 63.0038 1163.91 63.4111 1163.39C64.2621 1162.71 65.3395 1162.38 66.426 1162.46H82.6667C83.6502 1162.41 84.62 1162.71 85.3962 1163.32C86.0662 1163.9 86.4012 1165.09 86.4012 1166.91V1174.82C86.4523 1180.16 85.4149 1185.46 83.3523 1190.39C81.2898 1195.33 78.2451 1199.79 74.4037 1203.5C70.5119 1207.25 65.9213 1210.2 60.8925 1212.19C55.4675 1214.33 49.6792 1215.41 43.8454 1215.36C38.0303 1215.4 32.2575 1214.37 26.8107 1212.34C21.6602 1210.44 16.9156 1207.59 12.8281 1203.92C8.85958 1200.34 5.65654 1195.99 3.41128 1191.13C1.07334 1186.02 -0.10447 1180.44 -0.037851 1174.82V1103.38C-0.055878 1097.96 1.13518 1092.61 3.4485 1087.71Z" fill="#373435"/>
<path d="M106.662 1085.55C105.869 1084.4 105.537 1082.99 105.732 1081.6C105.992 1079.81 106.945 1078.18 108.387 1077.08C110.565 1075.23 112.843 1073.5 115.211 1071.9C117.935 1070.09 120.847 1068.57 123.896 1067.37C127.339 1066.01 130.897 1064.95 134.528 1064.21C138.808 1063.35 143.166 1062.93 147.531 1062.97C153.311 1062.94 159.045 1063.99 164.442 1066.06C169.622 1068.03 174.373 1070.98 178.437 1074.74C182.475 1078.54 185.696 1083.11 187.903 1088.19C190.261 1093.61 191.445 1099.46 191.377 1105.36V1174.37C191.466 1179.18 190.711 1183.98 189.144 1188.53C187.766 1192.4 185.749 1196.02 183.176 1199.23C180.772 1202.21 177.932 1204.8 174.752 1206.93C171.751 1208.93 168.539 1210.59 165.174 1211.89C162.077 1213.09 158.868 1213.99 155.595 1214.56C152.863 1215.05 150.095 1215.31 147.32 1215.35C142.018 1215.32 136.751 1214.48 131.7 1212.87C126.507 1211.26 121.669 1208.67 117.444 1205.25C113.065 1201.66 109.507 1197.17 107.01 1192.09C104.182 1186.15 102.8 1179.62 102.978 1173.04V1167.15C102.859 1160.66 103.931 1154.21 106.141 1148.11C108.06 1142.87 111.159 1138.15 115.198 1134.31C119.258 1130.54 124.088 1127.69 129.355 1125.97C135.315 1124.04 141.564 1123.13 147.829 1123.3H165.434V1105.25C165.418 1103.04 165.08 1100.83 164.429 1098.71C163.735 1096.45 162.611 1094.35 161.116 1092.51C159.477 1090.51 157.419 1088.88 155.087 1087.76C152.203 1086.44 149.052 1085.8 145.881 1085.9C140.243 1085.7 134.631 1086.76 129.454 1089C125.76 1090.67 122.346 1092.9 119.33 1095.61C118.913 1096.09 118.405 1096.47 117.836 1096.74C117.266 1097.02 116.648 1097.17 116.017 1097.2C115.397 1097.17 114.794 1096.98 114.267 1096.65C113.739 1096.33 113.304 1095.87 113.002 1095.33L106.662 1085.55ZM165.434 1142.34H153.933C149.601 1142.2 145.281 1142.88 141.203 1144.35C138.211 1145.46 135.563 1147.35 133.523 1149.81C131.691 1152.15 130.418 1154.87 129.801 1157.78C129.119 1160.93 128.782 1164.13 128.796 1167.35V1172.66C128.721 1175.72 129.288 1178.75 130.459 1181.58C131.441 1183.93 132.908 1186.04 134.764 1187.78C136.485 1189.38 138.517 1190.6 140.732 1191.38C142.807 1192.12 144.992 1192.51 147.196 1192.52C149.274 1192.5 151.336 1192.16 153.312 1191.52C155.484 1190.84 157.491 1189.71 159.206 1188.22C161.077 1186.55 162.592 1184.52 163.66 1182.25C164.934 1179.43 165.549 1176.36 165.459 1173.27L165.434 1142.34Z" fill="#373435"/>
<path d="M330.621 1104.53C330.595 1102.58 330.404 1100.63 330.05 1098.71C329.677 1096.58 328.92 1094.53 327.817 1092.67C326.67 1090.75 325.094 1089.13 323.214 1087.92C320.899 1086.54 318.228 1085.86 315.534 1085.98C313.364 1085.98 311.214 1086.4 309.207 1087.23C307.182 1088.04 305.33 1089.23 303.748 1090.74C302.04 1092.37 300.67 1094.33 299.715 1096.49C298.629 1098.94 298.042 1101.58 297.991 1104.26V1208.18C297.991 1211.26 296.75 1212.78 294.107 1212.78H275.993C275.463 1212.8 274.937 1212.69 274.452 1212.48C273.968 1212.26 273.536 1211.94 273.189 1211.54C272.428 1210.58 272.048 1209.38 272.122 1208.16V1103.58C271.997 1101.66 271.706 1099.76 271.254 1097.9C270.785 1095.86 269.984 1093.92 268.884 1092.15C267.775 1090.37 266.278 1088.87 264.504 1087.76C262.462 1086.55 260.115 1085.95 257.743 1086.03C255.517 1086.04 253.316 1086.5 251.279 1087.4C249.169 1088.31 247.244 1089.6 245.596 1091.21C243.872 1092.91 242.461 1094.91 241.428 1097.1C240.301 1099.52 239.689 1102.15 239.629 1104.82V1207.45C239.691 1208.2 239.574 1208.96 239.287 1209.66C239 1210.36 238.552 1210.99 237.978 1211.48C237.067 1212.24 235.928 1212.68 234.74 1212.72H217.631C217.114 1212.72 216.604 1212.61 216.133 1212.39C215.662 1212.18 215.243 1211.87 214.902 1211.48C214.094 1210.54 213.684 1209.33 213.76 1208.09V1070.08C213.709 1069.46 213.793 1068.84 214.008 1068.25C214.222 1067.67 214.561 1067.14 215.001 1066.7C215.766 1066 216.768 1065.62 217.805 1065.62H228.971C230.212 1065.58 231.44 1065.9 232.495 1066.56C233 1066.97 233.419 1067.48 233.725 1068.06C234.032 1068.64 234.221 1069.28 234.281 1069.93L235.584 1075.25C239.192 1071.63 243.387 1068.64 247.991 1066.42C252.767 1064.13 258.005 1062.97 263.301 1063.03C265.378 1063.06 267.451 1063.23 269.504 1063.54C272.057 1063.91 274.556 1064.59 276.949 1065.55C282.829 1067.91 287.79 1072.11 291.092 1077.52C294.829 1073.1 299.425 1069.47 304.604 1066.88C309.969 1064.25 315.876 1062.92 321.849 1062.99C323.628 1063.02 325.405 1063.15 327.172 1063.35C329.623 1063.66 332.033 1064.24 334.355 1065.08C337.128 1066.09 339.762 1067.44 342.197 1069.11C345.014 1071.08 347.428 1073.57 349.306 1076.44C351.627 1080.03 353.372 1083.96 354.479 1088.08C355.929 1093.59 356.61 1099.26 356.502 1104.95V1208.17C356.502 1211.24 355.199 1212.77 352.618 1212.77H334.355C331.874 1212.77 330.633 1211.24 330.633 1208.17L330.621 1104.53Z" fill="#373435"/>
<path d="M380.643 1070.18C380.594 1068.99 380.949 1067.82 381.648 1066.86C382.039 1066.42 382.53 1066.08 383.08 1065.86C383.63 1065.65 384.224 1065.57 384.812 1065.62H396.313C396.897 1065.58 397.485 1065.65 398.041 1065.84C398.597 1066.02 399.111 1066.32 399.551 1066.7C400.471 1067.89 401.042 1069.31 401.201 1070.8L401.772 1076.26C405.382 1072.26 409.724 1068.99 414.563 1066.63C419.505 1064.32 424.883 1063.1 430.337 1063.03C435.791 1062.97 441.195 1064.07 446.189 1066.27C450.756 1068.35 454.854 1071.33 458.236 1075.04C461.649 1078.84 464.306 1083.25 466.064 1088.04C467.948 1093.1 468.898 1098.46 468.868 1103.86V1174.45C468.892 1179.75 468.015 1185.03 466.275 1190.04C464.638 1194.83 462.075 1199.25 458.732 1203.04C455.381 1206.82 451.299 1209.87 446.734 1212.03C441.789 1214.32 436.39 1215.46 430.94 1215.36C426.495 1215.39 422.084 1214.58 417.938 1212.98C413.824 1211.39 409.972 1209.18 406.511 1206.44V1255.03C406.511 1258.01 405.109 1259.48 402.343 1259.48H384.812C382.032 1259.48 380.643 1258.01 380.643 1255.03V1070.18ZM406.524 1174.97C406.616 1177.27 407.124 1179.53 408.025 1181.65C408.907 1183.75 410.203 1185.66 411.834 1187.25C413.502 1188.86 415.454 1190.15 417.591 1191.06C419.887 1192.03 422.355 1192.53 424.849 1192.53C427.342 1192.53 429.811 1192.03 432.107 1191.06C434.259 1190.09 436.208 1188.72 437.851 1187.03C441.196 1183.58 443.053 1178.96 443.025 1174.16V1104.1C443.034 1101.73 442.57 1099.39 441.66 1097.2C440.781 1095.03 439.487 1093.05 437.851 1091.38C436.205 1089.69 434.257 1088.32 432.107 1087.35C429.802 1086.36 427.32 1085.85 424.811 1085.85C422.303 1085.85 419.821 1086.36 417.516 1087.35C415.335 1088.31 413.359 1089.67 411.697 1091.38C410.061 1093.05 408.767 1095.03 407.888 1097.2C406.978 1099.39 406.514 1101.73 406.524 1104.1V1174.97Z" fill="#373435"/>
<path d="M516.202 1173.96C516.284 1176.32 516.745 1178.65 517.567 1180.86C518.355 1183.03 519.551 1185.03 521.091 1186.75C522.665 1188.51 524.598 1189.91 526.761 1190.85C529.189 1191.89 531.811 1192.41 534.453 1192.36C536.782 1192.35 539.084 1191.86 541.215 1190.92C543.373 1189.99 545.345 1188.67 547.034 1187.04C548.741 1185.36 550.128 1183.39 551.128 1181.22C552.175 1178.99 552.762 1176.56 552.852 1174.1V1070.75C552.8 1070.02 552.922 1069.28 553.209 1068.61C553.496 1067.93 553.939 1067.34 554.503 1066.87C555.414 1066.1 556.553 1065.67 557.741 1065.62H574.862C575.366 1065.64 575.861 1065.76 576.317 1065.97C576.773 1066.19 577.182 1066.49 577.517 1066.87C577.943 1067.32 578.273 1067.85 578.486 1068.43C578.7 1069.01 578.792 1069.63 578.758 1070.25V1208.53C578.811 1209.13 578.726 1209.73 578.511 1210.29C578.296 1210.85 577.956 1211.36 577.517 1211.77C576.725 1212.46 575.706 1212.85 574.651 1212.85H563.485C562.341 1212.9 561.209 1212.6 560.247 1211.98C559.291 1211.17 558.653 1210.06 558.448 1208.83L557.306 1202.93C553.716 1206.63 549.52 1209.69 544.9 1211.98C540.277 1214.28 535.177 1215.47 530.011 1215.44C524.52 1215.5 519.071 1214.47 513.982 1212.41C509.272 1210.49 505.016 1207.6 501.488 1203.94C497.907 1200.18 495.141 1195.72 493.361 1190.85C491.388 1185.47 490.412 1179.77 490.483 1174.04V1070.08C490.444 1069.47 490.535 1068.86 490.749 1068.3C490.963 1067.73 491.295 1067.21 491.723 1066.78C492.091 1066.41 492.528 1066.12 493.01 1065.92C493.491 1065.72 494.007 1065.62 494.527 1065.62H512.493C513.002 1065.62 513.508 1065.72 513.977 1065.92C514.447 1066.12 514.87 1066.41 515.222 1066.78C515.627 1067.22 515.938 1067.74 516.136 1068.31C516.335 1068.88 516.416 1069.48 516.376 1070.08L516.202 1173.96Z" fill="#373435"/>
<path d="M597.195 1171.52C597.195 1168.74 599.06 1167.35 602.79 1167.35H618.038C620.52 1167.35 621.76 1168.79 621.76 1171.65V1175.54C621.737 1177.94 622.228 1180.32 623.199 1182.51C624.112 1184.61 625.456 1186.5 627.145 1188.04C628.865 1189.6 630.865 1190.82 633.038 1191.64C635.423 1192.51 637.946 1192.93 640.482 1192.88C642.919 1192.9 645.334 1192.43 647.591 1191.52C649.802 1190.64 651.812 1189.31 653.497 1187.63C655.17 1185.96 656.509 1183.99 657.443 1181.82C658.412 1179.55 658.902 1177.1 658.882 1174.63C658.878 1171.74 657.952 1168.92 656.239 1166.58C654.205 1163.82 651.795 1161.35 649.08 1159.25C645.709 1156.58 642.196 1154.09 638.559 1151.8C634.548 1149.27 630.255 1146.42 625.681 1143.25C621.992 1141.02 618.464 1138.53 615.123 1135.81C611.923 1133.21 609.037 1130.25 606.525 1126.98C604.034 1123.7 602.06 1120.07 600.668 1116.2C599.16 1111.94 598.404 1107.46 598.435 1102.94C598.399 1097.57 599.45 1092.24 601.525 1087.27C603.518 1082.49 606.474 1078.16 610.209 1074.56C614.052 1070.89 618.569 1068.01 623.51 1066.07C628.838 1063.97 634.521 1062.92 640.247 1062.98C646.297 1062.88 652.313 1063.91 657.988 1066.01C662.971 1067.87 667.522 1070.73 671.363 1074.41C675.066 1078.04 677.937 1082.43 679.775 1087.27C681.722 1092.47 682.694 1097.98 682.641 1103.53V1107.25C682.71 1107.75 682.64 1108.27 682.439 1108.74C682.238 1109.2 681.913 1109.61 681.5 1109.9C680.37 1110.41 679.135 1110.63 677.902 1110.55H663.113C660.424 1110.55 659.08 1109.21 659.08 1106.53V1103.08C659.113 1100.64 658.649 1098.22 657.716 1095.96C656.848 1093.87 655.584 1091.96 653.993 1090.35C652.396 1088.76 650.504 1087.5 648.423 1086.63C646.222 1085.71 643.859 1085.25 641.475 1085.26C639.045 1085.23 636.637 1085.72 634.415 1086.7C632.353 1087.64 630.503 1088.99 628.981 1090.66C627.444 1092.36 626.252 1094.33 625.47 1096.48C624.644 1098.74 624.224 1101.12 624.229 1103.53C624.145 1105.93 624.568 1108.33 625.47 1110.56C626.48 1112.68 627.921 1114.57 629.701 1116.1C632.062 1118.17 634.608 1120.02 637.306 1121.63C640.408 1123.56 644.254 1125.91 648.845 1128.68C653.504 1131.34 658.007 1134.27 662.331 1137.45C666.477 1140.47 670.276 1143.94 673.658 1147.8C676.871 1151.47 679.507 1155.62 681.475 1160.09C683.466 1164.69 684.467 1169.67 684.415 1174.68C684.468 1180.21 683.418 1185.69 681.326 1190.81C679.317 1195.67 676.302 1200.06 672.48 1203.68C668.513 1207.4 663.85 1210.31 658.758 1212.22C653.133 1214.34 647.162 1215.39 641.152 1215.33C632.881 1215.33 625.954 1214.22 620.371 1212.01C615.227 1210.11 610.581 1207.06 606.785 1203.11C603.367 1199.4 600.824 1194.98 599.341 1190.17C597.792 1185.18 597.018 1180 597.046 1174.78L597.195 1171.52Z" fill="#373435"/>
<path d="M703.783 1018.57C703.733 1017.37 704.117 1016.2 704.862 1015.27C705.245 1014.83 705.724 1014.5 706.26 1014.28C706.797 1014.06 707.376 1013.98 707.951 1014.02H725.495C726.071 1013.98 726.65 1014.06 727.186 1014.28C727.722 1014.5 728.201 1014.83 728.584 1015.27C729.33 1016.2 729.713 1017.37 729.664 1018.57V1175.97C729.664 1180.19 730.669 1183.42 732.678 1185.82C734.688 1188.23 738.137 1189.33 743.026 1189.33H747.058C748.869 1189.33 749.974 1189.89 750.358 1191C750.704 1191.89 750.901 1192.84 750.941 1193.8V1208.6C750.941 1209.09 750.891 1209.57 750.793 1210.04C750.669 1210.53 750.39 1210.97 749.998 1211.28C749.427 1211.74 748.769 1212.09 748.063 1212.29C746.943 1212.61 745.779 1212.76 744.614 1212.72H736.562C732.084 1212.77 727.625 1212.14 723.336 1210.85C719.456 1209.69 715.909 1207.62 712.989 1204.82C709.928 1201.74 707.615 1198 706.227 1193.89C704.452 1188.51 703.613 1182.87 703.746 1177.21L703.783 1018.57Z" fill="#373435"/>
<path d="M769.477 1085.55C768.684 1084.4 768.352 1082.99 768.547 1081.6C768.807 1079.81 769.76 1078.18 771.202 1077.08C773.382 1075.22 775.664 1073.5 778.038 1071.9C780.76 1070.08 783.672 1068.56 786.723 1067.37C790.166 1066.01 793.725 1064.95 797.356 1064.21C801.64 1063.35 806.001 1062.93 810.371 1062.97C816.146 1062.94 821.877 1063.99 827.269 1066.06C832.451 1068.03 837.206 1070.98 841.276 1074.74C845.307 1078.54 848.527 1083.12 850.743 1088.19C853.091 1093.61 854.27 1099.46 854.204 1105.36V1174.37C854.294 1179.18 853.538 1183.98 851.971 1188.53C850.598 1192.41 848.581 1196.03 846.003 1199.23C843.603 1202.21 840.762 1204.81 837.579 1206.93C834.579 1208.93 831.367 1210.59 828.001 1211.89C824.904 1213.09 821.696 1213.99 818.423 1214.56C815.691 1215.05 812.923 1215.31 810.147 1215.35C804.845 1215.32 799.578 1214.48 794.527 1212.87C789.334 1211.26 784.496 1208.67 780.271 1205.25C775.892 1201.66 772.334 1197.17 769.837 1192.09C767.009 1186.15 765.627 1179.62 765.805 1173.04V1167.15C765.686 1160.66 766.759 1154.21 768.969 1148.11C770.892 1142.87 773.99 1138.15 778.026 1134.31C782.085 1130.54 786.915 1127.69 792.182 1125.97C798.126 1124.06 804.352 1123.17 810.594 1123.35H828.274V1105.25C828.258 1103.04 827.919 1100.83 827.269 1098.71C826.581 1096.45 825.455 1094.34 823.956 1092.51C822.317 1090.51 820.259 1088.88 817.926 1087.76C815.043 1086.43 811.892 1085.8 808.721 1085.9C803.07 1085.71 797.449 1086.78 792.269 1089.05C788.57 1090.72 785.151 1092.95 782.132 1095.66C781.716 1096.14 781.207 1096.52 780.638 1096.79C780.069 1097.07 779.45 1097.22 778.82 1097.25C778.201 1097.21 777.601 1097.02 777.075 1096.7C776.548 1096.37 776.112 1095.91 775.805 1095.38L769.477 1085.55ZM828.274 1142.34H816.797C812.469 1142.2 808.154 1142.88 804.08 1144.35C801.082 1145.46 798.429 1147.34 796.388 1149.81C794.55 1152.14 793.276 1154.87 792.666 1157.78C791.974 1160.92 791.632 1164.13 791.649 1167.35V1172.66C791.573 1175.72 792.14 1178.75 793.311 1181.58C794.294 1183.93 795.761 1186.04 797.616 1187.78C799.337 1189.38 801.369 1190.6 803.584 1191.38C805.659 1192.12 807.844 1192.51 810.048 1192.52C812.126 1192.5 814.188 1192.16 816.165 1191.52C818.336 1190.84 820.343 1189.71 822.058 1188.22C823.93 1186.55 825.445 1184.52 826.512 1182.25C827.792 1179.43 828.407 1176.36 828.311 1173.27L828.274 1142.34Z" fill="#373435"/>
<path d="M902.405 1207.6C902.458 1208.33 902.335 1209.06 902.048 1209.74C901.762 1210.41 901.318 1211.01 900.755 1211.48C899.844 1212.24 898.704 1212.68 897.517 1212.72H880.457C879.952 1212.71 879.454 1212.59 878.996 1212.38C878.537 1212.16 878.127 1211.86 877.79 1211.48C877.366 1211.03 877.038 1210.49 876.825 1209.91C876.612 1209.33 876.518 1208.71 876.549 1208.09V1069.88C876.5 1069.28 876.587 1068.68 876.801 1068.13C877.016 1067.57 877.354 1067.06 877.79 1066.65C878.589 1065.96 879.61 1065.58 880.668 1065.57H891.834C892.999 1065.53 894.151 1065.83 895.147 1066.43C895.63 1066.82 896.031 1067.3 896.327 1067.84C896.623 1068.38 896.808 1068.98 896.872 1069.59L898.026 1075.49C901.621 1071.79 905.816 1068.73 910.432 1066.43C915.076 1064.12 920.198 1062.94 925.383 1062.98C930.875 1062.91 936.325 1063.94 941.413 1066.01C946.124 1067.93 950.384 1070.82 953.919 1074.48C957.491 1078.24 960.253 1082.7 962.033 1087.57C964.006 1092.95 964.982 1098.65 964.911 1104.38V1208.32C964.953 1208.92 964.872 1209.52 964.674 1210.08C964.475 1210.65 964.164 1211.17 963.757 1211.62C963.406 1211.99 962.982 1212.28 962.512 1212.48C962.043 1212.68 961.538 1212.78 961.028 1212.77H942.976C942.466 1212.78 941.961 1212.68 941.491 1212.48C941.022 1212.28 940.598 1211.99 940.246 1211.62C939.842 1211.17 939.533 1210.65 939.337 1210.08C939.14 1209.52 939.062 1208.92 939.105 1208.32V1104.53C939.007 1102.15 938.547 1099.8 937.74 1097.56C936.963 1095.37 935.789 1093.35 934.279 1091.59C932.743 1089.83 930.831 1088.43 928.683 1087.5C926.205 1086.45 923.533 1085.93 920.842 1085.98C918.464 1085.97 916.11 1086.47 913.944 1087.45C911.748 1088.45 909.751 1089.83 908.05 1091.54C906.307 1093.3 904.917 1095.37 903.956 1097.65C902.941 1100.04 902.426 1102.61 902.442 1105.2L902.405 1207.6Z" fill="#373435"/>
<path d="M1074.37 1174.82C1074.43 1180.44 1073.26 1186.01 1070.92 1191.13C1068.68 1195.99 1065.48 1200.35 1061.5 1203.92C1057.41 1207.59 1052.65 1210.45 1047.49 1212.34C1042.02 1214.37 1036.22 1215.39 1030.38 1215.36C1024.46 1215.41 1018.57 1214.38 1013.01 1212.34C1007.85 1210.45 1003.09 1207.59 998.995 1203.92C995.026 1200.34 991.823 1195.99 989.578 1191.13C987.24 1186.01 986.062 1180.44 986.129 1174.82V1103.58C986.076 1098 987.152 1092.47 989.292 1087.32C991.313 1082.51 994.264 1078.13 997.977 1074.46C1001.71 1070.81 1006.13 1067.96 1010.99 1066.06C1016.18 1064.01 1021.72 1062.98 1027.31 1063.03C1030.96 1063.05 1034.6 1063.61 1038.09 1064.69C1041.75 1065.8 1045.27 1067.32 1048.59 1069.22V1018.56C1048.53 1017.38 1048.89 1016.22 1049.59 1015.26C1049.98 1014.82 1050.47 1014.48 1051.02 1014.26C1051.57 1014.05 1052.17 1013.96 1052.75 1014.02H1070.12C1070.72 1013.97 1071.32 1014.06 1071.88 1014.27C1072.44 1014.49 1072.94 1014.83 1073.35 1015.26C1074.09 1016.2 1074.48 1017.37 1074.43 1018.56L1074.37 1174.82ZM1048.5 1104.1C1048.48 1099.35 1046.64 1094.79 1043.34 1091.38C1041.68 1089.68 1039.71 1088.31 1037.54 1087.35C1035.27 1086.34 1032.8 1085.83 1030.31 1085.85C1027.77 1085.82 1025.26 1086.33 1022.94 1087.35C1020.76 1088.31 1018.79 1089.68 1017.13 1091.38C1015.49 1093.08 1014.2 1095.08 1013.34 1097.27C1012.44 1099.49 1011.98 1101.86 1011.98 1104.25V1174.3C1011.99 1179.04 1013.83 1183.6 1017.13 1187.01C1018.79 1188.72 1020.76 1190.09 1022.94 1191.05C1025.26 1192.07 1027.77 1192.58 1030.31 1192.55C1032.8 1192.57 1035.27 1192.06 1037.54 1191.05C1039.72 1190.09 1041.68 1188.72 1043.34 1187.01C1046.64 1183.6 1048.48 1179.04 1048.5 1174.3V1104.1Z" fill="#373435"/>
<path d="M1090.61 1171.52C1090.61 1168.74 1092.48 1167.35 1096.21 1167.35H1111.45C1113.93 1167.35 1115.17 1168.78 1115.17 1171.65V1175.54C1115.16 1177.94 1115.65 1180.31 1116.61 1182.51C1117.53 1184.61 1118.88 1186.49 1120.57 1188.04C1122.29 1189.61 1124.29 1190.83 1126.46 1191.64C1128.85 1192.51 1131.37 1192.93 1133.91 1192.88C1136.34 1192.9 1138.76 1192.43 1141.02 1191.52C1143.23 1190.64 1145.23 1189.32 1146.91 1187.63C1148.59 1185.96 1149.93 1183.99 1150.87 1181.82C1151.84 1179.55 1152.33 1177.1 1152.31 1174.63C1152.3 1171.73 1151.37 1168.91 1149.65 1166.58C1147.62 1163.81 1145.21 1161.34 1142.49 1159.25C1139.12 1156.58 1135.61 1154.1 1131.98 1151.8C1127.97 1149.27 1123.68 1146.42 1119.09 1143.25C1115.41 1141.02 1111.88 1138.53 1108.55 1135.81C1105.35 1133.21 1102.46 1130.25 1099.95 1126.98C1097.46 1123.7 1095.48 1120.07 1094.09 1116.2C1092.6 1111.92 1091.87 1107.42 1091.93 1102.9C1091.9 1097.52 1092.95 1092.19 1095.02 1087.23C1097.01 1082.43 1099.97 1078.1 1103.71 1074.51C1107.57 1070.86 1112.1 1068 1117.05 1066.07C1122.38 1063.97 1128.07 1062.92 1133.79 1062.98C1139.85 1062.88 1145.87 1063.91 1151.55 1066.01C1156.53 1067.87 1161.08 1070.73 1164.91 1074.41C1168.62 1078.03 1171.49 1082.42 1173.32 1087.27C1175.28 1092.47 1176.26 1097.98 1176.2 1103.53V1107.25C1176.27 1107.76 1176.2 1108.27 1176 1108.74C1175.79 1109.21 1175.47 1109.61 1175.05 1109.9C1173.92 1110.41 1172.69 1110.63 1171.46 1110.55H1156.65C1153.97 1110.55 1152.63 1109.21 1152.63 1106.53V1103.08C1152.66 1100.64 1152.19 1098.22 1151.26 1095.96C1149.93 1092.76 1147.68 1090.03 1144.78 1088.12C1141.89 1086.21 1138.49 1085.21 1135.02 1085.25C1132.61 1085.22 1130.21 1085.71 1128 1086.69C1125.94 1087.63 1124.09 1088.97 1122.57 1090.65C1121.03 1092.34 1119.84 1094.32 1119.06 1096.47C1118.23 1098.73 1117.81 1101.11 1117.81 1103.52C1117.73 1105.92 1118.15 1108.32 1119.06 1110.55C1120.06 1112.67 1121.5 1114.56 1123.29 1116.08C1125.65 1118.16 1128.19 1120.01 1130.89 1121.62C1133.99 1123.54 1137.84 1125.89 1142.43 1128.66C1147.09 1131.32 1151.59 1134.25 1155.9 1137.44C1160.05 1140.46 1163.86 1143.93 1167.24 1147.78C1170.46 1151.46 1173.09 1155.61 1175.06 1160.08C1177.05 1164.68 1178.05 1169.65 1178 1174.67C1178.05 1180.2 1177 1185.68 1174.91 1190.8C1172.9 1195.66 1169.88 1200.04 1166.07 1203.66C1162.1 1207.39 1157.43 1210.3 1152.33 1212.21C1146.71 1214.33 1140.74 1215.38 1134.73 1215.31C1126.45 1215.31 1119.53 1214.21 1113.96 1212C1108.81 1210.1 1104.16 1207.05 1100.37 1203.09C1096.95 1199.39 1094.41 1194.97 1092.93 1190.15C1091.37 1185.17 1090.59 1179.98 1090.62 1174.77L1090.61 1171.52Z" fill="#373435"/>
</g>
<defs>
<linearGradient id="paint0_linear_3045_42" x1="548.262" y1="615.303" x2="629.193" y2="826.146" gradientUnits="userSpaceOnUse">
<stop offset="0.04" stop-color="#152F5E"/>
<stop offset="0.09" stop-color="#2F5681"/>
<stop offset="0.2" stop-color="#6FB9D8"/>
<stop offset="0.25" stop-color="#8CE5FE"/>
<stop offset="0.31" stop-color="#81D8FC"/>
<stop offset="0.5" stop-color="#65B6F8"/>
<stop offset="0.69" stop-color="#519EF5"/>
<stop offset="0.86" stop-color="#448FF4"/>
<stop offset="1" stop-color="#408AF3"/>
</linearGradient>
<linearGradient id="paint1_linear_3045_42" x1="459.403" y1="207.339" x2="690.532" y2="809.434" gradientUnits="userSpaceOnUse">
<stop offset="0.04" stop-color="#152F5E"/>
<stop offset="0.09" stop-color="#2F5681"/>
<stop offset="0.2" stop-color="#6FB9D8"/>
<stop offset="0.25" stop-color="#8CE5FE"/>
<stop offset="0.31" stop-color="#81D8FC"/>
<stop offset="0.5" stop-color="#65B6F8"/>
<stop offset="0.69" stop-color="#519EF5"/>
<stop offset="0.86" stop-color="#448FF4"/>
<stop offset="1" stop-color="#408AF3"/>
</linearGradient>
<linearGradient id="paint2_linear_3045_42" x1="420.494" y1="31.6441" x2="778.943" y2="965.451" gradientUnits="userSpaceOnUse">
<stop offset="0.04" stop-color="#152F5E"/>
<stop offset="0.09" stop-color="#2F5681"/>
<stop offset="0.2" stop-color="#6FB9D8"/>
<stop offset="0.25" stop-color="#8CE5FE"/>
<stop offset="0.31" stop-color="#81D8FC"/>
<stop offset="0.5" stop-color="#65B6F8"/>
<stop offset="0.69" stop-color="#519EF5"/>
<stop offset="0.86" stop-color="#448FF4"/>
<stop offset="1" stop-color="#408AF3"/>
</linearGradient>
<clipPath id="clip0_3045_42">
<rect width="1178" height="1259.24" fill="white" transform="translate(0 0.242065)"/>
</clipPath>
</defs>
</svg>
