<svg id="Capa_1" data-name="Capa 1" xmlns="http://www.w3.org/2000/svg" viewBox="0 0 1080 1080"><defs><style>.cls-1{fill:#4280ed;}.cls-2{fill:#a039dd;}</style></defs><title>mcd</title><path class="cls-1" d="M491.37,426.06v22.31a24.37,24.37,0,0,1-34.56,22.14L284.92,391.36,155.37,454.31V525l118.45-56.39a25.77,25.77,0,0,1,22.18,0l181.53,87a24.39,24.39,0,0,1,13.84,22v22.17a24.38,24.38,0,0,1-34.68,22.09L284.92,541.67,101.79,628.85A13.49,13.49,0,0,1,82.5,616.67V420.43a13.49,13.49,0,0,1,7.69-12.18l186.4-88.73a25.74,25.74,0,0,1,22.06,0L477.42,404a24.37,24.37,0,0,1,13.95,22"/><path class="cls-2" d="M479.13,700.48,296.21,616.25a25.72,25.72,0,0,0-22.39.42L194.36,657A24.37,24.37,0,0,0,181,678.69V699a24.37,24.37,0,0,0,34.51,22.17l69.39-31.75,176.51,82.38a21,21,0,0,0,29.95-19.08V719.6a21,21,0,0,0-12.24-19.12"/><path class="cls-1" d="M625.68,467.69a21.44,21.44,0,0,1,7.94,3.63,19,19,0,0,1,5.6,6.77,21.92,21.92,0,0,1,2.13,10v33.47a52.12,52.12,0,0,1-8.4.68,53.41,53.41,0,0,1-8.39-.68V491.81q0-4.92-2.41-7.5c-1.6-1.72-3.94-2.58-7-2.58a14.87,14.87,0,0,0-9,3l.22,3.35v33.47a52,52,0,0,1-8.39.68,49.92,49.92,0,0,1-8.28-.68V491.81q0-4.92-2.47-7.5t-7-2.58a16.33,16.33,0,0,0-8.62,2.24v37.61a52.09,52.09,0,0,1-8.39.68,52.71,52.71,0,0,1-8.28-.68V475.47a37.63,37.63,0,0,1,7.21-4.43,39.81,39.81,0,0,1,10-3.35,49.65,49.65,0,0,1,9.68-1.07q10.86,0,17.35,5a31.94,31.94,0,0,1,8.06-3.64,32.53,32.53,0,0,1,9.51-1.4,38.63,38.63,0,0,1,9,1.07"/><path class="cls-1" d="M654.12,458.56a9.63,9.63,0,0,1-3-7.05,10.9,10.9,0,0,1,1-4.25,9.3,9.3,0,0,1,3.53-4,9.92,9.92,0,0,1,12.59,1.28,9.47,9.47,0,0,1,3,7,10,10,0,0,1-17.12,7.05m-1.34,63V468.41a51,51,0,0,1,8.28-.67,56.13,56.13,0,0,1,8.39.67v53.17a50.64,50.64,0,0,1-8.39.68,52.71,52.71,0,0,1-8.28-.68"/><path class="cls-1" d="M567.52,604.13q-7.83-7.5-7.84-20.82a30.66,30.66,0,0,1,2.18-11.7,26,26,0,0,1,15.23-14.83,31.83,31.83,0,0,1,11.36-2,32.28,32.28,0,0,1,10.74,1.79,22.44,22.44,0,0,1,7.73,4.14,18.6,18.6,0,0,1-3.19,6.55,20.07,20.07,0,0,1-5.43,5.21,13.72,13.72,0,0,0-9.4-3.7,11.17,11.17,0,0,0-9.13,4,15.71,15.71,0,0,0-3.3,10.3,16.32,16.32,0,0,0,3.25,10.41q3.24,4.14,9.29,4.14a17.11,17.11,0,0,0,5.2-.79,13.75,13.75,0,0,0,5.1-3.13q6.38,3.13,8.5,11a28.42,28.42,0,0,1-18.91,6.94q-13.54,0-21.38-7.5"/><path class="cls-1" d="M627.58,609.56a26.94,26.94,0,0,1-9.24-5.65,25,25,0,0,1-6-9,31.23,31.23,0,0,1-2.13-11.7,29.9,29.9,0,0,1,2.18-11.53,26.2,26.2,0,0,1,15.45-14.89,33.11,33.11,0,0,1,11.59-2,32.69,32.69,0,0,1,11.53,2,27.15,27.15,0,0,1,9.29,5.77,25.51,25.51,0,0,1,6,9.06,30.91,30.91,0,0,1,2.13,11.59,29.81,29.81,0,0,1-2.19,11.47,25.87,25.87,0,0,1-6.1,9.07,26.73,26.73,0,0,1-9.34,5.76,34.72,34.72,0,0,1-23.17.06m20.7-15.89q3.32-4,3.31-10.47t-3.31-10.47a11.08,11.08,0,0,0-9-4,11.25,11.25,0,0,0-9.06,4q-3.36,4-3.36,10.47t3.36,10.47a11.25,11.25,0,0,0,9.06,4,11.08,11.08,0,0,0,9-4"/><path class="cls-1" d="M715.4,556.45a21.29,21.29,0,0,1,8.06,4.7,19.24,19.24,0,0,1,4.7,7.22,26,26,0,0,1,1.56,9.12v32.24a53.15,53.15,0,0,1-8.39.67,54.83,54.83,0,0,1-8.4-.67V580.18a15.05,15.05,0,0,0-.89-5.1,7,7,0,0,0-3.36-3.86,12,12,0,0,0-5.82-1.34,29.31,29.31,0,0,0-3.75.39,15,15,0,0,0-5.2,1.85v37.61a53.28,53.28,0,0,1-8.4.67,53.9,53.9,0,0,1-8.28-.67V563.61a29.86,29.86,0,0,1,7.22-4.59,40.25,40.25,0,0,1,10-3.25,53.3,53.3,0,0,1,9.68-1,35,35,0,0,1,11.31,1.68"/><path class="cls-1" d="M729.51,630.83a16,16,0,0,1-5.83-3.08,15.46,15.46,0,0,1,2.19-6.44,14.69,14.69,0,0,1,4.76-5.2,8.16,8.16,0,0,0,5.26,2q6.27,0,6.27-7.61V556.67a41.11,41.11,0,0,1,8.17-.67,45.44,45.44,0,0,1,8.5.67v53.17a25.34,25.34,0,0,1-2.4,11.42,19.2,19.2,0,0,1-7.17,7.78,21.52,21.52,0,0,1-11.58,3,27,27,0,0,1-8.17-1.17m13.88-84a9.65,9.65,0,0,1-3-7.05,10.93,10.93,0,0,1,1-4.25,9.3,9.3,0,0,1,3.53-4,9.92,9.92,0,0,1,12.59,1.28,9.47,9.47,0,0,1,3,7,10,10,0,0,1-17.12,7.05"/><path class="cls-1" d="M821.3,557.12v48.35a51.8,51.8,0,0,1-11,4.2,56.76,56.76,0,0,1-15.39,2,46,46,0,0,1-9.63-1A21.79,21.79,0,0,1,777,607.1a17.73,17.73,0,0,1-5.6-6.66A23.2,23.2,0,0,1,769.36,590V557.12a53.38,53.38,0,0,1,8.39-.67,50.14,50.14,0,0,1,8.29.67v29.21c0,3.73.74,6.46,2.24,8.17s4.14,2.58,7.94,2.58a19.15,19.15,0,0,0,8.4-1.68V557.12a52.24,52.24,0,0,1,16.68,0"/><path class="cls-1" d="M870.89,556.45a21.29,21.29,0,0,1,8.06,4.7,19.12,19.12,0,0,1,4.7,7.22,25.77,25.77,0,0,1,1.57,9.12v32.24a53.37,53.37,0,0,1-8.4.67,54.61,54.61,0,0,1-8.39-.67V580.18a15.07,15.07,0,0,0-.9-5.1,6.9,6.9,0,0,0-3.36-3.86,12,12,0,0,0-5.82-1.34,29.65,29.65,0,0,0-3.75.39,15,15,0,0,0-5.2,1.85v37.61a53.28,53.28,0,0,1-8.4.67,54.1,54.1,0,0,1-8.28-.67V563.61a30.06,30.06,0,0,1,7.22-4.59,40.52,40.52,0,0,1,10-3.25,53.39,53.39,0,0,1,9.68-1,35,35,0,0,1,11.31,1.68"/><path class="cls-1" d="M934.14,598.87a17.61,17.61,0,0,1,2.46,6.6,27,27,0,0,1-17.24,5.94,28.27,28.27,0,0,1-11.86-2.18,15.91,15.91,0,0,1-7.11-6.16,18.66,18.66,0,0,1-2.4-9.8V571.11h-9.07a41.92,41.92,0,0,1,0-13.66H898v-14a55.54,55.54,0,0,1,8.5-.67,46.13,46.13,0,0,1,8.06.67v14h18.58a31.83,31.83,0,0,1,.79,6.61,38.28,38.28,0,0,1-.79,7.05H914.55v18c0,2.84.66,4.89,2,6.16a8,8,0,0,0,5.77,1.9,11.14,11.14,0,0,0,7.38-3.13,13.39,13.39,0,0,1,4.48,4.81"/><path class="cls-1" d="M956.7,609.56a26.89,26.89,0,0,1-9.23-5.65,25.07,25.07,0,0,1-6.05-9,31.43,31.43,0,0,1-2.12-11.7,29.9,29.9,0,0,1,2.18-11.53,26.2,26.2,0,0,1,15.45-14.89,33,33,0,0,1,11.58-2,32.65,32.65,0,0,1,11.53,2,27.05,27.05,0,0,1,9.29,5.77,25.38,25.38,0,0,1,6,9.06,30.91,30.91,0,0,1,2.13,11.59,30,30,0,0,1-2.18,11.47,26.14,26.14,0,0,1-6.1,9.07,26.77,26.77,0,0,1-9.35,5.76,34.72,34.72,0,0,1-23.17.06m20.71-15.89q3.3-4,3.3-10.47t-3.3-10.47a11.09,11.09,0,0,0-9-4,11.25,11.25,0,0,0-9.07,4q-3.36,4-3.35,10.47t3.35,10.47a11.25,11.25,0,0,0,9.07,4,11.09,11.09,0,0,0,9-4"/><path class="cls-1" d="M608.4,652.81v68.27a48.91,48.91,0,0,1-10.67,3.64,55.54,55.54,0,0,1-12.63,1.47,46.78,46.78,0,0,1-10.4-1.2,28.18,28.18,0,0,1-10.18-4.68,20.57,20.57,0,0,1-7.24-9.25,32.16,32.16,0,0,1-2.35-12.2,28.79,28.79,0,0,1,1.31-8.71,27,27,0,0,1,3.65-7.46,25.08,25.08,0,0,1,5.55-5.71,30.36,30.36,0,0,1,18.35-5.77,31.72,31.72,0,0,1,8.38,1V652.81a51.2,51.2,0,0,1,8.06-.66,50.5,50.5,0,0,1,8.17.66m-20,59.23q2.4-.33,3.81-.66V686.56a16.35,16.35,0,0,0-7.4-1.53,13.33,13.33,0,0,0-9.69,3.71,13.17,13.17,0,0,0-3.81,9.91,17.16,17.16,0,0,0,1.25,6.09,11.48,11.48,0,0,0,4.52,5.45,13.24,13.24,0,0,0,7.51,2.17,29,29,0,0,0,3.81-.32"/><path class="cls-1" d="M621.25,663a9.41,9.41,0,0,1-2.94-6.86,10.75,10.75,0,0,1,1-4.14,9,9,0,0,1,3.43-3.92A9.66,9.66,0,0,1,635,649.37a9.25,9.25,0,0,1,2.94,6.81A9.7,9.7,0,0,1,621.25,663m-1.31,61.3V672.62A49.63,49.63,0,0,1,628,672a54.5,54.5,0,0,1,8.17.65v51.72A49.15,49.15,0,0,1,628,725a51.2,51.2,0,0,1-8.06-.66"/><path class="cls-1" d="M686.15,673a36.06,36.06,0,0,1,10.56,5.39v42.79a32.2,32.2,0,0,1-1.36,9.15,20.39,20.39,0,0,1-4.63,8.11,23.73,23.73,0,0,1-8.55,5.72,32.91,32.91,0,0,1-12.57,2.18,41.08,41.08,0,0,1-11.87-1.64,31,31,0,0,1-8.66-3.86,28.52,28.52,0,0,1-5-4.19,13.39,13.39,0,0,1,2.88-6.1,12.47,12.47,0,0,1,5.94-4.14,20.06,20.06,0,0,0,15.79,7.08,19.55,19.55,0,0,0,5.77-.87,8.17,8.17,0,0,0,4.41-3.11,9.08,9.08,0,0,0,1.58-5.39v-1.85a30.15,30.15,0,0,1-8.82,1.2,34.72,34.72,0,0,1-10.73-1.63,26.06,26.06,0,0,1-8.87-4.85,22.45,22.45,0,0,1-6-8,25.82,25.82,0,0,1-2.18-10.78,27.62,27.62,0,0,1,2.29-11.43,25.14,25.14,0,0,1,6.26-8.66,27.44,27.44,0,0,1,9.25-5.39,33.59,33.59,0,0,1,11.16-1.85A41.57,41.57,0,0,1,686.15,673m-5.66,36.1V686a20.22,20.22,0,0,0-7.3-1.42,12.9,12.9,0,0,0-9.2,3.54,12.34,12.34,0,0,0-3.76,9.41,15.83,15.83,0,0,0,1.2,5.78,10.52,10.52,0,0,0,4.41,5.06,13.56,13.56,0,0,0,7.35,2,19.53,19.53,0,0,0,7.3-1.31"/><path class="cls-1" d="M709.46,663a9.38,9.38,0,0,1-3-6.86,10.75,10.75,0,0,1,1-4.14,9.1,9.1,0,0,1,3.43-3.92,9.66,9.66,0,0,1,12.25,1.25,9.21,9.21,0,0,1,2.94,6.81A9.7,9.7,0,0,1,709.46,663m-1.31,61.3V672.62a49.5,49.5,0,0,1,8.05-.65,54.4,54.4,0,0,1,8.17.65v51.72a49.06,49.06,0,0,1-8.17.66,51.08,51.08,0,0,1-8.05-.66"/><path class="cls-1" d="M773,713.78a17,17,0,0,1,2.4,6.42A26.25,26.25,0,0,1,758.67,726a27.38,27.38,0,0,1-11.54-2.12,15.32,15.32,0,0,1-6.91-6,18,18,0,0,1-2.35-9.52V686.78h-8.82a41.15,41.15,0,0,1,0-13.29h8.82V659.88a55.21,55.21,0,0,1,8.28-.65,45.65,45.65,0,0,1,7.84.65v13.61h18.08a32,32,0,0,1,.76,6.43,38.58,38.58,0,0,1-.76,6.86H754v17.53c0,2.75.64,4.75,1.91,6a7.71,7.71,0,0,0,5.6,1.86,10.87,10.87,0,0,0,7.19-3,12.91,12.91,0,0,1,4.35,4.68"/><path class="cls-1" d="M817,674a19,19,0,0,1,8.33,7.68,24.45,24.45,0,0,1,2.77,12.19V721A68.21,68.21,0,0,1,802,726.08q-11.21,0-17.31-4.3t-6.1-12.68a16.74,16.74,0,0,1,1.09-5.88,12.93,12.93,0,0,1,3.81-5.28,20.44,20.44,0,0,1,7.08-3.76,34.5,34.5,0,0,1,10.56-1.42A43.81,43.81,0,0,1,812,694.29v-2.07a6.72,6.72,0,0,0-2.61-5.55c-1.75-1.38-4.43-2.07-8.06-2.07a23.39,23.39,0,0,0-8,1.36,22.89,22.89,0,0,0-6.1,3.1,14.48,14.48,0,0,1-4.52-4.19,14.15,14.15,0,0,1-2.44-6.15,28,28,0,0,1,5.82-3.7,33.24,33.24,0,0,1,8.33-2.89,41.47,41.47,0,0,1,8.27-.93q8.72,0,14.27,2.78m-19.76,39a11.8,11.8,0,0,0,6.91,1.74,28.17,28.17,0,0,0,7.84-1.2v-9.47a32,32,0,0,0-8.93-1.2,11.12,11.12,0,0,0-6.1,1.42,4.61,4.61,0,0,0-2.17,4.13,5.36,5.36,0,0,0,2.45,4.58"/><path class="cls-1" d="M838.49,724.34V653a47.57,47.57,0,0,1,8-.65,55.84,55.84,0,0,1,8.39.65v71.32a46.06,46.06,0,0,1-8.06.66,53.87,53.87,0,0,1-8.28-.66"/></svg>