<svg id="Capa_1" data-name="Capa 1" xmlns="http://www.w3.org/2000/svg" viewBox="0 0 1080 1080"><defs><style>.cls-1,.cls-2{fill:#273eca;}.cls-2{font-size:80px;font-family:Poppins-ExtraBoldItalic, Poppins;font-weight:800;font-style:italic;}</style></defs><title>peer</title><rect class="cls-1" x="77.53" y="305.1" width="39.81" height="324.18"/><path class="cls-1" d="M201.7,305.1A120.38,120.38,0,1,0,322.09,425.48,120.38,120.38,0,0,0,201.7,305.1Zm0,208.53A86.26,86.26,0,1,1,288,427.38,86.25,86.25,0,0,1,201.7,513.63Z"/><path class="cls-1" d="M461.2,306.76A120.36,120.36,0,0,0,340.82,427.15c0,.3,0,.6,0,1H542.72A81.53,81.53,0,0,0,534.81,394H382.37c.06-.15.12-.28.19-.44.36-.79.74-1.59,1.12-2.36s.78-1.58,1.2-2.36c.55-1,1.11-2.06,1.7-3.07s1-1.76,1.59-2.63,1-1.54,1.5-2.3a1.74,1.74,0,0,1,.19-.26c.57-.85,1.16-1.69,1.76-2.5s1.22-1.65,1.86-2.45,1.27-1.59,1.94-2.37,1.32-1.53,2-2.29,1.38-1.48,2.1-2.22,1.4-1.4,2.14-2.12c0,0,0,0,0,0,.72-.7,1.48-1.39,2.24-2.07a86.65,86.65,0,0,1,9.7-7.45c.86-.57,1.71-1.12,2.58-1.65.68-.4,1.35-.82,2-1.19.32-.19.65-.38,1-.55.77-.44,1.57-.86,2.37-1.27a1.11,1.11,0,0,1,.32-.17c1.65-.86,3.36-1.65,5.08-2.41l.27-.12c1.78-.75,3.62-1.46,5.47-2.1.27-.11.52-.19.78-.28.8-.27,1.61-.54,2.43-.78,1-.31,2-.59,3-.86,2-.55,4.1-1,6.16-1.4,1.05-.21,2.11-.38,3.15-.53s2.12-.3,3.19-.42,2.14-.22,3.22-.3c.91-.08,1.84-.13,2.77-.17l.76,0c1,0,2-.06,3-.06s2,0,3,.06l.75,0c.93,0,1.86.09,2.77.17,1.08.08,2.14.17,3.21.3s2.14.25,3.2.42,2.07.32,3.09.51l.11,0c1,.19,2,.4,3,.63s2,.47,3.07.75,2,.55,3,.86c.82.24,1.61.51,2.41.78.4.13.8.26,1.18.41.77.27,1.55.55,2.31.86.93.36,1.84.72,2.75,1.11s2,.86,2.94,1.33c.81.38,1.63.78,2.42,1.2a6.94,6.94,0,0,1,.72.37c.67.35,1.33.71,2,1.07,1.07.58,2.11,1.19,3.13,1.82.78.49,1.56,1,2.33,1.49a1.27,1.27,0,0,1,.21.14c1.67,1.11,3.3,2.27,4.89,3.5l2.34,1.84c.81.69,1.61,1.35,2.37,2.05s1.47,1.33,2.19,2a1,1,0,0,1,.1.09c.72.69,1.44,1.39,2.12,2.11s1.42,1.48,2.11,2.22,1.61,1.8,2.39,2.73c.45.57.92,1.13,1.38,1.7.11.14.23.27.32.4.55.7,1.08,1.42,1.63,2.14,1.31,1.79,2.56,3.61,3.72,5.48.43.68.85,1.41,1.27,2.11.64,1.08,1.27,2.2,1.86,3.31l1,1.9c.53,1.06,1,2.16,1.54,3.26a85.78,85.78,0,0,1,7.43,34.13V429A86.25,86.25,0,0,1,461.2,515.3c-1,0-2,0-3,0-1.22,0-2.41-.1-3.6-.19-1-.08-2-.17-2.92-.29s-2.09-.24-3.11-.4-2.07-.32-3.09-.51-2-.38-3-.6-2-.48-3-.74c-.74-.19-1.48-.38-2.2-.61-.55-.15-1.1-.32-1.65-.49s-1.35-.42-2-.65c-1-.34-1.91-.68-2.86-1l-2.26-.89-.91-.38c-.81-.34-1.63-.7-2.42-1.08s-1.75-.82-2.6-1.25c-1.88-.93-3.7-1.94-5.48-3-.78-.45-1.54-.93-2.29-1.4a1.27,1.27,0,0,1-.19-.13c-.7-.46-1.41-.93-2.11-1.41-.38-.24-.76-.51-1.13-.79-1.14-.8-2.24-1.63-3.34-2.49l-.95-.75c-.61-.5-1.19-1-1.78-1.5l-.46-.38c-.64-.57-1.29-1.14-1.93-1.73a3.45,3.45,0,0,1-.36-.32c-.64-.62-1.29-1.23-1.92-1.86s-1.19-1.19-1.78-1.8l-.4-.41L396.42,486c-1.31-1.49-2.58-3-3.79-4.62s-2.37-3.21-3.47-4.87c-.55-.84-1.08-1.69-1.61-2.54s-1-1.73-1.52-2.6-1-1.75-1.42-2.64-.91-1.8-1.35-2.71h-36a120.39,120.39,0,1,0,114-159.25Z"/><path class="cls-1" d="M612.14,427.38a120.4,120.4,0,0,0,234.35,38.86h-36c-.44.91-.88,1.82-1.35,2.71s-.93,1.76-1.42,2.64-1,1.74-1.52,2.59-1.06,1.71-1.61,2.54q-1.65,2.5-3.47,4.88c-1.21,1.59-2.48,3.12-3.79,4.62-.65.72-1.29,1.44-1.94,2.14l-.39.42c-.59.61-1.18,1.21-1.79,1.8s-1.27,1.23-1.91,1.86c-.11.11-.25.23-.36.32-.64.59-1.29,1.16-1.93,1.73l-.46.38c-.59.51-1.17,1-1.78,1.49-.32.27-.65.52-1,.76-1.1.85-2.2,1.69-3.34,2.49-.37.28-.75.55-1.13.79-.7.48-1.41,1-2.11,1.4a.85.85,0,0,1-.19.14c-.76.47-1.51.95-2.29,1.4-1.78,1.08-3.6,2.09-5.48,3-.85.44-1.73.86-2.6,1.26s-1.61.73-2.42,1.08l-.91.38-2.26.89c-1,.36-1.9.7-2.86,1-.68.23-1.35.44-2,.64s-1.1.35-1.65.5c-.72.22-1.46.41-2.2.6-1,.27-2,.52-3,.74s-2,.42-3,.61-2,.36-3.09.51-2.06.29-3.11.4-1.93.21-2.92.28c-1.19.1-2.38.16-3.6.19q-1.5.06-3,.06a86.26,86.26,0,0,1-86.26-86.26v-.95a85.73,85.73,0,0,1,7.43-34.12c.49-1.1,1-2.2,1.54-3.26.32-.65.64-1.27,1-1.9.59-1.12,1.22-2.24,1.86-3.32.42-.7.84-1.42,1.27-2.1,1.16-1.88,2.41-3.7,3.72-5.48.55-.72,1.08-1.44,1.63-2.14.09-.13.21-.27.32-.4.46-.57.93-1.14,1.38-1.71.78-.92,1.58-1.83,2.39-2.73.69-.74,1.39-1.47,2.11-2.21s1.4-1.43,2.12-2.11c0,0,.06,0,.1-.09.72-.69,1.45-1.35,2.19-2s1.56-1.37,2.37-2.05,1.56-1.23,2.34-1.84c1.59-1.23,3.22-2.39,4.89-3.51l.21-.13c.77-.51,1.55-1,2.33-1.5,1-.62,2.06-1.23,3.13-1.82.66-.36,1.32-.72,2-1.06.22-.13.47-.26.72-.38.79-.41,1.61-.81,2.42-1.19,1-.48,2-.91,2.94-1.33s1.82-.76,2.75-1.12c.76-.3,1.54-.58,2.31-.85.38-.15.78-.28,1.18-.42.8-.26,1.59-.53,2.41-.77,1-.31,2-.59,3-.86s2-.53,3.07-.76,2-.43,3-.62l.11,0c1-.19,2.07-.36,3.09-.51s2.12-.3,3.2-.42,2.13-.23,3.21-.3c.91-.08,1.84-.13,2.77-.17l.75,0q1.49-.06,3-.06c1,0,2,0,3,.06l.76,0c.93,0,1.86.09,2.77.17,1.08.07,2.16.17,3.22.3s2.13.25,3.19.42,2.1.32,3.15.53c2.06.38,4.13.85,6.16,1.4,1,.27,2,.55,3,.86.82.24,1.63.51,2.43.77.26.1.51.17.77.29,1.86.64,3.7,1.34,5.48,2.1l.27.11c1.72.76,3.43,1.56,5.08,2.41a2.55,2.55,0,0,1,.32.17c.8.42,1.59.84,2.37,1.27.32.17.65.36,1,.55.68.38,1.34.8,2,1.2.87.53,1.72,1.08,2.58,1.65a85.48,85.48,0,0,1,9.7,7.45c.76.68,1.52,1.36,2.24,2.06l0,0c.74.72,1.44,1.42,2.14,2.13s1.42,1.47,2.1,2.21,1.35,1.52,2,2.3,1.31,1.57,1.94,2.37,1.25,1.61,1.85,2.44,1.2,1.65,1.77,2.51a1.74,1.74,0,0,1,.19.26c.51.76,1,1.52,1.5,2.3s1.08,1.74,1.59,2.63,1.15,2,1.7,3.07c.42.78.82,1.56,1.2,2.35s.76,1.58,1.12,2.37c.07.15.13.29.19.44H658.91a81.63,81.63,0,0,0-7.9,34.12H852.89c0-.34,0-.64,0-.94a120.39,120.39,0,1,0-240.77,0Z"/><path class="cls-1" d="M607.42,427.15c0,.4,0,.79,0,1.17H586.29c0-.38,0-.77,0-1.17A125.16,125.16,0,0,0,581.85,394h30A125.16,125.16,0,0,0,607.42,427.15Z"/><path class="cls-1" d="M1002.47,311.62,989.2,336.91a49.45,49.45,0,0,0-10.08-2.13,56.47,56.47,0,0,0-15.83.86c-3.13.7-12.38,3.18-25.48,16.23a117.35,117.35,0,0,0-25.92,39.81V547.53H875.25V306.76h36.64v34.36a79.37,79.37,0,0,1,24.65-22.55C965.33,301.91,995.46,309.63,1002.47,311.62Z"/><text class="cls-2" transform="translate(698.92 725.63)">Market</text></svg>