<svg width="24" height="22" viewBox="0 0 24 22" fill="none" xmlns="http://www.w3.org/2000/svg">
<path d="M12.0472 0.112915C5.87202 0.112915 0.846532 4.95332 0.844355 10.902C0.842903 12.8044 1.35968 14.661 2.33952 16.2962L0.75 21.8871L6.68927 20.3869C8.34137 21.2511 10.1784 21.7018 12.0428 21.7006H12.0472C18.2223 21.7006 23.2478 16.8594 23.25 10.9107C23.2515 8.02929 22.0873 5.31695 19.9715 3.27816C17.8565 1.23864 15.044 0.113641 12.0472 0.112915ZM12.0472 19.8781H12.0435C10.3727 19.8781 8.73387 19.4455 7.30403 18.6282L6.9629 18.4337L3.43984 19.3236L4.38048 16.0139L4.15911 15.6749C3.22929 14.2568 2.73431 12.5978 2.73508 10.902C2.73726 5.95711 6.915 1.93542 12.0508 1.93542C14.5374 1.93614 16.8752 2.87025 18.6339 4.56501C20.3925 6.25977 21.36 8.5134 21.3586 10.91C21.3564 15.8549 17.1794 19.8781 12.0465 19.8781H12.0472ZM17.1547 13.1607C16.8745 13.0265 15.4984 12.374 15.2415 12.2832C14.9852 12.194 14.7987 12.1475 14.6122 12.4175C14.4264 12.6875 13.8893 13.295 13.7267 13.4743C13.5627 13.6543 13.3994 13.6761 13.1192 13.5418C12.839 13.4068 11.9369 13.1223 10.8685 12.2034C10.036 11.4892 9.47419 10.6066 9.31089 10.3359C9.14758 10.0666 9.29347 9.92074 9.43355 9.78646C9.55911 9.66671 9.71371 9.47219 9.85307 9.31469C9.99242 9.15719 10.0389 9.04469 10.1332 8.86469C10.2261 8.68542 10.1797 8.52719 10.1093 8.39292C10.0389 8.25719 9.48 6.93042 9.24557 6.39114C9.01911 5.86566 8.78831 5.93606 8.61629 5.92735C8.45298 5.92009 8.26718 5.91792 8.07919 5.91792C7.89411 5.91792 7.59 5.98542 7.33307 6.25542C7.07686 6.52542 6.35323 7.17719 6.35323 8.50396C6.35323 9.83146 7.35629 11.1132 7.49637 11.2932C7.63645 11.4725 9.47057 14.1965 12.2787 15.365C12.9465 15.6415 13.4676 15.8078 13.8748 15.9326C14.5454 16.138 15.1558 16.1082 15.6377 16.0393C16.1748 15.9616 17.294 15.3875 17.5263 14.7582C17.76 14.129 17.76 13.589 17.6903 13.4765C17.6221 13.364 17.4348 13.2965 17.1547 13.1607V13.1607Z" fill="#4A4A4A"/>
</svg>
